<?xml version="1.0" encoding="UTF-8"?>
<svg id="Capa_2" data-name="Capa 2" xmlns="http://www.w3.org/2000/svg" viewBox="0 0 648 97.38">
  <defs>
    <style>
      .cls-1 {
        fill: #fff;
        stroke-width: 0px;
      }
    </style>
  </defs>
  <g id="Capa_1-2" data-name="Capa 1">
    <g>
      <g>
        <g>
          <polygon class="cls-1" points="186.87 37.77 191.57 37.77 191.57 36 186.87 36 186.87 27.51 184.88 27.51 184.88 37.77 186.34 37.77 186.87 37.77"/>
          <path class="cls-1" d="m194.74,35.85h4.22l.72,1.91h2.12l-4.11-10.26h-1.62l-4.13,10.26h2.07l.73-1.91Zm2.13-5.55l1.47,3.89h-2.96l1.49-3.89Z"/>
          <path class="cls-1" d="m209.07,37.36c.51-.27.9-.62,1.17-1.06.27-.44.4-.94.4-1.48,0-.69-.21-1.28-.62-1.77-.27-.32-.61-.57-1.02-.77.29-.17.53-.36.73-.59.35-.42.53-.93.53-1.51,0-.48-.12-.92-.35-1.32-.23-.4-.58-.73-1.04-.98-.46-.25-1.03-.37-1.71-.37h-4.14v10.26h4.2c.73,0,1.35-.13,1.86-.4Zm-2.15-8.24c.41,0,.74.1.99.31.25.2.37.52.37.93s-.12.71-.37.92c-.25.2-.58.31-.99.31h-1.94v-2.47h1.94Zm-1.94,7.02v-2.95h2.16c.32,0,.6.07.82.2.23.13.4.31.52.53s.18.47.18.74c0,.4-.13.74-.4,1.04-.27.29-.64.44-1.12.44h-2.16Z"/>
          <path class="cls-1" d="m213.23,36.39c.48.48,1.05.86,1.69,1.13.65.27,1.34.41,2.09.41s1.44-.14,2.08-.41c.64-.27,1.2-.65,1.68-1.13.48-.48.86-1.04,1.13-1.69.27-.64.41-1.33.41-2.07s-.14-1.43-.41-2.07c-.27-.64-.65-1.2-1.13-1.69-.48-.48-1.04-.86-1.69-1.12-.64-.27-1.34-.4-2.1-.4s-1.44.13-2.09.4c-.64.27-1.2.64-1.69,1.12-.48.48-.86,1.04-1.12,1.68-.27.64-.4,1.33-.4,2.06s.14,1.43.41,2.08c.27.65.65,1.21,1.13,1.69Zm.9-5.57c.28-.52.66-.92,1.15-1.2.49-.29,1.06-.43,1.7-.43.5,0,.94.08,1.34.25.4.17.74.4,1.04.71.29.31.52.67.67,1.09.16.42.23.88.23,1.39,0,.69-.14,1.29-.42,1.81-.28.52-.66.92-1.15,1.21-.49.29-1.06.44-1.72.44-.48,0-.92-.08-1.32-.25-.4-.17-.75-.4-1.04-.7s-.51-.67-.67-1.09-.24-.9-.24-1.42c0-.68.14-1.28.42-1.8Z"/>
          <path class="cls-1" d="m225.87,33.48h.34l3.27,4.29h2.41l-3.43-4.33c.43-.05.82-.16,1.17-.33.51-.25.9-.59,1.17-1.04.28-.44.42-.97.42-1.57s-.14-1.1-.42-1.55c-.28-.45-.67-.8-1.17-1.06-.5-.26-1.08-.39-1.74-.39h-4.01v10.26h1.98v-4.29Zm1.85-4.35c.49,0,.86.13,1.13.4.27.27.4.6.4,1,0,.44-.13.78-.4,1.03-.27.25-.64.37-1.13.37h-1.85v-2.8h1.85Z"/>
          <path class="cls-1" d="m234.75,35.85h4.22l.72,1.91h2.12l-4.11-10.26h-1.62l-4.13,10.26h2.07l.73-1.91Zm2.13-5.55l1.47,3.89h-2.96l1.49-3.89Z"/>
          <polygon class="cls-1" points="249.61 29.27 249.61 27.51 241.08 27.51 241.08 29.27 244.35 29.27 244.35 37.77 246.35 37.77 246.35 29.27 249.61 29.27"/>
          <path class="cls-1" d="m251.4,36.39c.48.48,1.05.86,1.69,1.13.65.27,1.34.41,2.09.41s1.44-.14,2.08-.41c.64-.27,1.2-.65,1.68-1.13s.86-1.04,1.13-1.69c.27-.64.41-1.33.41-2.07s-.14-1.43-.41-2.07c-.27-.64-.65-1.2-1.13-1.69-.48-.48-1.04-.86-1.69-1.12s-1.34-.4-2.1-.4-1.44.13-2.09.4c-.64.27-1.2.64-1.69,1.12-.48.48-.86,1.04-1.12,1.68-.27.64-.4,1.33-.4,2.06s.14,1.43.41,2.08c.27.65.65,1.21,1.13,1.69Zm.9-5.57c.28-.52.66-.92,1.15-1.2s1.06-.43,1.7-.43c.5,0,.94.08,1.34.25.4.17.74.4,1.04.71.29.31.52.67.67,1.09.16.42.23.88.23,1.39,0,.69-.14,1.29-.42,1.81-.28.52-.66.92-1.15,1.21-.49.29-1.06.44-1.72.44-.48,0-.92-.08-1.32-.25-.4-.17-.75-.4-1.04-.7s-.51-.67-.67-1.09-.24-.9-.24-1.42c0-.68.14-1.28.42-1.8Z"/>
          <path class="cls-1" d="m264.05,33.48h.34l3.27,4.29h2.41l-3.43-4.33c.43-.05.82-.16,1.17-.33.51-.25.9-.59,1.17-1.04.28-.44.42-.97.42-1.57s-.14-1.1-.42-1.55c-.28-.45-.67-.8-1.17-1.06-.5-.26-1.08-.39-1.74-.39h-4.01v10.26h1.98v-4.29Zm1.85-4.35c.49,0,.86.13,1.13.4.27.27.4.6.4,1,0,.44-.13.78-.4,1.03-.27.25-.64.37-1.13.37h-1.85v-2.8h1.85Z"/>
          <rect class="cls-1" x="271.2" y="27.51" width="1.98" height="10.26"/>
          <path class="cls-1" d="m276.3,36.39c.48.48,1.05.86,1.69,1.13.65.27,1.34.41,2.09.41s1.44-.14,2.08-.41c.64-.27,1.2-.65,1.68-1.13s.86-1.04,1.13-1.69c.27-.64.41-1.33.41-2.07s-.14-1.43-.41-2.07c-.27-.64-.65-1.2-1.13-1.69s-1.04-.86-1.69-1.12-1.34-.4-2.1-.4-1.44.13-2.09.4c-.64.27-1.2.64-1.69,1.12s-.86,1.04-1.12,1.68c-.27.64-.4,1.33-.4,2.06s.14,1.43.41,2.08c.27.65.65,1.21,1.13,1.69Zm.9-5.57c.28-.52.66-.92,1.15-1.2s1.06-.43,1.7-.43c.5,0,.94.08,1.34.25.4.17.74.4,1.04.71.29.31.52.67.67,1.09.16.42.23.88.23,1.39,0,.69-.14,1.29-.42,1.81-.28.52-.66.92-1.15,1.21-.49.29-1.06.44-1.72.44-.48,0-.92-.08-1.32-.25-.4-.17-.75-.4-1.04-.7s-.51-.67-.67-1.09-.24-.9-.24-1.42c0-.68.14-1.28.42-1.8Z"/>
          <path class="cls-1" d="m192.68,45.01c-.48-.46-1.05-.82-1.69-1.07-.65-.25-1.35-.38-2.11-.38h-4v10.26h4.03c.75,0,1.45-.13,2.09-.38.65-.25,1.21-.61,1.69-1.07.48-.46.85-1.01,1.12-1.63.27-.63.4-1.31.4-2.05s-.13-1.42-.4-2.04c-.27-.62-.64-1.17-1.12-1.63Zm-.93,5.45c-.28.51-.66.9-1.16,1.17-.5.28-1.07.42-1.74.42h-1.98v-6.73h1.98c.65,0,1.23.14,1.72.42.5.28.89.67,1.17,1.17.28.5.42,1.09.42,1.76s-.14,1.29-.42,1.79Z"/>
          <polygon class="cls-1" points="202.85 45.31 202.85 43.56 197.77 43.56 197.24 43.56 195.78 43.56 195.78 53.82 197.24 53.82 197.77 53.82 202.92 53.82 202.92 52.07 197.77 52.07 197.77 49.42 202.41 49.42 202.41 47.73 197.77 47.73 197.77 45.31 202.85 45.31"/>
          <path class="cls-1" d="m214.9,46.78c0-.66-.15-1.23-.45-1.71-.3-.48-.71-.85-1.23-1.12-.52-.26-1.11-.39-1.76-.39h-4.04v10.26h1.98v-3.81h2.06c.65,0,1.24-.13,1.76-.39.52-.26.93-.64,1.23-1.12.3-.48.45-1.05.45-1.71Zm-2.2.87c-.15.24-.35.42-.6.55-.25.13-.54.19-.85.19h-1.85v-3.21h1.85c.31,0,.59.06.85.19.25.13.45.31.6.55.15.24.22.53.22.86s-.07.63-.22.87Z"/>
          <path class="cls-1" d="m218.91,43.56l-4.13,10.26h2.07l.73-1.91h4.22l.72,1.91h2.12l-4.11-10.26h-1.62Zm-.69,6.68l1.49-3.89,1.47,3.89h-2.96Z"/>
          <path class="cls-1" d="m232.78,48.12c.28-.44.42-.97.42-1.57s-.14-1.1-.42-1.55c-.28-.45-.67-.8-1.17-1.06-.5-.26-1.08-.39-1.74-.39h-4.01v10.26h1.98v-4.29h.34l3.27,4.29h2.41l-3.43-4.33c.43-.05.82-.16,1.17-.33.51-.25.9-.59,1.17-1.04Zm-1.96-.51c-.27.25-.64.37-1.13.37h-1.85v-2.8h1.85c.49,0,.86.13,1.13.4s.4.6.4,1c0,.44-.13.78-.4,1.03Z"/>
          <polygon class="cls-1" points="239.11 53.82 239.11 45.32 242.38 45.32 242.38 43.56 233.84 43.56 233.84 45.32 237.11 45.32 237.11 53.82 239.11 53.82"/>
          <rect class="cls-1" x="243.75" y="43.56" width="1.98" height="10.26"/>
          <path class="cls-1" d="m250.26,46.19c.29-.31.64-.54,1.03-.7.39-.16.83-.24,1.31-.24.54,0,1.02.09,1.43.26.41.18.75.42,1.04.73l1.34-1.34c-.48-.47-1.03-.83-1.65-1.1s-1.34-.4-2.16-.4c-.76,0-1.46.14-2.09.41-.64.27-1.2.65-1.68,1.12-.48.48-.85,1.04-1.11,1.68-.26.64-.39,1.33-.39,2.07s.13,1.43.39,2.07c.26.64.63,1.2,1.11,1.69.48.48,1.04.86,1.69,1.12.64.27,1.34.4,2.09.4.84,0,1.57-.13,2.2-.39s1.19-.63,1.66-1.11l-1.34-1.34c-.28.32-.63.57-1.04.74-.41.17-.91.26-1.48.26-.48,0-.91-.08-1.31-.25-.39-.17-.74-.4-1.03-.71-.29-.31-.52-.67-.67-1.09-.16-.42-.23-.89-.23-1.4s.08-.97.23-1.39.38-.79.67-1.09Z"/>
          <rect class="cls-1" x="257.84" y="43.56" width="1.98" height="10.26"/>
          <path class="cls-1" d="m263.91,50.01h2.06c.65,0,1.24-.13,1.76-.39.52-.26.93-.64,1.23-1.12.3-.48.45-1.05.45-1.71s-.15-1.23-.45-1.71c-.3-.48-.71-.85-1.23-1.12-.52-.26-1.11-.39-1.76-.39h-4.04v10.26h1.98v-3.81Zm1.85-4.83c.31,0,.59.06.85.19.25.13.45.31.6.55.15.24.22.53.22.86s-.07.63-.22.87c-.15.24-.35.42-.6.55-.25.13-.54.19-.85.19h-1.85v-3.21h1.85Z"/>
          <path class="cls-1" d="m271.37,53.82l.73-1.91h4.22l.72,1.91h2.12l-4.11-10.26h-1.62l-4.13,10.26h2.07Zm2.86-7.46l1.47,3.89h-2.96l1.49-3.89Z"/>
          <path class="cls-1" d="m284.55,53.96c.84,0,1.57-.13,2.2-.39s1.19-.63,1.66-1.11l-1.34-1.34c-.28.32-.63.57-1.04.74-.41.17-.91.26-1.48.26-.48,0-.91-.08-1.31-.25-.39-.17-.74-.4-1.03-.71-.29-.31-.52-.67-.67-1.09-.16-.42-.23-.89-.23-1.4s.08-.97.23-1.39c.16-.42.38-.79.67-1.09.29-.31.64-.54,1.03-.7.39-.16.83-.24,1.31-.24.54,0,1.02.09,1.43.26.41.18.75.42,1.04.73l1.34-1.34c-.48-.47-1.03-.83-1.65-1.1s-1.34-.4-2.16-.4c-.76,0-1.46.14-2.09.41-.64.27-1.2.65-1.68,1.12-.48.48-.85,1.04-1.11,1.68-.26.64-.39,1.33-.39,2.07s.13,1.43.39,2.07c.26.64.63,1.2,1.11,1.69.48.48,1.04.86,1.69,1.12.64.27,1.34.4,2.09.4Z"/>
          <rect class="cls-1" x="289.8" y="43.56" width="1.98" height="10.26"/>
          <polygon class="cls-1" points="300.34 40.96 299.11 39.47 297.01 41.75 297.74 42.65 300.34 40.96"/>
          <path class="cls-1" d="m302.44,44.92c-.48-.48-1.04-.86-1.69-1.12s-1.34-.4-2.1-.4-1.44.13-2.09.4c-.64.27-1.2.64-1.69,1.12-.48.48-.86,1.04-1.12,1.68-.27.64-.4,1.33-.4,2.06s.14,1.43.41,2.08c.27.65.65,1.21,1.13,1.69s1.05.86,1.69,1.13,1.34.41,2.09.41,1.44-.14,2.08-.41,1.2-.65,1.68-1.13.86-1.04,1.13-1.69c.27-.64.41-1.33.41-2.07s-.14-1.43-.41-2.07c-.27-.64-.65-1.2-1.13-1.69Zm-.92,5.55c-.28.52-.66.92-1.15,1.21-.49.29-1.06.44-1.72.44-.48,0-.92-.08-1.32-.25-.4-.17-.75-.4-1.04-.7s-.51-.67-.67-1.09-.24-.9-.24-1.42c0-.68.14-1.28.42-1.8.28-.52.66-.92,1.15-1.2.49-.29,1.06-.43,1.7-.43.5,0,.94.08,1.34.25.4.17.74.4,1.04.71.29.31.52.67.67,1.09.16.42.23.88.23,1.39,0,.69-.14,1.29-.42,1.81Z"/>
          <polygon class="cls-1" points="312.08 43.56 312.08 50.21 306.95 43.56 305.56 43.56 305.56 53.82 307.54 53.82 307.54 47.2 312.65 53.82 314.08 53.82 314.08 43.56 312.08 43.56"/>
          <polygon class="cls-1" points="188.81 63.58 186.39 59.61 184.1 59.61 187.8 65.5 187.8 69.87 189.8 69.87 189.8 65.41 193.49 59.61 191.23 59.61 188.81 63.58"/>
          <polygon class="cls-1" points="196.27 61.38 199.53 61.38 199.53 69.87 201.53 69.87 201.53 61.38 204.8 61.38 204.8 59.61 196.27 59.61 196.27 61.38"/>
          <polygon class="cls-1" points="208.16 65.48 212.8 65.48 212.8 63.78 208.16 63.78 208.16 61.36 213.24 61.36 213.24 59.61 208.16 59.61 207.63 59.61 206.17 59.61 206.17 69.87 207.63 69.87 208.16 69.87 213.31 69.87 213.31 68.12 208.16 68.12 208.16 65.48"/>
          <path class="cls-1" d="m215.75,68.49c.48.48,1.04.86,1.69,1.12.64.27,1.34.4,2.09.4.84,0,1.57-.13,2.2-.39s1.19-.63,1.66-1.11l-1.34-1.34c-.28.32-.63.57-1.04.74-.41.17-.91.26-1.48.26-.48,0-.91-.08-1.31-.25-.39-.17-.74-.4-1.03-.71-.29-.31-.52-.67-.67-1.09-.16-.42-.23-.89-.23-1.4s.08-.97.23-1.39c.16-.42.38-.79.67-1.09.29-.31.63-.54,1.03-.7.39-.16.83-.24,1.31-.24.54,0,1.02.09,1.43.26.41.18.75.42,1.04.73l1.34-1.34c-.48-.47-1.03-.83-1.65-1.1-.62-.27-1.34-.4-2.16-.4-.76,0-1.46.14-2.09.41-.64.27-1.2.65-1.68,1.12-.48.48-.85,1.04-1.11,1.68-.26.64-.39,1.33-.39,2.07s.13,1.43.39,2.07c.26.64.63,1.2,1.11,1.69Z"/>
          <polygon class="cls-1" points="233.3 59.61 231.3 59.61 231.3 66.26 226.16 59.61 224.78 59.61 224.78 69.87 226.76 69.87 226.76 63.26 231.87 69.87 233.3 69.87 233.3 59.61"/>
          <path class="cls-1" d="m243.94,60.97c-.48-.48-1.04-.86-1.69-1.12-.64-.27-1.34-.4-2.1-.4s-1.44.13-2.09.4c-.64.27-1.2.64-1.69,1.12-.48.48-.86,1.04-1.12,1.68-.27.64-.4,1.33-.4,2.06s.14,1.43.41,2.08c.27.65.65,1.21,1.13,1.69.48.48,1.05.86,1.69,1.13s1.34.41,2.09.41,1.44-.14,2.08-.41c.64-.27,1.2-.65,1.68-1.13.48-.48.86-1.04,1.13-1.69.27-.64.41-1.33.41-2.07s-.14-1.43-.41-2.07c-.27-.64-.65-1.2-1.13-1.69Zm-.92,5.55c-.28.52-.66.92-1.15,1.21-.49.29-1.06.44-1.72.44-.48,0-.92-.08-1.32-.25-.4-.17-.75-.4-1.04-.7-.29-.3-.51-.67-.67-1.09s-.24-.9-.24-1.42c0-.68.14-1.28.42-1.8.28-.52.66-.92,1.15-1.2.49-.29,1.06-.43,1.7-.43.5,0,.94.08,1.34.25s.74.4,1.04.71c.29.31.52.67.67,1.09.16.42.23.88.23,1.39,0,.69-.14,1.29-.42,1.81Z"/>
          <polygon class="cls-1" points="249.04 59.61 247.06 59.61 247.06 69.87 248.52 69.87 249.04 69.87 253.74 69.87 253.74 68.1 249.04 68.1 249.04 59.61"/>
          <path class="cls-1" d="m263.06,60.97c-.48-.48-1.04-.86-1.69-1.12s-1.34-.4-2.1-.4-1.44.13-2.09.4c-.64.27-1.2.64-1.69,1.12-.48.48-.86,1.04-1.12,1.68-.27.64-.4,1.33-.4,2.06s.14,1.43.41,2.08c.27.65.65,1.21,1.13,1.69.48.48,1.05.86,1.69,1.13s1.34.41,2.09.41,1.44-.14,2.08-.41c.64-.27,1.2-.65,1.68-1.13.48-.48.86-1.04,1.13-1.69.27-.64.41-1.33.41-2.07s-.14-1.43-.41-2.07c-.27-.64-.65-1.2-1.13-1.69Zm-.92,5.55c-.28.52-.66.92-1.15,1.21-.49.29-1.06.44-1.72.44-.48,0-.92-.08-1.32-.25-.4-.17-.75-.4-1.04-.7s-.51-.67-.67-1.09-.24-.9-.24-1.42c0-.68.14-1.28.42-1.8.28-.52.66-.92,1.15-1.2.49-.29,1.06-.43,1.7-.43.5,0,.94.08,1.34.25.4.17.74.4,1.04.71.29.31.52.67.67,1.09.16.42.23.88.23,1.39,0,.69-.14,1.29-.42,1.81Z"/>
          <path class="cls-1" d="m270.92,65.91l3.1.03c-.06.3-.15.58-.28.82-.24.46-.59.81-1.05,1.05-.46.24-1.01.36-1.65.36s-1.17-.15-1.66-.44c-.48-.29-.86-.7-1.14-1.22-.28-.52-.42-1.12-.42-1.8s.14-1.28.42-1.79c.28-.51.67-.91,1.17-1.2.5-.29,1.08-.43,1.73-.43.57,0,1.1.11,1.58.34.48.22.88.54,1.2.96l1.34-1.34c-.47-.57-1.06-1.02-1.77-1.34-.71-.32-1.49-.47-2.33-.47-.76,0-1.46.13-2.12.4s-1.22.64-1.71,1.12c-.49.48-.87,1.04-1.14,1.68-.27.64-.41,1.33-.41,2.08s.13,1.43.4,2.06c.27.64.64,1.2,1.12,1.69.48.49,1.04.86,1.68,1.13.64.27,1.32.4,2.05.4.99,0,1.87-.21,2.63-.62.76-.41,1.36-1.03,1.8-1.85.44-.82.66-1.85.66-3.07v-.28h-5.22v1.72Z"/>
          <rect class="cls-1" x="277.66" y="59.61" width="1.98" height="10.26"/>
          <polygon class="cls-1" points="276.99 57.8 277.72 58.71 280.32 57.01 279.09 55.52 276.99 57.8"/>
          <path class="cls-1" d="m285.12,59.61l-4.13,10.26h2.07l.73-1.91h4.22l.72,1.91h2.12l-4.11-10.26h-1.62Zm-.69,6.68l1.49-3.89,1.47,3.89h-2.96Z"/>
          <path class="cls-1" d="m297.64,64.7c-.29-.23-.6-.42-.95-.57-.35-.15-.69-.28-1.04-.39-.35-.12-.66-.24-.95-.36-.29-.13-.52-.28-.69-.45s-.26-.4-.26-.69c0-.33.13-.58.39-.76s.62-.26,1.08-.26c.4,0,.76.08,1.07.23.32.16.63.4.93.73l1.31-1.31c-.36-.42-.82-.76-1.39-1.02-.56-.26-1.2-.39-1.9-.39-.66,0-1.25.12-1.78.35-.53.23-.94.57-1.24,1.01-.3.44-.45.97-.45,1.59,0,.53.09.96.26,1.31.18.35.41.63.69.85.29.22.6.4.95.55.35.15.69.27,1.04.39.35.11.66.24.95.37s.52.3.69.5c.18.19.26.45.26.76,0,.36-.15.64-.46.85-.31.2-.72.31-1.23.31-.57,0-1.06-.11-1.46-.33-.4-.22-.75-.53-1.05-.93l-1.31,1.31c.48.56,1.01.99,1.6,1.27.59.28,1.3.42,2.12.42,1.17,0,2.09-.27,2.76-.82s1.01-1.29,1.01-2.25c0-.53-.09-.99-.26-1.35-.18-.36-.41-.66-.69-.9Z"/>
        </g>
        <g>
          <path class="cls-1" d="m139.2,52.1c0,1.3.72,1.91,2.26,1.91h4.91c.61,0,.7-.19.7-.63v-3.12h-5.54c-2.05,0-2.33.93-2.33,1.84Z"/>
          <path class="cls-1" d="m124.42,43.45h-.65c-2.78,0-3.81,1.13-3.81,4.16v6.4h4.46c3.03,0,4.26-1.52,4.26-5.26s-1.23-5.3-4.26-5.3Z"/>
          <path class="cls-1" d="m40.27,52.1c0,1.3.72,1.91,2.26,1.91h4.91c.61,0,.7-.19.7-.63v-3.12h-5.54c-2.05,0-2.33.93-2.33,1.84Z"/>
          <path class="cls-1" d="m147.06,15.07H21.01C9.41,15.07,0,24.48,0,36.08v57.08c0,3.74,4.53,5.62,7.17,2.97l13.84-13.84h126.05c11.6,0,21.01-9.41,21.01-21.01V4.21c0-3.74-4.53-5.62-7.17-2.97l-13.84,13.84ZM25.91,58.17h-4.84v7.32h-4.26v-18.06c0-5.38,2.36-8.11,7-8.11h2.1c5.27,0,8.18,3.35,8.18,9.42s-2.9,9.42-8.18,9.42Zm26.42-3.96c0,2.57-.65,3.96-4.06,3.96h-5.77c-4.26,0-6.41-1.97-6.41-5.86s2.11-5.55,6.45-5.55h5.61v-1.08c0-1.01-.43-2.22-2.5-2.22h-8.45v-4.12h8.49c4.29,0,6.66,2.24,6.66,6.31v8.57Zm14.48-10.76h-4.86c-1.44,0-2.05.61-2.05,2.05v12.67h-4.26v-13.22c0-3.94,1.57-5.62,5.24-5.62h5.93v4.12Zm13-.07h-3.36v8.34c0,1.82.54,2.43,2.15,2.43h1.14v3.95h-1.9c-4.09,0-5.69-1.85-5.69-6.59v-8.13h-2.49v-4.12h2.49v-4.32h4.29v4.32h3.36v4.12Zm7.39,14.78h-4.26v-18.84h4.26v18.84Zm.09-20.94h-4.45v-4.45h4.45v4.45Zm17.8,6.22h-6.75c-3.03,0-4.26,1.53-4.26,5.3s1.23,5.26,4.26,5.26h6.75v4.16h-7.1c-5.29,0-8.21-3.35-8.21-9.42s2.92-9.42,8.21-9.42h7.1v4.12Zm7.36,14.72h-4.26v-18.84h4.26v18.84Zm.09-20.94h-4.45v-4.45h4.45v4.45Zm12.27,20.94h-4.84v7.32h-4.26v-18.06c0-5.38,2.36-8.11,7-8.11h2.1c5.27,0,8.18,3.35,8.18,9.42s-2.9,9.42-8.18,9.42Zm26.46-3.96c0,2.57-.65,3.96-4.06,3.96h-5.77c-4.26,0-6.41-1.97-6.41-5.86s2.11-5.55,6.45-5.55h5.61v-1.08c0-1.01-.43-2.22-2.5-2.22h-8.45v-4.12h8.49c4.29,0,6.66,2.24,6.66,6.31v8.57Z"/>
          <path class="cls-1" d="m25.53,43.45h-.65c-2.78,0-3.81,1.13-3.81,4.16v6.4h4.46c3.03,0,4.26-1.52,4.26-5.26s-1.23-5.3-4.26-5.3Z"/>
        </g>
      </g>
      <g>
        <path class="cls-1" d="m632.69,42.39v2.55c-1.25-1.04-2.53-1.56-3.87-1.56-1.47,0-2.7.53-3.71,1.58-1.01,1.05-1.52,2.33-1.52,3.85s.51,2.76,1.52,3.79c1.01,1.03,2.25,1.54,3.72,1.54.76,0,1.4-.12,1.93-.37.3-.12.6-.29.92-.5.32-.21.65-.46,1-.76v2.6c-1.23.7-2.53,1.05-3.89,1.05-2.04,0-3.78-.71-5.23-2.14-1.44-1.44-2.16-3.17-2.16-5.2,0-1.82.6-3.44,1.8-4.87,1.48-1.75,3.4-2.62,5.75-2.62,1.28,0,2.52.35,3.72,1.04Z"/>
        <path class="cls-1" d="m644.14,52.44h-6.12l-1.59,3.47h-2.32l7.07-15.18,6.82,15.18h-2.36l-1.5-3.47Zm-.88-2.03l-2.12-4.86-2.22,4.86h4.34Z"/>
        <path class="cls-1" d="m497.58,19.83v8.6c0,1.23.2,2.12.6,2.69.6.82,1.44,1.23,2.53,1.23s1.94-.41,2.53-1.23c.4-.55.6-1.45.6-2.69v-8.6h2.16v9.2c0,1.51-.47,2.75-1.41,3.72-1.05,1.09-2.35,1.63-3.89,1.63s-2.83-.54-3.88-1.63c-.94-.97-1.41-2.21-1.41-3.72v-9.2h2.16Z"/>
        <path class="cls-1" d="m509.71,34.11v-15.26l10.42,10.9v-9.93h2.16v15.15l-10.42-10.87v10h-2.16Z"/>
        <path class="cls-1" d="m528.15,19.83v14.29h-2.16v-14.29h2.16Z"/>
        <path class="cls-1" d="m532.58,19.83l3.95,9.9,4.01-9.9h2.36l-6.41,15.36-6.26-15.36h2.36Z"/>
        <path class="cls-1" d="m552.84,21.85h-5.73v3.43h5.56v2.03h-5.56v4.77h5.73v2.03h-7.88v-14.29h7.88v2.03Z"/>
        <path class="cls-1" d="m560.8,28.03l4.42,6.09h-2.64l-4.08-5.85h-.39v5.85h-2.16v-14.29h2.53c1.89,0,3.25.36,4.09,1.07.92.79,1.39,1.83,1.39,3.13,0,1.01-.29,1.88-.87,2.61-.58.73-1.34,1.19-2.29,1.4Zm-2.68-1.64h.68c2.04,0,3.06-.78,3.06-2.34,0-1.46-.99-2.19-2.98-2.19h-.77v4.53Z"/>
        <path class="cls-1" d="m575.73,21.95l-1.75,1.04c-.33-.57-.64-.94-.93-1.11-.31-.2-.71-.3-1.19-.3-.6,0-1.1.17-1.49.51-.4.33-.59.75-.59,1.26,0,.7.52,1.26,1.55,1.68l1.42.58c1.16.47,2.01,1.04,2.54,1.72.54.68.8,1.5.8,2.49,0,1.31-.44,2.4-1.31,3.26-.88.86-1.98,1.3-3.28,1.3-1.24,0-2.26-.37-3.07-1.11-.8-.74-1.29-1.77-1.49-3.1l2.18-.48c.1.84.27,1.42.52,1.74.44.62,1.09.92,1.94.92.67,0,1.23-.22,1.67-.67.44-.45.67-1.02.67-1.71,0-.28-.04-.53-.12-.76-.08-.23-.2-.44-.36-.64-.16-.19-.37-.38-.63-.55s-.57-.33-.92-.49l-1.38-.57c-1.96-.83-2.93-2.03-2.93-3.62,0-1.07.41-1.97,1.23-2.69.82-.73,1.84-1.09,3.06-1.09,1.65,0,2.93.8,3.86,2.4Z"/>
        <path class="cls-1" d="m581.14,19.83v14.29h-2.16v-14.29h2.16Z"/>
        <path class="cls-1" d="m584.85,34.11v-14.29h3c1.44,0,2.57.14,3.4.43.89.28,1.71.75,2.43,1.42,1.47,1.34,2.21,3.11,2.21,5.3s-.77,3.97-2.3,5.33c-.77.68-1.58,1.15-2.42,1.42-.79.27-1.91.4-3.36.4h-2.96Zm2.16-2.03h.97c.97,0,1.77-.1,2.41-.3.64-.22,1.22-.56,1.74-1.03,1.06-.97,1.59-2.23,1.59-3.78s-.52-2.84-1.57-3.81c-.94-.87-2.33-1.3-4.17-1.3h-.97v10.23Z"/>
        <path class="cls-1" d="m606.58,30.64h-6.12l-1.59,3.47h-2.32l7.07-15.18,6.82,15.18h-2.36l-1.5-3.47Zm-.88-2.02l-2.12-4.86-2.22,4.86h4.34Z"/>
        <path class="cls-1" d="m612.51,34.11v-14.29h3c1.44,0,2.57.14,3.4.43.89.28,1.71.75,2.43,1.42,1.47,1.34,2.21,3.11,2.21,5.3s-.77,3.97-2.3,5.33c-.77.68-1.58,1.15-2.42,1.42-.79.27-1.91.4-3.36.4h-2.96Zm2.16-2.03h.97c.97,0,1.77-.1,2.41-.3.64-.22,1.22-.56,1.74-1.03,1.06-.97,1.59-2.23,1.59-3.78s-.52-2.84-1.57-3.81c-.94-.87-2.33-1.3-4.17-1.3h-.97v10.23Z"/>
        <path class="cls-1" d="m495.43,55.59v-14.29h3c1.44,0,2.57.14,3.4.43.89.28,1.71.75,2.43,1.42,1.47,1.35,2.21,3.11,2.21,5.3s-.77,3.97-2.3,5.33c-.77.68-1.58,1.15-2.42,1.42-.79.27-1.91.4-3.36.4h-2.96Zm2.16-2.03h.97c.97,0,1.77-.1,2.41-.3.64-.22,1.22-.56,1.74-1.03,1.06-.97,1.59-2.23,1.59-3.79s-.52-2.84-1.57-3.81c-.94-.87-2.34-1.3-4.17-1.3h-.97v10.23Z"/>
        <path class="cls-1" d="m517.07,43.33h-5.73v3.43h5.56v2.03h-5.56v4.77h5.73v2.03h-7.88v-14.29h7.88v2.03Z"/>
        <path class="cls-1" d="m526.23,41.3v12.26h4.2v2.03h-6.36v-14.29h2.16Z"/>
        <path class="cls-1" d="m541.66,52.12h-6.12l-1.59,3.47h-2.32l7.07-15.18,6.82,15.18h-2.36l-1.5-3.47Zm-.88-2.03l-2.12-4.86-2.22,4.86h4.34Z"/>
        <path class="cls-1" d="m555.43,49.5l4.42,6.09h-2.64l-4.08-5.85h-.39v5.85h-2.16v-14.29h2.53c1.89,0,3.25.35,4.09,1.06.92.79,1.39,1.83,1.39,3.13,0,1.01-.29,1.88-.87,2.61-.58.73-1.34,1.19-2.29,1.4Zm-2.68-1.64h.68c2.04,0,3.06-.78,3.06-2.34,0-1.46-.99-2.19-2.98-2.19h-.77v4.53Z"/>
        <path class="cls-1" d="m569.88,43.33h-5.73v3.43h5.56v2.03h-5.56v4.77h5.73v2.03h-7.88v-14.29h7.88v2.03Z"/>
        <path class="cls-1" d="m574.87,49.79v5.8h-2.16v-14.29h2.44c1.2,0,2.1.08,2.71.25.62.17,1.16.48,1.63.94.82.8,1.23,1.81,1.23,3.03,0,1.31-.44,2.34-1.31,3.11-.88.77-2.06,1.15-3.54,1.15h-1Zm0-2h.8c1.98,0,2.97-.76,2.97-2.28s-1.02-2.21-3.06-2.21h-.71v4.5Z"/>
        <path class="cls-1" d="m585.1,41.3v8.6c0,1.23.2,2.12.6,2.69.6.82,1.44,1.23,2.53,1.23s1.94-.41,2.53-1.23c.4-.55.6-1.45.6-2.69v-8.6h2.16v9.2c0,1.51-.47,2.75-1.41,3.72-1.05,1.09-2.35,1.63-3.89,1.63s-2.83-.54-3.88-1.63c-.94-.97-1.41-2.21-1.41-3.72v-9.2h2.16Zm6.4-3.84l-3.77,2.55-1.03-.86,2.97-2.98,1.83,1.29Z"/>
        <path class="cls-1" d="m596.94,55.59v-14.29h2.15c.96,0,1.72.07,2.29.22.57.15,1.06.4,1.45.75.4.36.72.82.95,1.36.24.55.36,1.1.36,1.67,0,1.02-.39,1.89-1.17,2.6.76.26,1.36.71,1.79,1.36.44.64.67,1.39.67,2.24,0,1.12-.39,2.06-1.18,2.83-.48.47-1.01.8-1.6.99-.65.18-1.46.27-2.43.27h-3.27Zm2.16-8.15h.68c.8,0,1.39-.18,1.76-.53.37-.36.56-.88.56-1.57s-.19-1.18-.57-1.53c-.38-.35-.94-.52-1.67-.52h-.76v4.15Zm0,6.13h1.33c.97,0,1.69-.19,2.15-.57.48-.41.72-.94.72-1.57s-.23-1.13-.69-1.55c-.45-.41-1.26-.62-2.41-.62h-1.09v4.32Z"/>
        <path class="cls-1" d="m610.3,41.3v12.26h4.2v2.03h-6.36v-14.29h2.16Z"/>
        <path class="cls-1" d="m618.7,41.3v14.29h-2.16v-14.29h2.16Z"/>
        <path class="cls-1" d="m497.58,62.78v8.6c0,1.23.2,2.12.6,2.69.6.82,1.44,1.23,2.53,1.23s1.94-.41,2.53-1.23c.4-.55.6-1.45.6-2.69v-8.6h2.16v9.2c0,1.5-.47,2.74-1.41,3.72-1.05,1.09-2.35,1.63-3.89,1.63s-2.83-.54-3.88-1.63c-.94-.97-1.41-2.21-1.41-3.72v-9.2h2.16Z"/>
        <path class="cls-1" d="m514.83,70.97l4.42,6.09h-2.64l-4.08-5.85h-.39v5.85h-2.16v-14.28h2.53c1.89,0,3.25.35,4.09,1.06.92.79,1.39,1.83,1.39,3.13,0,1.01-.29,1.88-.87,2.61-.58.73-1.34,1.19-2.29,1.4Zm-2.68-1.64h.68c2.04,0,3.06-.78,3.06-2.34,0-1.46-.99-2.19-2.98-2.19h-.77v4.53Z"/>
        <path class="cls-1" d="m523.91,62.78v8.6c0,1.23.2,2.12.6,2.69.6.82,1.44,1.23,2.53,1.23s1.94-.41,2.53-1.23c.4-.55.6-1.45.6-2.69v-8.6h2.16v9.2c0,1.5-.47,2.74-1.41,3.72-1.05,1.09-2.35,1.63-3.89,1.63s-2.83-.54-3.88-1.63c-.94-.97-1.41-2.21-1.41-3.72v-9.2h2.15Z"/>
        <path class="cls-1" d="m543.67,69.62h5.9v.47c0,1.07-.13,2.02-.38,2.85-.25.77-.66,1.48-1.25,2.15-1.33,1.49-3.01,2.24-5.06,2.24s-3.71-.72-5.13-2.16c-1.42-1.45-2.14-3.19-2.14-5.22s.72-3.83,2.17-5.27c1.45-1.45,3.21-2.17,5.29-2.17,1.12,0,2.16.23,3.13.68.92.46,1.83,1.19,2.73,2.21l-1.54,1.47c-1.17-1.56-2.6-2.34-4.28-2.34-1.51,0-2.78.52-3.8,1.56-1.02,1.02-1.54,2.31-1.54,3.85s.57,2.9,1.71,3.93c1.07.96,2.22,1.43,3.47,1.43,1.06,0,2.01-.36,2.86-1.07.84-.72,1.32-1.58,1.42-2.58h-3.56v-2.03Z"/>
        <path class="cls-1" d="m555.01,62.78v8.6c0,1.23.2,2.12.6,2.69.6.82,1.44,1.23,2.53,1.23s1.94-.41,2.53-1.23c.4-.55.6-1.45.6-2.69v-8.6h2.16v9.2c0,1.5-.47,2.74-1.41,3.72-1.05,1.09-2.35,1.63-3.89,1.63s-2.83-.54-3.88-1.63c-.94-.97-1.41-2.21-1.41-3.72v-9.2h2.16Z"/>
        <path class="cls-1" d="m575.2,73.59h-6.12l-1.59,3.47h-2.32l7.07-15.18,6.82,15.18h-2.36l-1.5-3.47Zm-.88-2.03l-2.12-4.86-2.22,4.86h4.34Z"/>
        <path class="cls-1" d="m583.05,70.89l-4.66-8.11h2.48l3.27,5.71,3.28-5.71h2.48l-4.68,8.11v6.17h-2.16v-6.17Z"/>
        <g>
          <path class="cls-1" d="m465.59,55.94h-10.68v-3.15h1.4v-1.57h-.94c-.44-.52-.95-.99-1.51-1.4v-2.45h-2.8c-.61.36-1.33.56-2.09.56s-1.48-.2-2.09-.56h-3.85v-1.05h2.62v-.53h6.64v.53h2.62v-1.92h-1.05c-.12-4.45-4.96-8.04-10.92-8.04-.04,0-.08,0-.12,0-.05,0-.1,0-.14,0h-27.26s-.1,0-.14,0c-.04,0-.08,0-.12,0-5.95,0-10.79,3.58-10.92,8.04h-1.05v1.92h2.62v-.53s6.64,0,6.64,0v.53h2.62v1.05h-3.85c-.61.36-1.33.56-2.09.56s-1.48-.2-2.09-.56h-2.8v2.45c-.56.4-1.07.87-1.51,1.4h-.94v1.57h1.4v3.15h-10.68V7.36h73.07v48.57Zm-.13,2.1h-10.55v-.7h10.62c-.01.12-.05.58-.06.7m-.56,3.14l-.08.35h-9.38v1.22h9.08c-.05.17-.09.35-.14.52h-8.94v9.96h-.52v-13.98h10.35c-.1.65-.23,1.29-.37,1.92m-3.17,8.85v-5.01h2.11c-.58,1.73-1.29,3.4-2.11,5.01m-1.4,2.48c-.15.24-.3.48-.46.72h-2.69v-8.21h3.14v7.49Zm-56.09-.33h2.27v.35h-2.27v-.35Zm11.01-19.92h-12.23v-.7h.1c1.44-1.71,3.6-2.8,6.01-2.8s4.57,1.09,6.01,2.8h.1v.7Zm-11.01,8.56h2.27v.35h-2.27v-.35Zm0,2.27h2.27v.35h-2.27v-.35Zm0,2.27h2.27v.35h-2.27v-.35Zm2.27,4.89h-2.27v-.35h2.27v.35Zm-2.27-2.62h2.27v.35h-2.27v-.35Zm6.64,4.89h-3.49v-9.43h3.49v9.43Zm.35-14.5v1.57h-.39c-.38.53-1,.87-1.7.87s-1.32-.34-1.7-.87h-.39v-1.57h-2.79v-1.4h9.78v1.4h-2.8Zm.52,2.8h2.27v.35h-2.27v-.35Zm0,2.27h2.27v.35h-2.27v-.35Zm0,2.27h2.27v.35h-2.27v-.35Zm0,2.27h2.27v.35h-2.27v-.35Zm2.27,4.89h-2.27v-.35h2.27v.35Zm-2.27-2.62h2.27v.35h-2.27v-.35Zm5.59-6.47v-.87h5.59v.87h-5.59Zm1.05.7h3.49v9.09h-3.49v-9.09Zm4.54,10.66h-5.59v-1.05h5.59v1.05Zm8.71-13.28c.13-.32.2-.68.2-1.05,0-.3-.05-.6-.14-.87h.84v1.92h-.9Zm-4.34-1.05c0-.96.78-1.75,1.75-1.75.48,0,.92.2,1.24.51.32.32.51.75.51,1.23,0,.97-.78,1.75-1.75,1.75s-1.75-.78-1.75-1.75m1.75,2.97h-2.8v-.87h.95c.49.44,1.14.7,1.85.7s1.36-.26,1.85-.7h.95v.87h-2.8Zm-1.75,9.79v-9.09h3.49v9.09h-3.49Zm-1.05.52h5.59v1.05h-5.59v-1.05Zm.2-12.23h-.9v-1.92h.84c-.09.28-.14.57-.14.87,0,.37.07.73.2,1.05m8.71,1.05h5.59v.87h-5.59v-.87Zm1.05,1.57h3.49v9.09h-3.49v-9.09Zm4.54,10.66h-5.59v-1.05h5.59v1.05Zm-1.28-15.2h1.28v1.92h-1.4c-.32.42-.83.7-1.4.7s-1.08-.28-1.4-.7h-1.4v-1.92h1.28c.07-.13.16-.24.27-.35h-5.15c-.45-.93-1.41-1.57-2.51-1.57s-2.06.64-2.51,1.57h-5.15c.1.1.19.22.26.35h1.28v1.92h-1.4c-.32.42-.83.7-1.4.7s-1.08-.28-1.4-.7h-1.4v-1.92h1.28c.07-.13.16-.24.27-.35h-3.47v-1.57h27.26v1.57h-3.47c.1.1.19.22.26.35m4.6,1.22h2.27v.35h-2.27v-.35Zm0,2.27h2.27v.35h-2.27v-.35Zm0,2.27h2.27v.35h-2.27v-.35Zm0,2.27h2.27v.35h-2.27v-.35Zm2.27,4.89h-2.27v-.35h2.27v.35Zm-2.27-2.62h2.27v.35h-2.27v-.35Zm6.64,2.62h-3.49v-9.43h3.49v9.43Zm.35-14.5v1.57h-.39c-.38.53-1,.87-1.7.87s-1.32-.34-1.7-.87h-.39v-1.57h-2.8v-1.4h9.79v1.4h-2.8Zm.52,2.8h2.27v.35h-2.27v-.35Zm0,2.27h2.27v.35h-2.27v-.35Zm0,2.27h2.27v.35h-2.27v-.35Zm0,2.27h2.27v.35h-2.27v-.35Zm2.27,4.89h-2.27v-.35h2.27v.35Zm-2.27-2.62h2.27v.35h-2.27v-.35Zm-8.74-17.65v-.7h.1c1.44-1.71,3.6-2.8,6.01-2.8s4.57,1.09,6.01,2.8h.1v.7h-12.23Zm1.22,1.4v-.87h9.79v2.1h-11.18v1.22h-27.26v-1.22h-11.18v-2.1h9.78v.87h30.05Zm-3.32-1.4h-23.41v-.7h23.41v.7Zm1.92-3.67v.87h-1.92v.87h-23.41v-.87h-1.92v-.87h27.26Zm-6.55-6.64c0-1.06.86-1.92,1.92-1.92s1.92.86,1.92,1.92-.86,1.92-1.92,1.92-1.92-.86-1.92-1.92m-9,0c0-1.06.86-1.92,1.92-1.92s1.92.86,1.92,1.92-.86,1.92-1.92,1.92-1.92-.86-1.92-1.92m-9,0c0-1.06.86-1.92,1.92-1.92s1.92.86,1.92,1.92-.86,1.92-1.92,1.92-1.92-.86-1.92-1.92m10.92,4.37h13.63v1.03h-27.26v-1.03h13.63Zm28.83,29.7c-.54.67-1.49,1.92-2.88,3.24-.42.44-.72.7-.99.96h-10.64v-1.05h11.54v-2.8h-12.23v.52h-27.26v-.52h-12.23v2.8h11.53v1.05h-10.64c-.29-.28-.61-.55-1.08-1.05h0c-1.34-1.28-2.25-2.49-2.79-3.15h.01c-.05-.06-.09-.12-.14-.17h3.1v-1.05h11.53v.7h28.65v-.7h11.53v1.05h3.1c-.05.06-.09.12-.14.17h.01Zm-9.13,8.22h-5.38v-1.05h6.96s-1.02.72-1.58,1.05m-6.59-1.05h-.87c0-1.59-1.12-2.92-2.61-3.24l.23-1.05.07-.32c2.12.47,3.7,2.35,3.7,4.61h-.52Zm.52,1.4h-1.05v-.7h1.05v.7Zm0,1.57v.52h-1.05v-.7h1.05v.17Zm-1.92,1.94c-1.8.61-3.67,1.08-5.59,1.4v-6.31c0-1.55,1.25-2.8,2.8-2.8s2.8,1.25,2.8,2.8v4.91Zm-3.63-9.97h1.68l-.42,1.89-.42.21-.42-.21-.42-1.89Zm-2.66,5.07h-2.1c0-1.59-1.12-2.92-2.61-3.24l.23-1.05.07-.32c1.61.35,2.91,1.53,3.44,3.05.53-1.53,1.83-2.7,3.44-3.05l.07.32.23,1.05c-1.49.33-2.61,1.65-2.61,3.24h-.17Zm-.17,1.4h-1.57v-.7h1.57v.7Zm0,2.1h-1.57v-.7h1.57v.7Zm0,2.27h-1.57v-.7h1.57v.7Zm-2.45.94c-.92.07-1.85.1-2.8.1s-1.87-.03-2.8-.1v-6.71c0-1.55,1.25-2.8,2.8-2.8s2.8,1.25,2.8,2.8v6.71Zm-3.63-11.78h1.68l-.42,1.89-.42.21-.42-.21-.42-1.89Zm-2.65,5.07h-2.1c0-1.59-1.12-2.92-2.61-3.24l.23-1.05.07-.32c1.61.35,2.91,1.53,3.44,3.05.53-1.53,1.83-2.7,3.44-3.05l.07.32h0s.23,1.05.23,1.05h0c-1.49.33-2.61,1.65-2.61,3.24h-.17Zm-.18,1.4h-1.57v-.7h1.57v.7Zm0,2.1h-1.57v-.7h1.57v.7Zm-.87.61s.04-.09.09-.09.09.04.09.09-.04.09-.09.09-.09-.04-.09-.09m-.53.35s.04-.09.09-.09.09.04.09.09-.04.09-.09.09-.09-.04-.09-.09m1.4,1.31h-1.57v-.7h1.57v.7Zm-1.75-1.31s-.09-.04-.09-.09.04-.09.09-.09.09.04.09.09-.04.09-.09.09m-.7,1.85c-1.92-.32-3.79-.79-5.59-1.4v-4.91c0-1.55,1.25-2.8,2.8-2.8s2.8,1.25,2.8,2.8v6.31Zm-3.63-11.37h1.68l-.42,1.89-.42.21-.42-.21-.42-1.89Zm-2.66,5.07h-1.22c0-2.26,1.59-4.14,3.7-4.61l.15.68.08.34.08.34c-1.49.33-2.61,1.65-2.61,3.24h-.17Zm-.18,1.4h-1.05v-.7h1.05v.7Zm0,1.57v.52h-1.05v-.7h1.05v.17Zm-1.75-1.92h-5.38c-.56-.34-1.58-1.05-1.58-1.05h6.96v1.05Zm-16.95-11.74v-7.49h3.15v8.21h-2.69c-.15-.24-.31-.48-.46-.72m-1.4-2.48c-.82-1.61-1.53-3.28-2.11-5.01h2.11v5.01Zm-2.79-7.28h9.08v-1.22h-9.38l-.08-.35c-.14-.63-.26-1.27-.37-1.92h10.35v13.98h-.53v-9.96h-8.94c-.05-.18-.1-.35-.14-.52m-1.01-5.42h10.62v.7h-10.53c-.01-.12-.07-.58-.08-.7m74.78-4.15l-.02-47.57h-76.57v48.31c0,.34-.02.59-.04.81l.08.06c.7,20.53,17.54,36.96,38.24,36.96s37.99-16.86,38.27-37.76l.06-.02c0-.27-.02-.54-.02-.79"/>
          <path class="cls-1" d="m441.46,33.57h-1.23v-1.23h1.23v1.23Zm-1.57,0h-1.23v-1.23h1.23v1.23Zm-1.57,0h-1.23v-1.23h1.23v1.23Zm-1.57,0h-1.23v-1.23h1.23v1.23Zm-1.57,0h-1.23v-1.23h1.23v1.23Zm-1.57,0h-1.23v-1.23h1.23v1.23Zm-1.57,0h-1.23v-1.23h1.23v1.23Zm-1.57,0h-1.23v-1.23h1.23v1.23Zm-1.57,0h-1.23v-1.23h1.23v1.23Zm-1.57,0h-1.23v-1.23h1.23v1.23Zm-1.57,0h-1.23v-1.23h1.23v1.23Zm-1.57,0h-1.23v-1.23h1.23v1.23Zm-1.57,0h-1.23v-1.23h1.23v1.23Zm-1.57,0h-1.23v-1.23h1.23v1.23Zm-1.57,0h-1.23v-1.23h1.23v1.23Zm-1.57,0h-1.23v-1.23h1.23v1.23Zm24.8.7l-.87-.87v-2.8h-.35v1.4h-24.81v-1.4h-.35v2.8l-.87.87v1.05h27.26v-1.05Z"/>
          <path class="cls-1" d="m437.92,59.21c-.7,0-1.27.57-1.27,1.27s.57,1.27,1.27,1.27,1.27-.57,1.27-1.27-.57-1.27-1.27-1.27"/>
          <path class="cls-1" d="m420.14,61.75c.7,0,1.27-.57,1.27-1.27s-.57-1.27-1.27-1.27-1.27.57-1.27,1.27.57,1.27,1.27,1.27"/>
          <path class="cls-1" d="m428.28,59.71l.57.86s.02.04.04.06c.08.07.19.08.28.03.01,0,.03-.02.04-.03,0,0,0,0,.01-.01h0s.01-.02.02-.03l1.05-1.34-1.24.97-.76-.5Z"/>
        </g>
      </g>
      <path class="cls-1" d="m352.41,93.08c-.73,0-1.32-.59-1.32-1.32V5.62c0-.73.59-1.32,1.32-1.32s1.32.59,1.32,1.32v86.14c0,.73-.59,1.32-1.32,1.32Z"/>
    </g>
  </g>
</svg>