<?xml version="1.0" encoding="UTF-8"?>
<svg id="Capa_2" data-name="Capa 2" xmlns="http://www.w3.org/2000/svg" viewBox="0 0 648 97.38">
  <defs>
    <style>
      .cls-1 {
        fill: #e25622;
      }

      .cls-1, .cls-2 {
        stroke-width: 0px;
      }

      .cls-2 {
        fill: #004a82;
      }
    </style>
  </defs>
  <g id="Capa_1-2" data-name="Capa 1">
    <g>
      <g>
        <g>
          <polygon class="cls-1" points="186.87 37.77 191.57 37.77 191.57 36 186.87 36 186.87 27.51 184.88 27.51 184.88 37.77 186.34 37.77 186.87 37.77"/>
          <path class="cls-1" d="m194.74,35.85h4.22l.72,1.91h2.12l-4.11-10.26h-1.62l-4.13,10.26h2.07l.73-1.91Zm2.13-5.55l1.47,3.89h-2.96l1.49-3.89Z"/>
          <path class="cls-1" d="m209.07,37.36c.51-.27.9-.62,1.17-1.06.27-.44.4-.94.4-1.48,0-.69-.21-1.28-.62-1.77-.27-.32-.61-.57-1.02-.77.29-.17.53-.36.73-.59.35-.42.53-.93.53-1.51,0-.48-.12-.92-.35-1.32-.23-.4-.58-.73-1.04-.98-.46-.25-1.03-.37-1.71-.37h-4.14v10.26h4.2c.73,0,1.35-.13,1.86-.4Zm-2.15-8.24c.41,0,.74.1.99.31.25.2.37.52.37.93s-.12.71-.37.92c-.25.2-.58.31-.99.31h-1.94v-2.47h1.94Zm-1.94,7.02v-2.95h2.16c.32,0,.6.07.82.2.23.13.4.31.52.53s.18.47.18.74c0,.4-.13.74-.4,1.04-.27.29-.64.44-1.12.44h-2.16Z"/>
          <path class="cls-1" d="m213.23,36.39c.48.48,1.05.86,1.69,1.13.65.27,1.34.41,2.09.41s1.44-.14,2.08-.41c.64-.27,1.2-.65,1.68-1.13.48-.48.86-1.04,1.13-1.69.27-.64.41-1.33.41-2.07s-.14-1.43-.41-2.07c-.27-.64-.65-1.2-1.13-1.69-.48-.48-1.04-.86-1.69-1.12-.64-.27-1.34-.4-2.1-.4s-1.44.13-2.09.4c-.64.27-1.2.64-1.69,1.12-.48.48-.86,1.04-1.12,1.68-.27.64-.4,1.33-.4,2.06s.14,1.43.41,2.08c.27.65.65,1.21,1.13,1.69Zm.9-5.57c.28-.52.66-.92,1.15-1.2.49-.29,1.06-.43,1.7-.43.5,0,.94.08,1.34.25.4.17.74.4,1.04.71.29.31.52.67.67,1.09.16.42.23.88.23,1.39,0,.69-.14,1.29-.42,1.81-.28.52-.66.92-1.15,1.21-.49.29-1.06.44-1.72.44-.48,0-.92-.08-1.32-.25-.4-.17-.75-.4-1.04-.7s-.51-.67-.67-1.09-.24-.9-.24-1.42c0-.68.14-1.28.42-1.8Z"/>
          <path class="cls-1" d="m225.87,33.48h.34l3.27,4.29h2.41l-3.43-4.33c.43-.05.82-.16,1.17-.33.51-.25.9-.59,1.17-1.04.28-.44.42-.97.42-1.57s-.14-1.1-.42-1.55c-.28-.45-.67-.8-1.17-1.06-.5-.26-1.08-.39-1.74-.39h-4.01v10.26h1.98v-4.29Zm1.85-4.35c.49,0,.86.13,1.13.4.27.27.4.6.4,1,0,.44-.13.78-.4,1.03-.27.25-.64.37-1.13.37h-1.85v-2.8h1.85Z"/>
          <path class="cls-1" d="m234.75,35.85h4.22l.72,1.91h2.12l-4.11-10.26h-1.62l-4.13,10.26h2.07l.73-1.91Zm2.13-5.55l1.47,3.89h-2.96l1.49-3.89Z"/>
          <polygon class="cls-1" points="249.61 29.27 249.61 27.51 241.08 27.51 241.08 29.27 244.35 29.27 244.35 37.77 246.35 37.77 246.35 29.27 249.61 29.27"/>
          <path class="cls-1" d="m251.4,36.39c.48.48,1.05.86,1.69,1.13.65.27,1.34.41,2.09.41s1.44-.14,2.08-.41c.64-.27,1.2-.65,1.68-1.13s.86-1.04,1.13-1.69c.27-.64.41-1.33.41-2.07s-.14-1.43-.41-2.07c-.27-.64-.65-1.2-1.13-1.69-.48-.48-1.04-.86-1.69-1.12s-1.34-.4-2.1-.4-1.44.13-2.09.4c-.64.27-1.2.64-1.69,1.12-.48.48-.86,1.04-1.12,1.68-.27.64-.4,1.33-.4,2.06s.14,1.43.41,2.08c.27.65.65,1.21,1.13,1.69Zm.9-5.57c.28-.52.66-.92,1.15-1.2s1.06-.43,1.7-.43c.5,0,.94.08,1.34.25.4.17.74.4,1.04.71.29.31.52.67.67,1.09.16.42.23.88.23,1.39,0,.69-.14,1.29-.42,1.81-.28.52-.66.92-1.15,1.21-.49.29-1.06.44-1.72.44-.48,0-.92-.08-1.32-.25-.4-.17-.75-.4-1.04-.7s-.51-.67-.67-1.09-.24-.9-.24-1.42c0-.68.14-1.28.42-1.8Z"/>
          <path class="cls-1" d="m264.05,33.48h.34l3.27,4.29h2.41l-3.43-4.33c.43-.05.82-.16,1.17-.33.51-.25.9-.59,1.17-1.04.28-.44.42-.97.42-1.57s-.14-1.1-.42-1.55c-.28-.45-.67-.8-1.17-1.06-.5-.26-1.08-.39-1.74-.39h-4.01v10.26h1.98v-4.29Zm1.85-4.35c.49,0,.86.13,1.13.4.27.27.4.6.4,1,0,.44-.13.78-.4,1.03-.27.25-.64.37-1.13.37h-1.85v-2.8h1.85Z"/>
          <rect class="cls-1" x="271.2" y="27.51" width="1.98" height="10.26"/>
          <path class="cls-1" d="m276.3,36.39c.48.48,1.05.86,1.69,1.13.65.27,1.34.41,2.09.41s1.44-.14,2.08-.41c.64-.27,1.2-.65,1.68-1.13s.86-1.04,1.13-1.69c.27-.64.41-1.33.41-2.07s-.14-1.43-.41-2.07c-.27-.64-.65-1.2-1.13-1.69s-1.04-.86-1.69-1.12-1.34-.4-2.1-.4-1.44.13-2.09.4c-.64.27-1.2.64-1.69,1.12s-.86,1.04-1.12,1.68c-.27.64-.4,1.33-.4,2.06s.14,1.43.41,2.08c.27.65.65,1.21,1.13,1.69Zm.9-5.57c.28-.52.66-.92,1.15-1.2.49-.29,1.06-.43,1.7-.43.5,0,.94.08,1.34.25.4.17.74.4,1.04.71.29.31.52.67.67,1.09.16.42.23.88.23,1.39,0,.69-.14,1.29-.42,1.81-.28.52-.66.92-1.15,1.21-.49.29-1.06.44-1.72.44-.48,0-.92-.08-1.32-.25-.4-.17-.75-.4-1.04-.7s-.51-.67-.67-1.09-.24-.9-.24-1.42c0-.68.14-1.28.42-1.8Z"/>
          <path class="cls-1" d="m192.68,45.01c-.48-.46-1.05-.82-1.69-1.07-.65-.25-1.35-.38-2.11-.38h-4v10.26h4.03c.75,0,1.45-.13,2.09-.38.65-.25,1.21-.61,1.69-1.07.48-.46.85-1.01,1.12-1.63.27-.63.4-1.31.4-2.05s-.13-1.42-.4-2.04c-.27-.62-.64-1.17-1.12-1.63Zm-.93,5.45c-.28.51-.66.9-1.16,1.17-.5.28-1.07.42-1.74.42h-1.98v-6.73h1.98c.65,0,1.23.14,1.72.42.5.28.89.67,1.17,1.17.28.5.42,1.09.42,1.76s-.14,1.29-.42,1.79Z"/>
          <polygon class="cls-1" points="202.85 45.31 202.85 43.56 197.77 43.56 197.24 43.56 195.78 43.56 195.78 53.82 197.24 53.82 197.77 53.82 202.92 53.82 202.92 52.07 197.77 52.07 197.77 49.42 202.41 49.42 202.41 47.73 197.77 47.73 197.77 45.31 202.85 45.31"/>
          <path class="cls-1" d="m214.9,46.78c0-.66-.15-1.23-.45-1.71-.3-.48-.71-.85-1.23-1.12-.52-.26-1.11-.39-1.76-.39h-4.04v10.26h1.98v-3.81h2.06c.65,0,1.24-.13,1.76-.39.52-.26.93-.64,1.23-1.12.3-.48.45-1.05.45-1.71Zm-2.2.87c-.15.24-.35.42-.6.55-.25.13-.54.19-.85.19h-1.85v-3.21h1.85c.31,0,.59.06.85.19.25.13.45.31.6.55.15.24.22.53.22.86s-.07.63-.22.87Z"/>
          <path class="cls-1" d="m218.91,43.56l-4.13,10.26h2.07l.73-1.91h4.22l.72,1.91h2.12l-4.11-10.26h-1.62Zm-.69,6.68l1.49-3.89,1.47,3.89h-2.96Z"/>
          <path class="cls-1" d="m232.78,48.12c.28-.44.42-.97.42-1.57s-.14-1.1-.42-1.55c-.28-.45-.67-.8-1.17-1.06-.5-.26-1.08-.39-1.74-.39h-4.01v10.26h1.98v-4.29h.34l3.27,4.29h2.41l-3.43-4.33c.43-.05.82-.16,1.17-.33.51-.25.9-.59,1.17-1.04Zm-1.96-.51c-.27.25-.64.37-1.13.37h-1.85v-2.8h1.85c.49,0,.86.13,1.13.4s.4.6.4,1c0,.44-.13.78-.4,1.03Z"/>
          <polygon class="cls-1" points="239.11 53.82 239.11 45.32 242.38 45.32 242.38 43.56 233.84 43.56 233.84 45.32 237.11 45.32 237.11 53.82 239.11 53.82"/>
          <rect class="cls-1" x="243.75" y="43.56" width="1.98" height="10.26"/>
          <path class="cls-1" d="m250.26,46.19c.29-.31.64-.54,1.03-.7.39-.16.83-.24,1.31-.24.54,0,1.02.09,1.43.26.41.18.75.42,1.04.73l1.34-1.34c-.48-.47-1.03-.83-1.65-1.1s-1.34-.4-2.16-.4c-.76,0-1.46.14-2.09.41-.64.27-1.2.65-1.68,1.12-.48.48-.85,1.04-1.11,1.68-.26.64-.39,1.33-.39,2.07s.13,1.43.39,2.07c.26.64.63,1.2,1.11,1.69.48.48,1.04.86,1.69,1.12.64.27,1.34.4,2.09.4.84,0,1.57-.13,2.2-.39s1.19-.63,1.66-1.11l-1.34-1.34c-.28.32-.63.57-1.04.74-.41.17-.91.26-1.48.26-.48,0-.91-.08-1.31-.25-.39-.17-.74-.4-1.03-.71-.29-.31-.52-.67-.67-1.09-.16-.42-.23-.89-.23-1.4s.08-.97.23-1.39c.16-.42.38-.79.67-1.09Z"/>
          <rect class="cls-1" x="257.84" y="43.56" width="1.98" height="10.26"/>
          <path class="cls-1" d="m263.91,50.01h2.06c.65,0,1.24-.13,1.76-.39.52-.26.93-.64,1.23-1.12.3-.48.45-1.05.45-1.71s-.15-1.23-.45-1.71c-.3-.48-.71-.85-1.23-1.12-.52-.26-1.11-.39-1.76-.39h-4.04v10.26h1.98v-3.81Zm1.85-4.83c.31,0,.59.06.85.19.25.13.45.31.6.55.15.24.22.53.22.86s-.07.63-.22.87c-.15.24-.35.42-.6.55-.25.13-.54.19-.85.19h-1.85v-3.21h1.85Z"/>
          <path class="cls-1" d="m271.37,53.82l.73-1.91h4.22l.72,1.91h2.12l-4.11-10.26h-1.62l-4.13,10.26h2.07Zm2.86-7.46l1.47,3.89h-2.96l1.49-3.89Z"/>
          <path class="cls-1" d="m284.55,53.96c.84,0,1.57-.13,2.2-.39s1.19-.63,1.66-1.11l-1.34-1.34c-.28.32-.63.57-1.04.74-.41.17-.91.26-1.48.26-.48,0-.91-.08-1.31-.25-.39-.17-.74-.4-1.03-.71-.29-.31-.52-.67-.67-1.09-.16-.42-.23-.89-.23-1.4s.08-.97.23-1.39.38-.79.67-1.09c.29-.31.64-.54,1.03-.7.39-.16.83-.24,1.31-.24.54,0,1.02.09,1.43.26.41.18.75.42,1.04.73l1.34-1.34c-.48-.47-1.03-.83-1.65-1.1s-1.34-.4-2.16-.4c-.76,0-1.46.14-2.09.41-.64.27-1.2.65-1.68,1.12-.48.48-.85,1.04-1.11,1.68-.26.64-.39,1.33-.39,2.07s.13,1.43.39,2.07c.26.64.63,1.2,1.11,1.69.48.48,1.04.86,1.69,1.12.64.27,1.34.4,2.09.4Z"/>
          <rect class="cls-1" x="289.8" y="43.56" width="1.98" height="10.26"/>
          <polygon class="cls-1" points="300.34 40.96 299.11 39.47 297.01 41.75 297.74 42.65 300.34 40.96"/>
          <path class="cls-1" d="m302.44,44.92c-.48-.48-1.04-.86-1.69-1.12s-1.34-.4-2.1-.4-1.44.13-2.09.4c-.64.27-1.2.64-1.69,1.12-.48.48-.86,1.04-1.12,1.68-.27.64-.4,1.33-.4,2.06s.14,1.43.41,2.08c.27.65.65,1.21,1.13,1.69s1.05.86,1.69,1.13,1.34.41,2.09.41,1.44-.14,2.08-.41,1.2-.65,1.68-1.13.86-1.04,1.13-1.69c.27-.64.41-1.33.41-2.07s-.14-1.43-.41-2.07c-.27-.64-.65-1.2-1.13-1.69Zm-.92,5.55c-.28.52-.66.92-1.15,1.21-.49.29-1.06.44-1.72.44-.48,0-.92-.08-1.32-.25-.4-.17-.75-.4-1.04-.7s-.51-.67-.67-1.09c-.16-.43-.24-.9-.24-1.42,0-.68.14-1.28.42-1.8.28-.52.66-.92,1.15-1.2.49-.29,1.06-.43,1.7-.43.5,0,.94.08,1.34.25.4.17.74.4,1.04.71.29.31.52.67.67,1.09.16.42.23.88.23,1.39,0,.69-.14,1.29-.42,1.81Z"/>
          <polygon class="cls-1" points="312.08 43.56 312.08 50.21 306.95 43.56 305.56 43.56 305.56 53.82 307.54 53.82 307.54 47.2 312.65 53.82 314.08 53.82 314.08 43.56 312.08 43.56"/>
          <polygon class="cls-1" points="188.81 63.58 186.39 59.61 184.1 59.61 187.8 65.5 187.8 69.87 189.8 69.87 189.8 65.41 193.49 59.61 191.23 59.61 188.81 63.58"/>
          <polygon class="cls-1" points="196.27 61.38 199.53 61.38 199.53 69.87 201.53 69.87 201.53 61.38 204.8 61.38 204.8 59.61 196.27 59.61 196.27 61.38"/>
          <polygon class="cls-1" points="208.16 65.48 212.8 65.48 212.8 63.78 208.16 63.78 208.16 61.36 213.24 61.36 213.24 59.61 208.16 59.61 207.63 59.61 206.17 59.61 206.17 69.87 207.63 69.87 208.16 69.87 213.31 69.87 213.31 68.12 208.16 68.12 208.16 65.48"/>
          <path class="cls-1" d="m215.75,68.49c.48.48,1.04.86,1.69,1.12.64.27,1.34.4,2.09.4.84,0,1.57-.13,2.2-.39s1.19-.63,1.66-1.11l-1.34-1.34c-.28.32-.63.57-1.04.74-.41.17-.91.26-1.48.26-.48,0-.91-.08-1.31-.25-.39-.17-.74-.4-1.03-.71-.29-.31-.52-.67-.67-1.09-.16-.42-.23-.89-.23-1.4s.08-.97.23-1.39c.16-.42.38-.79.67-1.09.29-.31.63-.54,1.03-.7.39-.16.83-.24,1.31-.24.54,0,1.02.09,1.43.26.41.18.75.42,1.04.73l1.34-1.34c-.48-.47-1.03-.83-1.65-1.1-.62-.27-1.34-.4-2.16-.4-.76,0-1.46.14-2.09.41-.64.27-1.2.65-1.68,1.12-.48.48-.85,1.04-1.11,1.68-.26.64-.39,1.33-.39,2.07s.13,1.43.39,2.07c.26.64.63,1.2,1.11,1.69Z"/>
          <polygon class="cls-1" points="233.3 59.61 231.3 59.61 231.3 66.26 226.16 59.61 224.78 59.61 224.78 69.87 226.76 69.87 226.76 63.26 231.87 69.87 233.3 69.87 233.3 59.61"/>
          <path class="cls-1" d="m243.94,60.97c-.48-.48-1.04-.86-1.69-1.12-.64-.27-1.34-.4-2.1-.4s-1.44.13-2.09.4c-.64.27-1.2.64-1.69,1.12-.48.48-.86,1.04-1.12,1.68-.27.64-.4,1.33-.4,2.06s.14,1.43.41,2.08c.27.65.65,1.21,1.13,1.69.48.48,1.05.86,1.69,1.13s1.34.41,2.09.41,1.44-.14,2.08-.41c.64-.27,1.2-.65,1.68-1.13.48-.48.86-1.04,1.13-1.69.27-.64.41-1.33.41-2.07s-.14-1.43-.41-2.07c-.27-.64-.65-1.2-1.13-1.69Zm-.92,5.55c-.28.52-.66.92-1.15,1.21-.49.29-1.06.44-1.72.44-.48,0-.92-.08-1.32-.25-.4-.17-.75-.4-1.04-.7-.29-.3-.51-.67-.67-1.09s-.24-.9-.24-1.42c0-.68.14-1.28.42-1.8.28-.52.66-.92,1.15-1.2.49-.29,1.06-.43,1.7-.43.5,0,.94.08,1.34.25s.74.4,1.04.71c.29.31.52.67.67,1.09.16.42.23.88.23,1.39,0,.69-.14,1.29-.42,1.81Z"/>
          <polygon class="cls-1" points="249.04 59.61 247.06 59.61 247.06 69.87 248.52 69.87 249.04 69.87 253.74 69.87 253.74 68.1 249.04 68.1 249.04 59.61"/>
          <path class="cls-1" d="m263.06,60.97c-.48-.48-1.04-.86-1.69-1.12s-1.34-.4-2.1-.4-1.44.13-2.09.4c-.64.27-1.2.64-1.69,1.12-.48.48-.86,1.04-1.12,1.68-.27.64-.4,1.33-.4,2.06s.14,1.43.41,2.08c.27.65.65,1.21,1.13,1.69.48.48,1.05.86,1.69,1.13s1.34.41,2.09.41,1.44-.14,2.08-.41c.64-.27,1.2-.65,1.68-1.13.48-.48.86-1.04,1.13-1.69.27-.64.41-1.33.41-2.07s-.14-1.43-.41-2.07c-.27-.64-.65-1.2-1.13-1.69Zm-.92,5.55c-.28.52-.66.92-1.15,1.21-.49.29-1.06.44-1.72.44-.48,0-.92-.08-1.32-.25-.4-.17-.75-.4-1.04-.7s-.51-.67-.67-1.09-.24-.9-.24-1.42c0-.68.14-1.28.42-1.8.28-.52.66-.92,1.15-1.2.49-.29,1.06-.43,1.7-.43.5,0,.94.08,1.34.25.4.17.74.4,1.04.71.29.31.52.67.67,1.09.16.42.23.88.23,1.39,0,.69-.14,1.29-.42,1.81Z"/>
          <path class="cls-1" d="m270.92,65.91l3.1.03c-.06.3-.15.58-.28.82-.24.46-.59.81-1.05,1.05-.46.24-1.01.36-1.65.36s-1.17-.15-1.66-.44c-.48-.29-.86-.7-1.14-1.22-.28-.52-.42-1.12-.42-1.8s.14-1.28.42-1.79c.28-.51.67-.91,1.17-1.2.5-.29,1.08-.43,1.73-.43.57,0,1.1.11,1.58.34.48.22.88.54,1.2.96l1.34-1.34c-.47-.57-1.06-1.02-1.77-1.34-.71-.32-1.49-.47-2.33-.47-.76,0-1.46.13-2.12.4s-1.22.64-1.71,1.12c-.49.48-.87,1.04-1.14,1.68-.27.64-.41,1.33-.41,2.08s.13,1.43.4,2.06c.27.64.64,1.2,1.12,1.69.48.49,1.04.86,1.68,1.13.64.27,1.32.4,2.05.4.99,0,1.87-.21,2.63-.62.76-.41,1.36-1.03,1.8-1.85.44-.82.66-1.85.66-3.07v-.28h-5.22v1.72Z"/>
          <rect class="cls-1" x="277.66" y="59.61" width="1.98" height="10.26"/>
          <polygon class="cls-1" points="276.99 57.8 277.72 58.71 280.32 57.01 279.09 55.52 276.99 57.8"/>
          <path class="cls-1" d="m285.12,59.61l-4.13,10.26h2.07l.73-1.91h4.22l.72,1.91h2.12l-4.11-10.26h-1.62Zm-.69,6.68l1.49-3.89,1.47,3.89h-2.96Z"/>
          <path class="cls-1" d="m297.64,64.7c-.29-.23-.6-.42-.95-.57-.35-.15-.69-.28-1.04-.39-.35-.12-.66-.24-.95-.36-.29-.13-.52-.28-.69-.45s-.26-.4-.26-.69c0-.33.13-.58.39-.76s.62-.26,1.08-.26c.4,0,.76.08,1.07.23.32.16.63.4.93.73l1.31-1.31c-.36-.42-.82-.76-1.39-1.02-.56-.26-1.2-.39-1.9-.39-.66,0-1.25.12-1.78.35-.53.23-.94.57-1.24,1.01-.3.44-.45.97-.45,1.59,0,.53.09.96.26,1.31.18.35.41.63.69.85.29.22.6.4.95.55.35.15.69.27,1.04.39.35.11.66.24.95.37s.52.3.69.5c.18.19.26.45.26.76,0,.36-.15.64-.46.85-.31.2-.72.31-1.23.31-.57,0-1.06-.11-1.46-.33-.4-.22-.75-.53-1.05-.93l-1.31,1.31c.48.56,1.01.99,1.6,1.27.59.28,1.3.42,2.12.42,1.17,0,2.09-.27,2.76-.82.67-.54,1.01-1.29,1.01-2.25,0-.53-.09-.99-.26-1.35-.18-.36-.41-.66-.69-.9Z"/>
        </g>
        <g>
          <path class="cls-1" d="m139.2,52.1c0,1.3.72,1.91,2.26,1.91h4.91c.61,0,.7-.19.7-.63v-3.12h-5.54c-2.05,0-2.33.93-2.33,1.84Z"/>
          <path class="cls-1" d="m124.42,43.45h-.65c-2.78,0-3.81,1.13-3.81,4.16v6.4h4.46c3.03,0,4.26-1.52,4.26-5.26s-1.23-5.3-4.26-5.3Z"/>
          <path class="cls-1" d="m40.27,52.1c0,1.3.72,1.91,2.26,1.91h4.91c.61,0,.7-.19.7-.63v-3.12h-5.54c-2.05,0-2.33.93-2.33,1.84Z"/>
          <path class="cls-1" d="m147.06,15.07H21.01C9.41,15.07,0,24.48,0,36.08v57.08c0,3.74,4.53,5.62,7.17,2.97l13.84-13.84h126.05c11.6,0,21.01-9.41,21.01-21.01V4.21c0-3.74-4.53-5.62-7.17-2.97l-13.84,13.84ZM25.91,58.17h-4.84v7.32h-4.26v-18.06c0-5.38,2.36-8.11,7-8.11h2.1c5.27,0,8.18,3.35,8.18,9.42s-2.9,9.42-8.18,9.42Zm26.42-3.96c0,2.57-.65,3.96-4.06,3.96h-5.77c-4.26,0-6.41-1.97-6.41-5.86s2.11-5.55,6.45-5.55h5.61v-1.08c0-1.01-.43-2.22-2.5-2.22h-8.45v-4.12h8.49c4.29,0,6.66,2.24,6.66,6.31v8.57Zm14.48-10.76h-4.86c-1.44,0-2.05.61-2.05,2.05v12.67h-4.26v-13.22c0-3.94,1.57-5.62,5.24-5.62h5.93v4.12Zm13-.07h-3.36v8.34c0,1.82.54,2.43,2.15,2.43h1.14v3.95h-1.9c-4.09,0-5.69-1.85-5.69-6.59v-8.13h-2.49v-4.12h2.49v-4.32h4.29v4.32h3.36v4.12Zm7.39,14.78h-4.26v-18.84h4.26v18.84Zm.09-20.94h-4.45v-4.45h4.45v4.45Zm17.8,6.22h-6.75c-3.03,0-4.26,1.53-4.26,5.3s1.23,5.26,4.26,5.26h6.75v4.16h-7.1c-5.29,0-8.21-3.35-8.21-9.42s2.92-9.42,8.21-9.42h7.1v4.12Zm7.36,14.72h-4.26v-18.84h4.26v18.84Zm.09-20.94h-4.45v-4.45h4.45v4.45Zm12.27,20.94h-4.84v7.32h-4.26v-18.06c0-5.38,2.36-8.11,7-8.11h2.1c5.27,0,8.18,3.35,8.18,9.42s-2.9,9.42-8.18,9.42Zm26.46-3.96c0,2.57-.65,3.96-4.06,3.96h-5.77c-4.26,0-6.41-1.97-6.41-5.86s2.11-5.55,6.45-5.55h5.61v-1.08c0-1.01-.43-2.22-2.5-2.22h-8.45v-4.12h8.49c4.29,0,6.66,2.24,6.66,6.31v8.57Z"/>
          <path class="cls-1" d="m25.53,43.45h-.65c-2.78,0-3.81,1.13-3.81,4.16v6.4h4.46c3.03,0,4.26-1.52,4.26-5.26s-1.23-5.3-4.26-5.3Z"/>
        </g>
      </g>
      <path class="cls-2" d="m352.41,93.08c-.73,0-1.32-.59-1.32-1.32V5.62c0-.73.59-1.32,1.32-1.32s1.32.59,1.32,1.32v86.14c0,.73-.59,1.32-1.32,1.32Z"/>
      <g>
        <path class="cls-2" d="m497.46,19.7v8.61c0,1.23.2,2.13.6,2.69.6.82,1.44,1.23,2.53,1.23s1.94-.41,2.54-1.23c.4-.55.6-1.45.6-2.69v-8.61h2.16v9.2c0,1.51-.47,2.75-1.41,3.72-1.06,1.09-2.35,1.63-3.89,1.63s-2.83-.54-3.88-1.63c-.94-.97-1.41-2.22-1.41-3.72v-9.2h2.16Z"/>
        <path class="cls-2" d="m509.6,33.99v-15.27l10.43,10.91v-9.94h2.16v15.17l-10.43-10.88v10.01h-2.16Z"/>
        <path class="cls-2" d="m528.05,19.7v14.3h-2.16v-14.3h2.16Z"/>
        <path class="cls-2" d="m532.49,19.7l3.95,9.91,4.01-9.91h2.36l-6.42,15.37-6.27-15.37h2.36Z"/>
        <path class="cls-2" d="m552.77,21.73h-5.73v3.44h5.56v2.03h-5.56v4.78h5.73v2.03h-7.89v-14.3h7.89v2.03Z"/>
        <path class="cls-2" d="m560.73,27.9l4.43,6.09h-2.64l-4.08-5.85h-.39v5.85h-2.16v-14.3h2.53c1.89,0,3.25.36,4.09,1.07.93.79,1.39,1.83,1.39,3.13,0,1.01-.29,1.88-.87,2.61-.58.73-1.35,1.19-2.3,1.4Zm-2.68-1.64h.68c2.04,0,3.07-.78,3.07-2.34,0-1.46-.99-2.19-2.98-2.19h-.77v4.54Z"/>
        <path class="cls-2" d="m575.67,21.82l-1.75,1.04c-.33-.57-.64-.94-.94-1.11-.31-.2-.71-.3-1.19-.3-.6,0-1.1.17-1.49.51-.4.33-.59.75-.59,1.26,0,.7.52,1.26,1.56,1.69l1.43.58c1.16.47,2.01,1.04,2.55,1.72.54.68.81,1.51.81,2.49,0,1.32-.44,2.4-1.31,3.26-.88.86-1.98,1.3-3.29,1.3-1.24,0-2.27-.37-3.07-1.11-.8-.74-1.29-1.77-1.49-3.1l2.18-.48c.1.84.27,1.42.52,1.74.44.62,1.09.93,1.94.93.67,0,1.23-.22,1.68-.67.44-.45.67-1.02.67-1.71,0-.28-.04-.53-.12-.76-.08-.23-.2-.44-.36-.64-.16-.19-.37-.38-.63-.55s-.57-.33-.93-.49l-1.38-.57c-1.96-.83-2.94-2.03-2.94-3.63,0-1.07.41-1.97,1.23-2.69.82-.73,1.84-1.09,3.07-1.09,1.65,0,2.94.8,3.86,2.4Z"/>
        <path class="cls-2" d="m581.08,19.7v14.3h-2.16v-14.3h2.16Z"/>
        <path class="cls-2" d="m584.8,33.99v-14.3h3c1.44,0,2.57.14,3.41.43.89.28,1.71.75,2.44,1.42,1.48,1.35,2.21,3.11,2.21,5.31s-.77,3.98-2.31,5.33c-.77.68-1.58,1.15-2.43,1.42-.79.27-1.91.4-3.36.4h-2.96Zm2.16-2.03h.97c.97,0,1.77-.1,2.42-.31.64-.22,1.22-.56,1.74-1.03,1.06-.97,1.59-2.23,1.59-3.79s-.52-2.84-1.57-3.82c-.94-.87-2.34-1.31-4.18-1.31h-.97v10.24Z"/>
        <path class="cls-2" d="m606.55,30.52h-6.12l-1.59,3.47h-2.32l7.07-15.19,6.82,15.19h-2.36l-1.5-3.47Zm-.88-2.03l-2.12-4.86-2.22,4.86h4.34Z"/>
        <path class="cls-2" d="m612.48,33.99v-14.3h3c1.44,0,2.57.14,3.41.43.89.28,1.71.75,2.44,1.42,1.48,1.35,2.21,3.11,2.21,5.31s-.77,3.98-2.31,5.33c-.77.68-1.58,1.15-2.43,1.42-.79.27-1.91.4-3.36.4h-2.96Zm2.16-2.03h.97c.97,0,1.77-.1,2.42-.31.64-.22,1.22-.56,1.74-1.03,1.06-.97,1.59-2.23,1.59-3.79s-.52-2.84-1.57-3.82c-.94-.87-2.34-1.31-4.18-1.31h-.97v10.24Z"/>
        <path class="cls-2" d="m495.31,55.49v-14.3h3c1.44,0,2.57.14,3.41.43.89.28,1.71.75,2.44,1.42,1.48,1.35,2.21,3.11,2.21,5.31s-.77,3.98-2.31,5.34c-.77.68-1.58,1.15-2.43,1.42-.79.27-1.91.4-3.36.4h-2.96Zm2.16-2.03h.97c.97,0,1.77-.1,2.42-.31.64-.22,1.22-.56,1.74-1.03,1.06-.97,1.59-2.23,1.59-3.79s-.52-2.84-1.57-3.81c-.94-.87-2.34-1.31-4.18-1.31h-.97v10.24Z"/>
        <path class="cls-2" d="m516.96,43.22h-5.73v3.43h5.56v2.03h-5.56v4.78h5.73v2.03h-7.89v-14.3h7.89v2.03Z"/>
        <path class="cls-2" d="m526.13,41.19v12.27h4.2v2.03h-6.36v-14.3h2.16Z"/>
        <path class="cls-2" d="m541.58,52.01h-6.12l-1.59,3.47h-2.32l7.07-15.2,6.82,15.2h-2.36l-1.5-3.47Zm-.88-2.03l-2.12-4.86-2.22,4.86h4.34Z"/>
        <path class="cls-2" d="m555.35,49.39l4.43,6.09h-2.64l-4.08-5.85h-.39v5.85h-2.16v-14.3h2.53c1.89,0,3.25.35,4.09,1.06.93.79,1.39,1.83,1.39,3.13,0,1.01-.29,1.88-.87,2.61-.58.73-1.35,1.19-2.3,1.4Zm-2.68-1.64h.68c2.04,0,3.07-.78,3.07-2.34,0-1.46-.99-2.19-2.98-2.19h-.77v4.54Z"/>
        <path class="cls-2" d="m569.82,43.22h-5.73v3.43h5.56v2.03h-5.56v4.78h5.73v2.03h-7.89v-14.3h7.89v2.03Z"/>
        <path class="cls-2" d="m574.81,49.68v5.81h-2.16v-14.3h2.44c1.2,0,2.1.08,2.71.25.62.17,1.16.48,1.63.95.82.8,1.23,1.81,1.23,3.04,0,1.31-.44,2.35-1.32,3.11-.88.77-2.06,1.15-3.55,1.15h-1Zm0-2h.81c1.98,0,2.97-.76,2.97-2.29s-1.02-2.21-3.06-2.21h-.71v4.5Z"/>
        <path class="cls-2" d="m585.05,41.19v8.6c0,1.23.2,2.13.6,2.69.6.82,1.44,1.23,2.53,1.23s1.94-.41,2.54-1.23c.4-.55.6-1.45.6-2.69v-8.6h2.16v9.2c0,1.51-.47,2.75-1.41,3.72-1.06,1.09-2.35,1.63-3.89,1.63s-2.83-.54-3.88-1.63c-.94-.97-1.41-2.22-1.41-3.72v-9.2h2.16Zm6.41-3.84l-3.78,2.55-1.03-.86,2.97-2.98,1.83,1.29Z"/>
        <path class="cls-2" d="m596.9,55.49v-14.3h2.15c.96,0,1.72.07,2.29.22.57.15,1.06.4,1.45.75.4.36.72.82.95,1.36.24.55.36,1.1.36,1.67,0,1.02-.39,1.89-1.18,2.6.76.26,1.36.71,1.8,1.36.44.64.67,1.39.67,2.24,0,1.12-.39,2.06-1.19,2.83-.48.47-1.01.8-1.6.99-.65.18-1.46.27-2.44.27h-3.27Zm2.16-8.16h.68c.8,0,1.39-.18,1.76-.53.37-.36.56-.88.56-1.57s-.19-1.18-.57-1.53c-.38-.35-.94-.52-1.67-.52h-.76v4.16Zm0,6.13h1.33c.97,0,1.69-.19,2.15-.57.48-.41.72-.94.72-1.57s-.23-1.14-.69-1.56c-.45-.41-1.26-.62-2.42-.62h-1.09v4.33Z"/>
        <path class="cls-2" d="m610.27,41.19v12.27h4.2v2.03h-6.36v-14.3h2.16Z"/>
        <path class="cls-2" d="m618.68,41.19v14.3h-2.16v-14.3h2.16Z"/>
        <path class="cls-2" d="m632.68,41.95v2.55c-1.25-1.04-2.54-1.56-3.87-1.56-1.47,0-2.71.53-3.71,1.58-1.01,1.05-1.52,2.33-1.52,3.85s.51,2.77,1.52,3.8c1.01,1.03,2.25,1.55,3.72,1.55.76,0,1.4-.12,1.94-.37.3-.12.6-.29.92-.5.32-.21.65-.46,1.01-.76v2.61c-1.23.7-2.53,1.05-3.89,1.05-2.04,0-3.79-.71-5.23-2.14-1.44-1.44-2.16-3.17-2.16-5.2,0-1.82.6-3.44,1.8-4.87,1.48-1.75,3.4-2.62,5.75-2.62,1.28,0,2.52.35,3.72,1.04Z"/>
        <path class="cls-2" d="m644.14,52.01h-6.12l-1.59,3.47h-2.32l7.07-15.2,6.82,15.2h-2.36l-1.5-3.47Zm-.88-2.03l-2.12-4.86-2.22,4.86h4.34Z"/>
        <path class="cls-2" d="m497.46,62.68v8.6c0,1.23.2,2.13.6,2.69.6.82,1.44,1.23,2.53,1.23s1.94-.41,2.54-1.23c.4-.55.6-1.45.6-2.69v-8.6h2.16v9.2c0,1.51-.47,2.75-1.41,3.72-1.06,1.09-2.35,1.63-3.89,1.63s-2.83-.54-3.88-1.63c-.94-.98-1.41-2.22-1.41-3.72v-9.2h2.16Z"/>
        <path class="cls-2" d="m514.73,70.88l4.43,6.09h-2.64l-4.08-5.85h-.39v5.85h-2.16v-14.3h2.53c1.89,0,3.25.35,4.09,1.06.93.79,1.39,1.83,1.39,3.13,0,1.01-.29,1.88-.87,2.61-.58.73-1.35,1.19-2.3,1.4Zm-2.69-1.64h.69c2.04,0,3.06-.78,3.06-2.34,0-1.46-.99-2.19-2.98-2.19h-.77v4.54Z"/>
        <path class="cls-2" d="m523.81,62.68v8.6c0,1.23.2,2.13.6,2.69.6.82,1.44,1.23,2.53,1.23s1.94-.41,2.54-1.23c.4-.55.6-1.45.6-2.69v-8.6h2.16v9.2c0,1.51-.47,2.75-1.41,3.72-1.05,1.09-2.35,1.63-3.89,1.63s-2.83-.54-3.88-1.63c-.94-.98-1.41-2.22-1.41-3.72v-9.2h2.16Z"/>
        <path class="cls-2" d="m543.59,69.53h5.91v.47c0,1.07-.13,2.03-.38,2.85-.25.77-.66,1.48-1.25,2.15-1.33,1.49-3.02,2.24-5.07,2.24s-3.71-.72-5.14-2.17c-1.43-1.45-2.14-3.19-2.14-5.22s.73-3.83,2.18-5.28c1.45-1.45,3.22-2.18,5.3-2.18,1.12,0,2.16.23,3.13.68.93.46,1.84,1.19,2.73,2.22l-1.54,1.47c-1.17-1.56-2.6-2.34-4.29-2.34-1.51,0-2.78.52-3.81,1.56-1.02,1.02-1.54,2.31-1.54,3.85s.57,2.91,1.71,3.94c1.07.96,2.22,1.44,3.47,1.44,1.06,0,2.01-.36,2.86-1.07.85-.72,1.32-1.58,1.42-2.59h-3.56v-2.03Z"/>
        <path class="cls-2" d="m554.93,62.68v8.6c0,1.23.2,2.13.6,2.69.6.82,1.44,1.23,2.53,1.23s1.94-.41,2.54-1.23c.4-.55.6-1.45.6-2.69v-8.6h2.16v9.2c0,1.51-.47,2.75-1.41,3.72-1.06,1.09-2.35,1.63-3.89,1.63s-2.83-.54-3.88-1.63c-.94-.98-1.41-2.22-1.41-3.72v-9.2h2.16Z"/>
        <path class="cls-2" d="m575.14,73.5h-6.12l-1.59,3.47h-2.32l7.07-15.19,6.82,15.19h-2.36l-1.5-3.47Zm-.88-2.03l-2.12-4.86-2.22,4.86h4.34Z"/>
        <path class="cls-2" d="m582.99,70.8l-4.67-8.12h2.48l3.27,5.71,3.28-5.71h2.48l-4.69,8.12v6.18h-2.16v-6.18Z"/>
        <g>
          <polygon class="cls-2" points="415.21 86.29 415.21 86.82 416.24 86.82 416.24 86.29 416.24 86.11 415.21 86.11 415.21 86.29"/>
          <rect class="cls-2" x="415.21" y="84.01" width="1.04" height=".7"/>
          <polygon class="cls-2" points="419.88 78.23 419.05 78.23 419.47 80.12 419.88 80.33 420.3 80.12 420.71 78.23 419.88 78.23"/>
          <rect class="cls-2" x="423.52" y="88.39" width="1.56" height=".7"/>
          <rect class="cls-2" x="423.52" y="86.11" width="1.56" height=".7"/>
          <rect class="cls-2" x="423.52" y="84.01" width="1.56" height=".7"/>
          <polygon class="cls-2" points="428.71 78.23 427.88 78.23 428.3 80.12 428.71 80.33 429.13 80.12 429.54 78.23 428.71 78.23"/>
          <rect class="cls-2" x="432.35" y="88.39" width="1.56" height=".7"/>
          <rect class="cls-2" x="432.35" y="86.11" width="1.56" height=".7"/>
          <rect class="cls-2" x="432.35" y="84.01" width="1.56" height=".7"/>
          <polygon class="cls-2" points="437.54 78.23 436.71 78.23 437.13 80.12 437.54 80.33 437.96 80.12 438.38 78.23 437.54 78.23"/>
          <polygon class="cls-2" points="441.18 86.29 441.18 86.82 442.22 86.82 442.22 86.29 442.22 86.11 441.18 86.11 441.18 86.29"/>
          <rect class="cls-2" x="441.18" y="84.01" width="1.04" height=".7"/>
          <rect class="cls-2" x="451.05" y="69.99" width="2.25" height=".35"/>
          <rect class="cls-2" x="451.05" y="72.27" width="2.25" height=".35"/>
          <rect class="cls-2" x="451.05" y="67.71" width="2.25" height=".35"/>
          <rect class="cls-2" x="451.05" y="65.43" width="2.25" height=".35"/>
          <rect class="cls-2" x="451.05" y="63.15" width="2.25" height=".35"/>
          <rect class="cls-2" x="451.05" y="60.87" width="2.25" height=".35"/>
          <rect class="cls-2" x="446.72" y="63.15" width="3.46" height="9.47"/>
          <rect class="cls-2" x="443.6" y="69.99" width="2.25" height=".35"/>
          <rect class="cls-2" x="443.6" y="72.27" width="2.25" height=".35"/>
          <rect class="cls-2" x="443.6" y="67.71" width="2.25" height=".35"/>
          <rect class="cls-2" x="443.6" y="65.43" width="2.25" height=".35"/>
          <rect class="cls-2" x="443.6" y="63.15" width="2.25" height=".35"/>
          <rect class="cls-2" x="443.6" y="60.87" width="2.25" height=".35"/>
          <rect class="cls-2" x="434.77" y="73.84" width="5.54" height="1.05"/>
          <rect class="cls-2" x="435.81" y="64.2" width="3.46" height="9.12"/>
          <polygon class="cls-2" points="425.94 73.84 425.94 74.9 431.48 74.9 431.48 73.84 428.71 73.84 425.94 73.84"/>
          <polygon class="cls-2" points="430.44 73.32 430.44 64.2 428.71 64.2 426.98 64.2 426.98 73.32 428.71 73.32 430.44 73.32"/>
          <rect class="cls-2" x="417.11" y="73.84" width="5.54" height="1.05"/>
          <rect class="cls-2" x="418.15" y="64.2" width="3.46" height="9.12"/>
          <rect class="cls-2" x="411.57" y="69.99" width="2.25" height=".35"/>
          <rect class="cls-2" x="411.57" y="72.27" width="2.25" height=".35"/>
          <rect class="cls-2" x="411.57" y="67.71" width="2.25" height=".35"/>
          <rect class="cls-2" x="411.57" y="65.43" width="2.25" height=".35"/>
          <rect class="cls-2" x="411.57" y="63.15" width="2.25" height=".35"/>
          <rect class="cls-2" x="411.57" y="60.87" width="2.25" height=".35"/>
          <rect class="cls-2" x="407.24" y="63.15" width="3.46" height="9.47"/>
          <rect class="cls-2" x="404.12" y="67.71" width="2.25" height=".35"/>
          <rect class="cls-2" x="404.12" y="69.99" width="2.25" height=".35"/>
          <rect class="cls-2" x="404.12" y="65.43" width="2.25" height=".35"/>
          <rect class="cls-2" x="404.12" y="63.15" width="2.25" height=".35"/>
          <rect class="cls-2" x="404.12" y="60.87" width="2.25" height=".35"/>
          <rect class="cls-2" x="404.12" y="72.27" width="2.25" height=".35"/>
          <path class="cls-2" d="m419.79,43.87c1.05,0,1.9-.86,1.9-1.93s-.85-1.93-1.9-1.93-1.9.86-1.9,1.93.85,1.93,1.9,1.93"/>
          <path class="cls-2" d="m428.71,43.87c1.05,0,1.9-.86,1.9-1.93s-.85-1.93-1.9-1.93-1.9.86-1.9,1.93.85,1.93,1.9,1.93"/>
          <path class="cls-2" d="m437.63,43.87c1.05,0,1.9-.86,1.9-1.93s-.85-1.93-1.9-1.93-1.9.86-1.9,1.93.85,1.93,1.9,1.93"/>
          <path class="cls-2" d="m415.03,51.58h-.1c-1.43-1.72-3.57-2.81-5.96-2.81s-4.53,1.09-5.96,2.81h-.1v.7h12.12v-.7Z"/>
          <polygon class="cls-2" points="442.22 47.36 442.22 46.32 428.71 46.32 415.21 46.32 415.21 47.36 428.71 47.36 442.22 47.36"/>
          <polygon class="cls-2" points="417.11 50.35 428.71 50.35 440.31 50.35 440.31 49.48 442.22 49.48 442.22 48.6 415.21 48.6 415.21 49.48 417.11 49.48 417.11 50.35"/>
          <rect class="cls-2" x="417.11" y="51.58" width="23.2" height=".7"/>
          <polygon class="cls-2" points="443.6 53.68 413.82 53.68 413.82 52.81 404.12 52.81 404.12 53.68 404.12 54.38 404.12 54.91 415.2 54.91 415.2 56.14 442.22 56.14 442.22 54.91 453.3 54.91 453.3 54.38 453.3 53.68 453.3 52.81 443.6 52.81 443.6 53.68"/>
          <path class="cls-2" d="m404.12,58.07h2.77v1.58h.39c.38.53.99.88,1.69.88s1.31-.35,1.69-.88h.39v-1.58h2.77v-1.4h-9.7v1.4Z"/>
          <path class="cls-2" d="m443.6,58.07h2.77v1.58h.39c.38.53.99.88,1.69.88s1.31-.35,1.69-.88h.39v-1.58h2.77v-1.4h-9.7v1.4Z"/>
          <path class="cls-2" d="m419.88,59.25c.69,0,1.26.57,1.26,1.27s-.56,1.27-1.26,1.27-1.26-.57-1.26-1.27.56-1.27,1.26-1.27m-4.68.05h3.44c-.1.11-.19.22-.26.35h-1.27v1.93h1.38c.32.42.82.7,1.39.7s1.07-.28,1.38-.7h1.39v-1.93h-1.27c-.07-.13-.16-.24-.26-.35h5.1c.45-.93,1.4-1.58,2.49-1.58h-13.51v1.58Z"/>
          <path class="cls-2" d="m437.54,59.25c.69,0,1.26.57,1.26,1.27s-.56,1.27-1.26,1.27-1.26-.57-1.26-1.27.56-1.27,1.26-1.27m-6.34.05h5.1c-.1.11-.19.22-.26.35h-1.27v1.93h1.39c.32.42.82.7,1.39.7s1.07-.28,1.39-.7h1.38v-1.93h-1.27c-.07-.13-.16-.24-.26-.35h3.44v-1.58h-13.51c1.1,0,2.04.64,2.49,1.58"/>
          <path class="cls-2" d="m425.25,59.64v1.93h.89c-.13-.33-.2-.68-.2-1.05,0-.31.05-.6.14-.88h-.83Z"/>
          <path class="cls-2" d="m431.48,60.52c0,.37-.07.73-.2,1.05h.9v-1.93h-.83c.09.28.14.57.14.88"/>
          <path class="cls-2" d="m430.44,60.52c0-.48-.19-.92-.51-1.24l-1.04,1.35s-.01.02-.02.03h0s0,.02-.01.02c-.01.01-.02.02-.04.03-.08.05-.2.05-.27-.03-.02-.02-.03-.04-.04-.06l-.57-.87.75.51,1.23-.97c-.31-.32-.75-.51-1.23-.51-.96,0-1.73.78-1.73,1.75s.78,1.75,1.73,1.75,1.73-.79,1.73-1.75"/>
          <polygon class="cls-2" points="417.11 63.5 422.65 63.5 422.65 62.98 422.65 62.62 417.11 62.62 417.11 63.5"/>
          <path class="cls-2" d="m428.71,63.33c-.7,0-1.34-.27-1.83-.7h-.94v.88h5.54v-.88h-.94c-.49.44-1.13.7-1.83.7"/>
          <rect class="cls-2" x="434.77" y="62.62" width="5.54" height=".88"/>
          <path class="cls-2" d="m419.03,79.37l-.15-.69c-2.1.47-3.67,2.36-3.67,4.62h1.39c0-1.6,1.11-2.93,2.58-3.26l-.07-.34-.08-.34Z"/>
          <path class="cls-2" d="m427.78,79l-.07-.32c-1.59.36-2.88,1.53-3.41,3.06-.53-1.53-1.82-2.71-3.41-3.06l-.07.32-.23,1.05c1.48.33,2.59,1.66,2.59,3.26h2.25c0-1.6,1.11-2.93,2.59-3.26h0l-.23-1.05h0Z"/>
          <path class="cls-2" d="m436.54,78.69c-1.59.36-2.88,1.53-3.41,3.06-.53-1.53-1.82-2.71-3.41-3.06l-.07.32-.23,1.05c1.48.33,2.59,1.66,2.59,3.25h2.25c0-1.6,1.11-2.93,2.59-3.25l-.23-1.05-.07-.32Z"/>
          <path class="cls-2" d="m438.55,78.69l-.07.32-.23,1.05c1.48.33,2.59,1.66,2.59,3.25h1.39c0-2.27-1.57-4.16-3.67-4.62"/>
          <path class="cls-2" d="m423.34,87.6s-.09.04-.09.09.04.09.09.09.09-.04.09-.09-.04-.09-.09-.09"/>
          <path class="cls-2" d="m423.86,87.78s-.04-.09-.09-.09-.09.04-.09.09.04.09.09.09.09-.04.09-.09"/>
          <path class="cls-2" d="m424.38,87.43s-.04-.09-.09-.09-.09.04-.09.09.04.09.09.09.09-.04.09-.09"/>
          <g>
            <rect class="cls-2" x="422.65" y="32.29" width="1.22" height="1.23"/>
            <rect class="cls-2" x="424.21" y="32.29" width="1.22" height="1.23"/>
            <rect class="cls-2" x="427.33" y="32.29" width="1.22" height="1.23"/>
            <rect class="cls-2" x="428.88" y="32.29" width="1.22" height="1.23"/>
            <rect class="cls-2" x="425.77" y="32.29" width="1.22" height="1.23"/>
            <rect class="cls-2" x="421.09" y="32.29" width="1.22" height="1.23"/>
            <rect class="cls-2" x="416.42" y="32.29" width="1.22" height="1.23"/>
            <rect class="cls-2" x="417.98" y="32.29" width="1.22" height="1.23"/>
            <rect class="cls-2" x="419.53" y="32.29" width="1.22" height="1.23"/>
            <rect class="cls-2" x="439.79" y="32.29" width="1.22" height="1.23"/>
            <rect class="cls-2" x="438.23" y="32.29" width="1.22" height="1.23"/>
            <rect class="cls-2" x="436.67" y="32.29" width="1.22" height="1.23"/>
            <path class="cls-2" d="m466.68,53.2l-.02-47.73h-75.89v48.47c0,.34.04.87.04.87.69,20.6,17.39,37.08,37.9,37.08s37.69-16.91,37.97-37.88v-.57c-.01-.27,0,0,0-.26Zm-51.47-18.98l.87-.88v-2.8h.35v1.4h24.59v-1.4h.35v2.8l.87.88v1.05h-27.01v-1.05Zm-21.82,27.35h9.18v1.23h-8.89c-.1-.41-.2-.82-.29-1.23Zm60.95,17.7h-11.44v1.05h10.53c-1.13,1.07-2.34,2.06-3.6,2.98h-6.93v1.06h5.39c-2.47,1.61-5.14,2.93-7.98,3.9v-4.96c0-1.55-1.24-2.81-2.77-2.81s-2.77,1.25-2.77,2.81v6.37c-1.08.18-2.18.32-3.29.41v-6.78c0-1.55-1.24-2.81-2.77-2.81s-2.77,1.25-2.77,2.81v6.78c-1.11-.09-2.21-.22-3.29-.41v-6.38c0-1.55-1.24-2.81-2.77-2.81s-2.77,1.25-2.77,2.81v4.97c-2.84-.97-5.52-2.3-7.99-3.92h.05s0,0,0,0h5.33v-1.06h-6.92c-1.26-.92-2.47-1.91-3.6-2.98h10.52v-1.05h-11.43v-2.8h12.12v.53h27.01v-.53h12.12v2.8Zm9.41-16.48h-8.89v-1.23h9.18c-.09.41-.19.82-.29,1.23Zm.96-5.44h-10.37v.7h10.29c-.05.41-.1.82-.17,1.23h-10.13v14.02h.52v-9.99h8.74c-.16.59-.34,1.17-.53,1.75h-1.98v4.86c-.43.87-.89,1.73-1.39,2.56v-7.41h-3.12v8.24h2.6c-.57.91-1.18,1.78-1.83,2.63h-3.02v-1.05h-11.43v.7h-28.4v-.7h-11.43v1.05h-3.02c-.65-.85-1.26-1.72-1.83-2.63h2.6v-8.24h-3.12v7.42c-.5-.83-.95-1.69-1.39-2.56v-4.86h-1.98c-.19-.58-.36-1.16-.53-1.75h8.74v9.99h.52v-14.02h-10.13c-.06-.41-.12-.82-.17-1.23h10.29v-.7h-10.37c-.05-.47-.09-.93-.12-1.4h10.5v-3.16h-1.39v-1.58h.93c.44-.53.94-1,1.5-1.4v-2.46h2.77c.61.36,1.32.56,2.07.56s1.46-.2,2.07-.56h3.81v-1.05h-2.6v-.53h-6.58v.53s-2.6,0-2.6,0v-1.93h1.04c.12-4.47,4.92-8.06,10.82-8.06.04,0,.08,0,.12,0,.05,0,.1,0,.14,0h27.01s.09,0,.14,0c.04,0,.08,0,.12,0,5.9,0,10.7,3.59,10.82,8.06h1.04v1.93h-2.6v-.53h-6.58v.53h-2.6v1.05h3.81c.61.36,1.32.56,2.07.56s1.46-.2,2.07-.56h2.78v2.46c.55.4,1.06.87,1.5,1.4h.93v1.58h-1.39v3.16h10.49c-.03.47-.08.94-.12,1.4Z"/>
            <rect class="cls-2" x="435.11" y="32.29" width="1.22" height="1.23"/>
            <rect class="cls-2" x="430.44" y="32.29" width="1.22" height="1.23"/>
            <rect class="cls-2" x="432" y="32.29" width="1.22" height="1.23"/>
            <rect class="cls-2" x="433.55" y="32.29" width="1.22" height="1.23"/>
          </g>
          <path class="cls-2" d="m454.51,51.93v-.35h-.1c-1.43-1.72-3.57-2.8-5.96-2.8s-4.53,1.09-5.96,2.8h-.1v.7h12.12v-.35Z"/>
        </g>
      </g>
    </g>
  </g>
</svg>