<?xml version="1.0" encoding="UTF-8"?>
<svg id="Capa_2" data-name="Capa 2" xmlns="http://www.w3.org/2000/svg" viewBox="0 0 320.01 99.21">
  <defs>
    <style>
      .cls-1 {
        fill: #00808c;
        stroke-width: 0px;
      }
    </style>
  </defs>
  <g id="Capa_1-2" data-name="Capa 1">
    <g>
      <g>
        <polygon class="cls-1" points="190.39 30.26 195.18 30.26 195.18 28.46 190.39 28.46 190.39 19.8 188.37 19.8 188.37 30.26 189.86 30.26 190.39 30.26"/>
        <path class="cls-1" d="m198.41,28.31h4.3l.74,1.95h2.16l-4.19-10.45h-1.65l-4.21,10.45h2.11l.75-1.95Zm2.17-5.65l1.5,3.96h-3.01l1.52-3.96Z"/>
        <path class="cls-1" d="m213.01,29.85c.52-.27.92-.63,1.19-1.09.27-.45.41-.95.41-1.51,0-.7-.21-1.31-.63-1.81-.27-.32-.62-.58-1.04-.78.29-.17.54-.37.74-.6.36-.43.54-.94.54-1.54,0-.49-.12-.93-.36-1.35-.24-.41-.59-.74-1.06-1s-1.05-.38-1.75-.38h-4.22v10.45h4.28c.74,0,1.38-.14,1.9-.41Zm-2.19-8.39c.42,0,.75.1,1,.31.25.21.38.53.38.95s-.13.73-.38.94c-.25.21-.59.31-1,.31h-1.98v-2.51h1.98Zm-1.98,7.15v-3h2.2c.33,0,.61.07.84.2.23.13.41.32.53.54s.18.48.18.76c0,.41-.14.76-.41,1.06-.27.3-.65.45-1.14.45h-2.2Z"/>
        <path class="cls-1" d="m217.25,28.85c.49.49,1.07.88,1.72,1.15.66.28,1.37.42,2.13.42s1.47-.14,2.12-.42c.65-.28,1.22-.66,1.71-1.15.49-.49.88-1.06,1.15-1.72.28-.65.42-1.36.42-2.11s-.14-1.46-.42-2.11c-.28-.65-.66-1.23-1.15-1.72-.49-.49-1.06-.87-1.72-1.14-.65-.27-1.37-.41-2.14-.41s-1.47.14-2.13.41c-.65.27-1.23.65-1.72,1.14-.49.49-.87,1.06-1.14,1.71-.27.65-.41,1.35-.41,2.1s.14,1.46.42,2.12c.28.66.66,1.23,1.15,1.72Zm.92-5.67c.28-.53.67-.93,1.17-1.23.5-.29,1.08-.44,1.73-.44.51,0,.96.08,1.37.25.41.17.76.41,1.06.72.3.31.53.68.68,1.11.16.43.24.9.24,1.41,0,.7-.14,1.32-.42,1.84-.28.53-.67.94-1.17,1.23-.5.3-1.08.45-1.75.45-.49,0-.93-.08-1.35-.25-.41-.17-.76-.41-1.06-.71s-.52-.68-.68-1.12-.25-.92-.25-1.44c0-.69.14-1.3.42-1.83Z"/>
        <path class="cls-1" d="m230.13,25.88h.35l3.34,4.37h2.45l-3.5-4.41c.44-.05.84-.16,1.19-.34.52-.25.91-.6,1.2-1.06.28-.45.42-.98.42-1.6s-.14-1.12-.42-1.58c-.28-.46-.68-.81-1.19-1.08-.51-.26-1.1-.39-1.78-.39h-4.09v10.45h2.02v-4.37Zm1.89-4.43c.5,0,.88.14,1.15.41.27.27.41.61.41,1.02,0,.45-.14.8-.41,1.05-.27.25-.66.38-1.15.38h-1.89v-2.85h1.89Z"/>
        <path class="cls-1" d="m239.17,28.31h4.3l.74,1.95h2.16l-4.19-10.45h-1.65l-4.21,10.45h2.11l.75-1.95Zm2.17-5.65l1.5,3.96h-3.01l1.52-3.96Z"/>
        <polygon class="cls-1" points="254.32 21.6 254.32 19.8 245.62 19.8 245.62 21.6 248.95 21.6 248.95 30.26 250.99 30.26 250.99 21.6 254.32 21.6"/>
        <path class="cls-1" d="m256.14,28.85c.49.49,1.07.88,1.72,1.15s1.37.42,2.13.42,1.47-.14,2.12-.42,1.22-.66,1.71-1.15.87-1.06,1.15-1.72c.28-.65.42-1.36.42-2.11s-.14-1.46-.42-2.11c-.28-.65-.66-1.23-1.15-1.72s-1.06-.87-1.72-1.14-1.37-.41-2.14-.41-1.47.14-2.13.41c-.65.27-1.23.65-1.72,1.14s-.87,1.06-1.14,1.71c-.27.65-.41,1.35-.41,2.1s.14,1.46.42,2.12c.28.66.66,1.23,1.15,1.72Zm.92-5.67c.28-.53.67-.93,1.17-1.23.5-.29,1.08-.44,1.73-.44.51,0,.96.08,1.37.25.41.17.76.41,1.06.72.3.31.53.68.68,1.11.16.43.24.9.24,1.41,0,.7-.14,1.32-.42,1.84-.28.53-.67.94-1.17,1.23-.5.3-1.08.45-1.75.45-.49,0-.93-.08-1.35-.25-.41-.17-.76-.41-1.06-.71s-.52-.68-.68-1.12-.25-.92-.25-1.44c0-.69.14-1.3.42-1.83Z"/>
        <path class="cls-1" d="m269.03,25.88h.35l3.34,4.37h2.45l-3.5-4.41c.44-.05.84-.16,1.19-.34.51-.25.91-.6,1.2-1.06.28-.45.42-.98.42-1.6s-.14-1.12-.42-1.58c-.28-.46-.68-.81-1.19-1.08-.51-.26-1.1-.39-1.78-.39h-4.09v10.45h2.02v-4.37Zm1.89-4.43c.5,0,.88.14,1.15.41.27.27.41.61.41,1.02,0,.45-.14.8-.41,1.05-.27.25-.66.38-1.15.38h-1.89v-2.85h1.89Z"/>
        <rect class="cls-1" x="276.31" y="19.8" width="2.02" height="10.45"/>
        <path class="cls-1" d="m281.51,28.85c.49.49,1.07.88,1.72,1.15s1.37.42,2.13.42,1.47-.14,2.12-.42,1.22-.66,1.71-1.15.87-1.06,1.15-1.72c.28-.65.42-1.36.42-2.11s-.14-1.46-.42-2.11c-.28-.65-.66-1.23-1.15-1.72s-1.06-.87-1.72-1.14-1.37-.41-2.14-.41-1.47.14-2.13.41c-.65.27-1.23.65-1.72,1.14s-.87,1.06-1.14,1.71c-.27.65-.41,1.35-.41,2.1s.14,1.46.42,2.12c.28.66.66,1.23,1.15,1.72Zm.92-5.67c.28-.53.67-.93,1.17-1.23.5-.29,1.08-.44,1.73-.44.51,0,.96.08,1.37.25.41.17.76.41,1.06.72.3.31.53.68.68,1.11.16.43.24.9.24,1.41,0,.7-.14,1.32-.42,1.84-.28.53-.67.94-1.17,1.23-.5.3-1.08.45-1.75.45-.49,0-.93-.08-1.35-.25-.41-.17-.76-.41-1.06-.71s-.52-.68-.68-1.12-.25-.92-.25-1.44c0-.69.14-1.3.42-1.83Z"/>
        <path class="cls-1" d="m196.32,37.64c-.49-.47-1.07-.83-1.72-1.09-.66-.26-1.38-.39-2.15-.39h-4.07v10.45h4.1c.76,0,1.47-.13,2.13-.39.66-.26,1.23-.62,1.72-1.09.49-.47.86-1.03,1.14-1.66.27-.64.41-1.34.41-2.09s-.14-1.45-.41-2.08c-.27-.63-.65-1.19-1.15-1.66Zm-.95,5.55c-.28.52-.68.91-1.18,1.2-.51.28-1.1.42-1.77.42h-2.02v-6.85h2.02c.66,0,1.25.14,1.75.42.51.28.9.68,1.19,1.19.29.51.43,1.11.43,1.79s-.14,1.31-.42,1.83Z"/>
        <polygon class="cls-1" points="206.67 37.94 206.67 36.16 201.5 36.16 200.96 36.16 199.48 36.16 199.48 46.61 200.96 46.61 201.5 46.61 206.75 46.61 206.75 44.83 201.5 44.83 201.5 42.13 206.23 42.13 206.23 40.41 201.5 40.41 201.5 37.94 206.67 37.94"/>
        <path class="cls-1" d="m218.95,39.44c0-.67-.15-1.26-.46-1.75-.31-.49-.73-.87-1.26-1.14-.53-.27-1.13-.4-1.79-.4h-4.12v10.45h2.02v-3.88h2.1c.66,0,1.26-.13,1.79-.4.53-.27.95-.65,1.26-1.14.31-.49.46-1.07.46-1.75Zm-2.25.88c-.15.24-.35.43-.61.56-.26.13-.55.19-.86.19h-1.89v-3.27h1.89c.32,0,.6.06.86.19.26.13.46.32.61.56.15.25.22.54.22.88s-.07.64-.22.88Z"/>
        <path class="cls-1" d="m223.04,36.16l-4.21,10.45h2.11l.75-1.95h4.3l.74,1.95h2.16l-4.19-10.45h-1.65Zm-.7,6.81l1.52-3.96,1.5,3.96h-3.01Z"/>
        <path class="cls-1" d="m237.17,40.8c.28-.45.42-.98.42-1.6s-.14-1.12-.42-1.58c-.28-.46-.68-.81-1.19-1.08-.51-.26-1.1-.39-1.78-.39h-4.09v10.45h2.02v-4.37h.35l3.34,4.37h2.45l-3.5-4.41c.44-.05.84-.16,1.19-.34.51-.25.91-.6,1.2-1.06Zm-1.99-.52c-.27.25-.66.38-1.15.38h-1.89v-2.85h1.89c.5,0,.88.14,1.15.41s.41.61.41,1.02c0,.45-.14.8-.41,1.05Z"/>
        <polygon class="cls-1" points="243.62 46.61 243.62 37.96 246.95 37.96 246.95 36.16 238.25 36.16 238.25 37.96 241.58 37.96 241.58 46.61 243.62 46.61"/>
        <rect class="cls-1" x="248.35" y="36.16" width="2.02" height="10.45"/>
        <path class="cls-1" d="m254.98,38.84c.3-.31.65-.55,1.05-.71.4-.16.85-.25,1.33-.25.55,0,1.04.09,1.46.27.42.18.77.43,1.06.74l1.37-1.37c-.49-.48-1.05-.85-1.68-1.12s-1.37-.41-2.2-.41c-.77,0-1.48.14-2.13.42-.65.28-1.22.66-1.71,1.15-.49.49-.87,1.06-1.13,1.71-.26.65-.39,1.36-.39,2.11s.13,1.46.39,2.11c.26.65.64,1.23,1.13,1.72.49.49,1.06.87,1.72,1.14.65.27,1.36.41,2.13.41.85,0,1.6-.13,2.24-.4s1.21-.64,1.69-1.13l-1.37-1.37c-.29.33-.64.58-1.06.76-.42.18-.92.27-1.51.27-.49,0-.93-.08-1.33-.25-.4-.17-.75-.41-1.05-.72-.3-.31-.53-.68-.68-1.11-.16-.43-.24-.9-.24-1.43s.08-.99.24-1.42.39-.8.68-1.12Z"/>
        <rect class="cls-1" x="262.71" y="36.16" width="2.02" height="10.45"/>
        <path class="cls-1" d="m268.89,42.73h2.1c.66,0,1.26-.13,1.79-.4.53-.27.95-.65,1.26-1.14.31-.49.46-1.07.46-1.75s-.15-1.26-.46-1.75c-.31-.49-.73-.87-1.26-1.14-.53-.27-1.13-.4-1.79-.4h-4.12v10.45h2.02v-3.88Zm1.89-4.92c.32,0,.6.06.86.19.26.13.46.32.61.56.15.25.22.54.22.88s-.07.64-.22.88c-.15.24-.35.43-.61.56-.26.13-.55.19-.86.19h-1.89v-3.27h1.89Z"/>
        <path class="cls-1" d="m276.49,46.61l.75-1.95h4.3l.74,1.95h2.16l-4.19-10.45h-1.65l-4.21,10.45h2.11Zm2.91-7.6l1.5,3.96h-3.01l1.52-3.96Z"/>
        <path class="cls-1" d="m289.91,46.76c.85,0,1.6-.13,2.24-.4s1.21-.64,1.69-1.13l-1.37-1.37c-.29.33-.64.58-1.06.76-.42.18-.92.27-1.51.27-.49,0-.93-.08-1.33-.25-.4-.17-.75-.41-1.05-.72-.3-.31-.53-.68-.68-1.11-.16-.43-.24-.9-.24-1.43s.08-.99.24-1.42.39-.8.68-1.12c.3-.31.65-.55,1.05-.71.4-.16.85-.25,1.33-.25.55,0,1.04.09,1.46.27.42.18.77.43,1.06.74l1.37-1.37c-.49-.48-1.05-.85-1.68-1.12s-1.37-.41-2.2-.41c-.77,0-1.48.14-2.13.42-.65.28-1.22.66-1.71,1.15-.49.49-.87,1.06-1.13,1.71-.26.65-.39,1.36-.39,2.11s.13,1.46.39,2.11c.26.65.64,1.23,1.13,1.72.49.49,1.06.87,1.72,1.14.65.27,1.36.41,2.13.41Z"/>
        <rect class="cls-1" x="295.27" y="36.16" width="2.02" height="10.45"/>
        <polygon class="cls-1" points="306 33.51 304.75 31.99 302.61 34.31 303.35 35.24 306 33.51"/>
        <path class="cls-1" d="m308.15,37.55c-.49-.49-1.06-.87-1.72-1.14s-1.37-.41-2.14-.41-1.47.14-2.13.41c-.65.27-1.23.65-1.72,1.14s-.87,1.06-1.14,1.71c-.27.65-.41,1.35-.41,2.1s.14,1.46.42,2.12c.28.66.66,1.23,1.15,1.72s1.07.88,1.72,1.15,1.37.42,2.13.42,1.47-.14,2.12-.42,1.22-.66,1.71-1.15.87-1.06,1.15-1.72c.28-.65.42-1.36.42-2.11s-.14-1.46-.42-2.11c-.28-.65-.66-1.23-1.15-1.72Zm-.94,5.66c-.28.53-.67.94-1.17,1.23-.5.3-1.08.45-1.75.45-.49,0-.93-.08-1.35-.25-.41-.17-.76-.41-1.06-.71s-.52-.68-.68-1.12-.25-.92-.25-1.44c0-.69.14-1.3.42-1.83.28-.53.67-.93,1.17-1.23s1.08-.44,1.73-.44c.51,0,.96.08,1.37.25.41.17.76.41,1.06.72.3.31.53.68.68,1.11.16.43.24.9.24,1.41,0,.7-.14,1.32-.42,1.84Z"/>
        <polygon class="cls-1" points="317.97 36.16 317.97 42.94 312.74 36.16 311.32 36.16 311.32 46.61 313.34 46.61 313.34 39.87 318.55 46.61 320.01 46.61 320.01 36.16 317.97 36.16"/>
        <polygon class="cls-1" points="192.37 56.56 189.9 52.51 187.57 52.51 191.34 58.51 191.34 62.96 193.38 62.96 193.38 58.42 197.14 52.51 194.84 52.51 192.37 56.56"/>
        <polygon class="cls-1" points="199.97 54.31 203.3 54.31 203.3 62.96 205.33 62.96 205.33 54.31 208.66 54.31 208.66 52.51 199.97 52.51 199.97 54.31"/>
        <polygon class="cls-1" points="212.08 58.49 216.81 58.49 216.81 56.76 212.08 56.76 212.08 54.3 217.26 54.3 217.26 52.51 212.08 52.51 211.55 52.51 210.06 52.51 210.06 62.96 211.55 62.96 212.08 62.96 217.33 62.96 217.33 61.18 212.08 61.18 212.08 58.49"/>
        <path class="cls-1" d="m219.82,61.56c.49.49,1.06.87,1.72,1.14.65.27,1.36.41,2.13.41.85,0,1.6-.13,2.25-.4s1.21-.64,1.69-1.13l-1.37-1.37c-.29.33-.64.58-1.06.76-.42.18-.92.27-1.51.27-.49,0-.93-.08-1.33-.25-.4-.17-.75-.41-1.05-.72-.3-.31-.53-.68-.68-1.11-.16-.43-.24-.9-.24-1.43s.08-.99.24-1.42c.16-.43.39-.8.68-1.12.3-.31.65-.55,1.05-.71.4-.16.85-.25,1.33-.25.56,0,1.04.09,1.46.27.42.18.77.43,1.06.74l1.37-1.37c-.49-.48-1.05-.85-1.68-1.12-.63-.27-1.37-.41-2.2-.41-.77,0-1.48.14-2.13.42-.65.28-1.22.66-1.71,1.15-.49.49-.87,1.06-1.13,1.71-.26.65-.39,1.36-.39,2.11s.13,1.46.39,2.11c.26.65.64,1.23,1.13,1.72Z"/>
        <polygon class="cls-1" points="237.7 52.51 235.66 52.51 235.66 59.29 230.43 52.51 229.02 52.51 229.02 62.96 231.04 62.96 231.04 56.23 236.24 62.96 237.7 62.96 237.7 52.51"/>
        <path class="cls-1" d="m248.55,53.9c-.49-.49-1.06-.87-1.72-1.14-.65-.27-1.37-.41-2.14-.41s-1.47.14-2.13.41-1.23.65-1.72,1.14-.87,1.06-1.15,1.71c-.27.65-.41,1.35-.41,2.1s.14,1.46.42,2.12c.28.66.66,1.23,1.15,1.72.49.49,1.07.88,1.72,1.15s1.37.42,2.13.42,1.47-.14,2.12-.42c.65-.28,1.22-.66,1.71-1.15s.87-1.06,1.15-1.72c.28-.65.42-1.36.42-2.11s-.14-1.46-.42-2.11c-.28-.65-.66-1.23-1.15-1.72Zm-.94,5.66c-.28.53-.67.94-1.17,1.23-.5.3-1.08.45-1.75.45-.49,0-.93-.08-1.35-.25-.41-.17-.76-.41-1.06-.71-.29-.31-.52-.68-.68-1.12s-.25-.92-.25-1.44c0-.69.14-1.3.42-1.83.28-.53.67-.93,1.17-1.23s1.08-.44,1.73-.44c.51,0,.96.08,1.37.25s.76.41,1.06.72c.3.31.53.68.68,1.11.16.43.24.9.24,1.41,0,.7-.14,1.32-.42,1.84Z"/>
        <polygon class="cls-1" points="253.74 52.51 251.72 52.51 251.72 62.96 253.21 62.96 253.74 62.96 258.53 62.96 258.53 61.16 253.74 61.16 253.74 52.51"/>
        <path class="cls-1" d="m268.02,53.9c-.49-.49-1.06-.87-1.72-1.14s-1.37-.41-2.14-.41-1.47.14-2.13.41c-.65.27-1.23.65-1.72,1.14s-.87,1.06-1.14,1.71c-.27.65-.41,1.35-.41,2.1s.14,1.46.42,2.12c.28.66.66,1.23,1.15,1.72s1.07.88,1.72,1.15,1.37.42,2.13.42,1.47-.14,2.12-.42,1.22-.66,1.71-1.15.87-1.06,1.15-1.72c.28-.65.42-1.36.42-2.11s-.14-1.46-.42-2.11c-.28-.65-.66-1.23-1.15-1.72Zm-.94,5.66c-.28.53-.67.94-1.17,1.23-.5.3-1.08.45-1.75.45-.49,0-.93-.08-1.35-.25-.41-.17-.76-.41-1.06-.71s-.52-.68-.68-1.12-.25-.92-.25-1.44c0-.69.14-1.3.42-1.83.28-.53.67-.93,1.17-1.23s1.08-.44,1.73-.44c.51,0,.96.08,1.37.25.41.17.76.41,1.06.72.3.31.53.68.68,1.11.16.43.24.9.24,1.41,0,.7-.14,1.32-.42,1.84Z"/>
        <path class="cls-1" d="m276.03,58.93l3.16.03c-.06.31-.16.59-.29.84-.25.47-.6.83-1.07,1.07-.47.24-1.03.36-1.68.36s-1.2-.15-1.69-.45c-.49-.3-.88-.71-1.16-1.24-.28-.53-.42-1.14-.42-1.84s.14-1.3.43-1.82c.29-.52.69-.93,1.2-1.22.51-.29,1.1-.44,1.76-.44.58,0,1.12.11,1.61.34.49.23.89.56,1.22.98l1.37-1.37c-.48-.58-1.08-1.04-1.8-1.36-.72-.32-1.52-.48-2.38-.48-.77,0-1.49.14-2.16.41s-1.24.65-1.74,1.14-.88,1.06-1.16,1.71c-.28.65-.42,1.36-.42,2.12s.14,1.45.41,2.1c.27.65.65,1.22,1.15,1.72s1.06.88,1.71,1.15c.65.27,1.35.41,2.09.41,1.01,0,1.91-.21,2.68-.63.78-.42,1.39-1.05,1.84-1.89.45-.84.67-1.88.67-3.13v-.28h-5.32v1.75Z"/>
        <rect class="cls-1" x="282.9" y="52.51" width="2.02" height="10.45"/>
        <polygon class="cls-1" points="282.21 50.67 282.96 51.59 285.6 49.87 284.35 48.35 282.21 50.67"/>
        <path class="cls-1" d="m290.49,52.51l-4.21,10.45h2.11l.75-1.95h4.3l.74,1.95h2.16l-4.19-10.45h-1.65Zm-.7,6.81l1.52-3.96,1.5,3.96h-3.01Z"/>
        <path class="cls-1" d="m303.26,57.7c-.29-.24-.61-.43-.97-.58-.35-.15-.7-.28-1.06-.4-.35-.12-.67-.24-.97-.37-.29-.13-.53-.28-.71-.46s-.27-.41-.27-.7c0-.34.13-.59.4-.77s.63-.27,1.1-.27c.41,0,.77.08,1.09.24.32.16.64.41.94.74l1.34-1.34c-.37-.43-.84-.77-1.41-1.04s-1.22-.4-1.93-.4c-.67,0-1.28.12-1.81.36-.54.24-.96.58-1.26,1.03-.31.45-.46.99-.46,1.62,0,.54.09.98.27,1.33.18.35.41.64.71.86.29.22.61.41.97.56.35.15.7.28,1.06.39.35.11.67.24.97.38s.53.31.71.51c.18.2.27.46.27.77,0,.37-.16.65-.47.86-.31.21-.73.31-1.26.31-.59,0-1.08-.11-1.49-.33-.41-.22-.76-.54-1.07-.94l-1.34,1.34c.49.57,1.03,1.01,1.63,1.29.6.29,1.32.43,2.16.43,1.19,0,2.13-.28,2.81-.83.68-.56,1.03-1.32,1.03-2.29,0-.54-.09-1-.27-1.38-.18-.37-.41-.68-.71-.91Z"/>
        <path class="cls-1" d="m194.96,75.48c0,.54-.11,1-.33,1.4-.22.4-.53.7-.91.92-.38.22-.83.33-1.33.33s-.92-.11-1.32-.33c-.39-.22-.7-.53-.93-.92s-.34-.87-.34-1.41v-6.47h-1.4v6.5c0,.76.17,1.44.52,2.04s.82,1.07,1.42,1.41c.6.34,1.28.51,2.04.51s1.46-.17,2.05-.51c.59-.34,1.07-.81,1.41-1.4.35-.59.52-1.27.52-2.04v-6.51h-1.41v6.48Z"/>
        <path class="cls-1" d="m206.25,70.47c-.47-.47-1.03-.83-1.67-1.09-.64-.26-1.34-.39-2.09-.39h-3.82v10.32h3.85c.74,0,1.43-.13,2.07-.39.64-.26,1.19-.62,1.66-1.09.47-.47.83-1.01,1.09-1.64.26-.63.39-1.31.39-2.04s-.13-1.43-.39-2.05c-.26-.62-.63-1.17-1.1-1.64Zm-.43,5.69c-.32.59-.77,1.04-1.35,1.38s-1.24.5-2.01.5h-2.39v-7.76h2.39c.75,0,1.42.16,1.99.49s1.03.78,1.35,1.37c.33.59.49,1.25.49,2.01s-.16,1.44-.48,2.02Z"/>
        <polygon class="cls-1" points="211.07 74.65 216.05 74.65 216.05 73.43 211.07 73.43 211.07 70.28 216.47 70.28 216.47 69 211.07 69 210.63 69 209.67 69 209.67 79.32 210.63 79.32 211.07 79.32 216.54 79.32 216.54 78.04 211.07 78.04 211.07 74.65"/>
        <polygon class="cls-1" points="219.84 69 218.45 69 218.45 79.32 219.4 79.32 219.84 79.32 224.93 79.32 224.93 78.04 219.84 78.04 219.84 69"/>
        <path class="cls-1" d="m229.75,69l-4.22,10.32h1.49l.93-2.33h4.58l.93,2.33h1.52l-4.21-10.32h-1.01Zm-1.31,6.76l1.81-4.52,1.79,4.52h-3.6Z"/>
        <path class="cls-1" d="m242.01,74.46c.49-.24.86-.58,1.12-1.02.26-.44.39-.95.39-1.53s-.13-1.07-.39-1.5c-.26-.44-.64-.78-1.12-1.03-.49-.25-1.06-.38-1.71-.38h-3.79v10.32h1.4v-4.49h.91l3.64,4.49h1.77l-3.71-4.5c.56-.02,1.06-.14,1.5-.35Zm-4.1-4.24h2.35c.6,0,1.07.16,1.39.49.32.33.48.74.48,1.23,0,.53-.16.94-.49,1.25-.33.31-.79.46-1.4.46h-2.33v-3.43Z"/>
      </g>
      <g>
        <path class="cls-1" d="m141.83,53.08c0,1.33.73,1.95,2.3,1.95h5c.62,0,.72-.19.72-.65v-3.18h-5.65c-2.09,0-2.37.95-2.37,1.88Z"/>
        <path class="cls-1" d="m126.76,44.27h-.66c-2.83,0-3.88,1.15-3.88,4.24v6.52h4.55c3.08,0,4.34-1.55,4.34-5.36s-1.26-5.4-4.34-5.4Z"/>
        <path class="cls-1" d="m41.03,53.08c0,1.33.73,1.95,2.3,1.95h5c.62,0,.72-.19.72-.65v-3.18h-5.65c-2.09,0-2.37.95-2.37,1.88Z"/>
        <path class="cls-1" d="m149.83,15.36H21.4C9.58,15.36,0,24.94,0,36.76v58.16c0,3.81,4.61,5.72,7.31,3.03l14.1-14.1h128.43c11.82,0,21.4-9.58,21.4-21.4V4.29c0-3.81-4.61-5.72-7.31-3.03l-14.1,14.1ZM26.4,59.27h-4.93v7.46h-4.34v-18.4c0-5.48,2.4-8.26,7.13-8.26h2.14c5.37,0,8.33,3.41,8.33,9.6s-2.96,9.6-8.33,9.6Zm26.91-4.04c0,2.62-.66,4.04-4.14,4.04h-5.88c-4.34,0-6.54-2.01-6.54-5.97s2.15-5.65,6.57-5.65h5.72v-1.1c0-1.03-.44-2.26-2.55-2.26h-8.61v-4.2h8.65c4.37,0,6.78,2.28,6.78,6.43v8.73Zm14.75-10.96h-4.95c-1.46,0-2.09.62-2.09,2.09v12.91h-4.34v-13.47c0-4.01,1.6-5.73,5.34-5.73h6.04v4.2Zm13.24-.07h-3.42v8.49c0,1.85.55,2.48,2.19,2.48h1.16v4.02h-1.93c-4.17,0-5.8-1.88-5.8-6.71v-8.28h-2.53v-4.2h2.53v-4.4h4.38v4.4h3.42v4.2Zm7.53,15.06h-4.34v-19.19h4.34v19.19Zm.09-21.33h-4.53v-4.53h4.53v4.53Zm18.13,6.34h-6.88c-3.08,0-4.34,1.56-4.34,5.4s1.26,5.36,4.34,5.36h6.88v4.24h-7.23c-5.39,0-8.37-3.41-8.37-9.6s2.97-9.6,8.37-9.6h7.23v4.2Zm7.5,15h-4.34v-19.19h4.34v19.19Zm.09-21.33h-4.53v-4.53h4.53v4.53Zm12.5,21.33h-4.93v7.46h-4.34v-18.4c0-5.48,2.4-8.26,7.13-8.26h2.14c5.37,0,8.33,3.41,8.33,9.6s-2.96,9.6-8.33,9.6Zm26.96-4.04c0,2.62-.66,4.04-4.14,4.04h-5.88c-4.34,0-6.54-2.01-6.54-5.97s2.15-5.65,6.57-5.65h5.72v-1.1c0-1.03-.44-2.26-2.55-2.26h-8.61v-4.2h8.65c4.37,0,6.78,2.28,6.78,6.43v8.73Z"/>
        <path class="cls-1" d="m26.01,44.27h-.66c-2.83,0-3.88,1.15-3.88,4.24v6.52h4.55c3.08,0,4.34-1.55,4.34-5.36s-1.26-5.4-4.34-5.4Z"/>
      </g>
    </g>
  </g>
</svg>