<svg width="81" height="51" viewBox="0 0 81 51" fill="none" xmlns="http://www.w3.org/2000/svg">
<g id="Logo">
<g id="Capa 2">
<g id="Group">
<g id="Group_2">
<path id="Vector" d="M67.0879 26.9956C67.0879 27.6718 67.4332 27.987 68.1758 27.987H70.5409C70.8342 27.987 70.8815 27.8904 70.8815 27.6565V26.0397H68.2089C67.2203 26.0397 67.0879 26.5227 67.0879 26.9956Z" fill="#004146"/>
<path id="Vector_2" d="M59.962 22.5151H59.6498C58.3111 22.5151 57.8145 23.1 57.8145 24.6716V27.9878H59.9667C61.4236 27.9878 62.0196 27.1994 62.0196 25.2616C62.0196 23.3238 61.4236 22.5151 59.9667 22.5151H59.962Z" fill="#004146"/>
<path id="Vector_3" d="M19.4082 26.9955C19.4082 27.6717 19.7535 27.9869 20.4962 27.9869H22.8613C23.1545 27.9869 23.2018 27.8903 23.2018 27.6565V26.0397H20.5293C19.5407 26.0397 19.4082 26.5227 19.4082 26.9955Z" fill="#004146"/>
<path id="Vector_4" d="M70.8726 7.81118H10.1226C4.53153 7.81118 0 12.6837 0 18.6955V48.2763C0 50.2141 2.18062 51.1856 3.45778 49.8174L10.1274 42.646H70.8774C76.4685 42.646 81 37.7735 81 31.7617V2.18085C81 0.243043 78.8194 -0.728406 77.5422 0.63976L70.8726 7.81118ZM12.4877 30.1443H10.1557V33.9386H8.10284V24.5801C8.10284 21.7929 9.23809 20.379 11.4755 20.379H12.4877C15.0279 20.379 16.428 22.1133 16.428 25.2617C16.428 28.41 15.0279 30.1443 12.4877 30.1443ZM25.2167 28.0895C25.2167 29.4221 24.9045 30.1443 23.2584 30.1443H20.4771C18.4241 30.1443 17.3835 29.122 17.3835 27.1079C17.3835 25.0938 18.4005 24.2343 20.4912 24.2343H23.1969V23.6748C23.1969 23.1509 22.9888 22.5253 21.9907 22.5253H17.918V20.3892H22.0096C24.0767 20.3892 25.2167 21.5488 25.2167 23.6595V28.0997V28.0895ZM32.1938 22.5151H29.8523C29.1617 22.5151 28.8637 22.8305 28.8637 23.5781V30.1443H26.8108V23.2933C26.8108 21.2538 27.5676 20.379 29.3367 20.379H32.1938V22.5151ZM38.4566 22.4795H36.8388V26.7977C36.8388 27.7386 37.099 28.059 37.8747 28.059H38.4234V30.1036H37.5105C35.538 30.1036 34.767 29.1474 34.767 26.6909V22.4795H33.5703V20.3434H34.767V18.1055H36.8388V20.3434H38.4566V22.4795ZM42.0184 30.1392H39.9655V20.379H42.0184V30.1392ZM42.061 19.2906H39.9182V16.9865H42.061V19.2906ZM50.6368 22.5151H47.3824C45.9255 22.5151 45.3295 23.3086 45.3295 25.2617C45.3295 27.2147 45.9255 27.9878 47.3824 27.9878H50.6368V30.1443H47.2169C44.6673 30.1443 43.2577 28.41 43.2577 25.2617C43.2577 22.1133 44.6626 20.379 47.2169 20.379H50.6368V22.5151ZM54.1845 30.1443H52.1316V20.3841H54.1845V30.1443ZM54.227 19.2956H52.0843V16.9916H54.227V19.2956ZM60.1398 30.1443H57.8078V33.9386H55.7549V24.5801C55.7549 21.7929 56.8902 20.379 59.1275 20.379H60.1398C62.6799 20.379 64.0801 22.1133 64.0801 25.2617C64.0801 28.41 62.6799 30.1443 60.1398 30.1443ZM72.8924 28.0895C72.8924 29.4221 72.5802 30.1443 70.9341 30.1443H68.1528C66.0999 30.1443 65.0592 29.122 65.0592 27.1079C65.0592 25.0938 66.0762 24.2343 68.167 24.2343H70.8726V23.6748C70.8726 23.1509 70.6645 22.5253 69.6664 22.5253H65.5937V20.3892H69.6854C71.7525 20.3892 72.8924 21.5488 72.8924 23.6595V28.0997V28.0895Z" fill="#004146"/>
<path id="Vector_5" d="M12.3038 22.5151H11.9916C10.6529 22.5151 10.1562 23.1 10.1562 24.6716V27.9878H12.3085C13.7654 27.9878 14.3614 27.1994 14.3614 25.2616C14.3614 23.3238 13.7654 22.5151 12.3085 22.5151H12.3038Z" fill="#004146"/>
</g>
</g>
</g>
</g>
</svg>
