<?xml version="1.0" encoding="UTF-8"?>
<svg id="Capa_2" data-name="Capa 2" xmlns="http://www.w3.org/2000/svg" viewBox="0 0 552.09 48.4">
  <defs>
    <style>
      .cls-1 {
        fill: #fff;
        stroke-width: 0px;
      }
    </style>
  </defs>
  <g id="Capa_1-2" data-name="Capa 1">
    <path class="cls-1" d="m100.34,28.77h6.31v2.01h-8.51v-13.39h2.2v11.38Zm13.93-11.38l5.47,13.39h-2.37l-1.02-2.58h-5.75l-1.03,2.58h-2.33l5.51-13.39h1.53Zm1.32,8.89l-2.11-5.34-2.13,5.34h4.24Zm14.88-1.51c.47.63.71,1.36.71,2.2,0,.69-.17,1.32-.51,1.89-.34.57-.84,1.04-1.49,1.39-.66.35-1.46.53-2.42.53h-5.26v-13.39h5.09c.91,0,1.66.17,2.26.5.6.33,1.05.76,1.34,1.28.29.52.44,1.09.44,1.68,0,.7-.2,1.32-.58,1.86-.25.34-.57.63-.96.89.57.31,1.03.7,1.39,1.18Zm-6.77-5.47v3.48h2.83c.57,0,1.03-.15,1.38-.44.35-.29.52-.73.52-1.3s-.17-1.01-.52-1.3c-.34-.29-.8-.44-1.38-.44h-2.83Zm5.28,7.48c0-.37-.08-.71-.25-1.03-.17-.32-.41-.57-.73-.77-.32-.19-.7-.29-1.15-.29h-3.16v4.17h3.16c.68,0,1.2-.21,1.57-.63.37-.42.55-.91.55-1.45Zm16.84-5.38c.35.84.53,1.73.53,2.69s-.18,1.85-.53,2.69c-.35.84-.84,1.57-1.45,2.19-.62.63-1.34,1.12-2.16,1.47-.82.36-1.71.54-2.65.54s-1.85-.18-2.68-.54c-.83-.36-1.56-.85-2.18-1.48-.63-.63-1.11-1.36-1.46-2.2-.35-.84-.53-1.73-.53-2.69s.18-1.85.53-2.68c.35-.83.84-1.56,1.45-2.19.62-.63,1.34-1.12,2.16-1.47.82-.35,1.71-.53,2.67-.53s1.85.18,2.67.53c.82.35,1.55.84,2.17,1.47.63.63,1.11,1.36,1.46,2.2Zm-1.73,2.67c0-.7-.11-1.34-.34-1.92-.22-.58-.54-1.08-.95-1.51-.41-.43-.89-.76-1.44-.99-.56-.23-1.17-.34-1.85-.34-.89,0-1.68.2-2.36.6s-1.22.96-1.61,1.67c-.39.71-.58,1.54-.58,2.49,0,.7.11,1.35.33,1.94.22.59.54,1.1.94,1.52.4.42.88.75,1.45.99.56.24,1.17.35,1.84.35.91,0,1.7-.2,2.38-.61.68-.41,1.22-.97,1.61-1.69.39-.72.58-1.55.58-2.5Zm9.91,1.01l4.7,5.7h-2.77l-4.58-5.68h-.57v5.68h-2.2v-13.39h5.01c.84,0,1.58.17,2.22.51.64.34,1.13.8,1.48,1.38.35.58.53,1.24.53,1.98,0,.78-.18,1.45-.53,2.03-.35.57-.84,1.02-1.48,1.34-.53.27-1.14.41-1.81.46Zm-3.22-1.8h2.7c.68,0,1.2-.18,1.58-.53.38-.35.57-.84.57-1.46,0-.56-.19-1.03-.56-1.42-.37-.38-.89-.57-1.57-.57h-2.72v3.98Zm15.17-5.89l5.47,13.39h-2.37l-1.02-2.58h-5.75l-1.03,2.58h-2.33l5.51-13.39h1.53Zm1.32,8.89l-2.11-5.34-2.13,5.34h4.24Zm3.23-6.89h4.36v11.38h2.2v-11.38h4.36v-2.01h-10.92v2.01Zm24.38,2c.35.84.53,1.73.53,2.69s-.18,1.85-.53,2.69c-.35.84-.84,1.57-1.45,2.19-.62.63-1.34,1.12-2.16,1.47-.82.36-1.71.54-2.65.54s-1.85-.18-2.68-.54c-.83-.36-1.56-.85-2.18-1.48-.63-.63-1.11-1.36-1.46-2.2-.35-.84-.53-1.73-.53-2.69s.18-1.85.53-2.68c.35-.83.84-1.56,1.45-2.19.62-.63,1.34-1.12,2.16-1.47.82-.35,1.71-.53,2.67-.53s1.85.18,2.67.53c.82.35,1.55.84,2.17,1.47.63.63,1.11,1.36,1.46,2.2Zm-1.73,2.67c0-.7-.11-1.34-.34-1.92-.22-.58-.54-1.08-.95-1.51-.41-.43-.89-.76-1.44-.99-.56-.23-1.17-.34-1.85-.34-.89,0-1.68.2-2.36.6s-1.22.96-1.61,1.67c-.39.71-.58,1.54-.58,2.49,0,.7.11,1.35.33,1.94.22.59.54,1.1.94,1.52.4.42.88.75,1.45.99.56.24,1.17.35,1.84.35.91,0,1.7-.2,2.38-.61.68-.41,1.22-.97,1.61-1.69.39-.72.58-1.55.58-2.5Zm9.91,1.01l4.7,5.7h-2.77l-4.58-5.68h-.57v5.68h-2.2v-13.39h5.01c.84,0,1.58.17,2.22.51.64.34,1.13.8,1.48,1.38.35.58.53,1.24.53,1.98,0,.78-.18,1.45-.53,2.03-.35.57-.84,1.02-1.48,1.34-.53.27-1.14.41-1.81.46Zm-3.22-1.8h2.7c.68,0,1.2-.18,1.58-.53.38-.35.57-.84.57-1.46,0-.56-.19-1.03-.56-1.42-.37-.38-.89-.57-1.57-.57h-2.72v3.98Zm9.55,7.5h2.2v-13.39h-2.2v13.39Zm17.53-9.38c.35.84.53,1.73.53,2.69s-.18,1.85-.53,2.69c-.35.84-.84,1.57-1.45,2.19-.62.63-1.34,1.12-2.16,1.47-.82.36-1.71.54-2.65.54s-1.85-.18-2.68-.54c-.83-.36-1.56-.85-2.18-1.48-.63-.63-1.11-1.36-1.46-2.2-.35-.84-.53-1.73-.53-2.69s.18-1.85.53-2.68c.35-.83.84-1.56,1.45-2.19.62-.63,1.34-1.12,2.16-1.47.82-.35,1.71-.53,2.67-.53s1.85.18,2.67.53c.82.35,1.55.84,2.17,1.47.63.63,1.11,1.36,1.46,2.2Zm-1.73,2.67c0-.7-.11-1.34-.34-1.92-.22-.58-.54-1.08-.95-1.51-.41-.43-.89-.76-1.44-.99-.56-.23-1.17-.34-1.85-.34-.89,0-1.68.2-2.36.6s-1.22.96-1.61,1.67c-.39.71-.58,1.54-.58,2.49,0,.7.11,1.35.33,1.94.22.59.54,1.1.94,1.52.4.42.88.75,1.45.99.56.24,1.17.35,1.84.35.91,0,1.7-.2,2.38-.61.68-.41,1.22-.97,1.61-1.69.39-.72.58-1.55.58-2.5Zm19.6-2.63c.35.81.52,1.69.52,2.65s-.17,1.82-.52,2.64c-.34.82-.82,1.53-1.43,2.13-.61.61-1.33,1.08-2.16,1.42-.83.34-1.72.51-2.68.51h-5.13v-13.39h5.09c.97,0,1.87.17,2.7.51.83.34,1.55.81,2.17,1.41.62.61,1.1,1.31,1.44,2.12Zm-1.74,2.63c0-.92-.2-1.73-.59-2.43-.4-.7-.94-1.25-1.64-1.64-.7-.4-1.5-.59-2.4-.59h-2.83v9.37h2.83c.92,0,1.72-.2,2.42-.59.7-.4,1.24-.95,1.63-1.66.39-.71.58-1.53.58-2.46Zm6.7.84h6.16v-1.93h-6.16v-3.58h6.71v-2.01h-8.91v13.39h9.01v-2.01h-6.81v-3.86Zm22.21-3.35c0,.84-.2,1.58-.58,2.2-.39.62-.92,1.11-1.59,1.45-.67.34-1.43.52-2.27.52h-2.77v5.05h-2.2v-13.39h4.97c.84,0,1.6.17,2.27.52.67.34,1.2.83,1.59,1.45.39.63.58,1.36.58,2.2Zm-2.2,0c0-.46-.1-.86-.31-1.2-.2-.34-.48-.6-.83-.78-.35-.19-.76-.28-1.21-.28h-2.66v4.51h2.66c.46,0,.86-.09,1.21-.28.35-.19.63-.45.83-.79.21-.34.31-.74.31-1.2Zm9.16-4.17l5.47,13.39h-2.37l-1.02-2.58h-5.75l-1.03,2.58h-2.33l5.51-13.39h1.53Zm1.32,8.89l-2.11-5.34-2.13,5.34h4.24Zm11.32-1.21l4.7,5.7h-2.77l-4.58-5.68h-.57v5.68h-2.2v-13.39h5.01c.84,0,1.58.17,2.22.51.64.34,1.13.8,1.48,1.38.35.58.53,1.24.53,1.98,0,.78-.18,1.45-.53,2.03-.35.57-.84,1.02-1.48,1.34-.53.27-1.14.41-1.81.46Zm-3.22-1.8h2.7c.68,0,1.2-.18,1.58-.53.38-.35.57-.84.57-1.46,0-.56-.19-1.03-.56-1.42-.37-.38-.89-.57-1.57-.57h-2.72v3.98Zm7.9-3.88h4.36v11.38h2.2v-11.38h4.36v-2.01h-10.92v2.01Zm12.84,11.38h2.2v-13.39h-2.2v13.39Zm13.27-2.29c-.57.25-1.26.37-2.08.37-.66,0-1.27-.11-1.82-.35-.55-.23-1.02-.56-1.43-.99-.4-.43-.71-.93-.93-1.52-.22-.59-.33-1.23-.33-1.93s.11-1.35.33-1.93c.22-.59.53-1.09.93-1.52.4-.43.88-.76,1.43-.99.55-.23,1.15-.34,1.82-.34.75,0,1.41.12,1.98.36.57.24,1.05.58,1.45,1.01l1.49-1.49c-.61-.61-1.31-1.1-2.1-1.45-.79-.36-1.73-.54-2.81-.54-.97,0-1.87.18-2.69.54-.82.36-1.54.85-2.15,1.47-.61.63-1.09,1.36-1.42,2.19-.33.84-.5,1.73-.5,2.69s.17,1.85.5,2.69c.33.84.8,1.57,1.42,2.2.61.63,1.33,1.12,2.15,1.47.82.35,1.72.53,2.69.53,1.07,0,2.02-.18,2.85-.54.83-.36,1.55-.85,2.16-1.47l-1.49-1.49c-.4.43-.88.78-1.44,1.02Zm4.91,2.29h2.2v-13.39h-2.2v13.39Zm14.52-9.22c0,.84-.2,1.58-.58,2.2-.39.62-.92,1.11-1.59,1.45-.67.34-1.43.52-2.27.52h-2.77v5.05h-2.2v-13.39h4.97c.84,0,1.6.17,2.27.52.67.34,1.2.83,1.59,1.45.39.63.58,1.36.58,2.2Zm-2.2,0c0-.46-.1-.86-.31-1.2-.2-.34-.48-.6-.83-.78-.35-.19-.76-.28-1.21-.28h-2.66v4.51h2.66c.46,0,.86-.09,1.21-.28.35-.19.63-.45.83-.79.21-.34.31-.74.31-1.2Zm9.16-4.17l5.47,13.39h-2.37l-1.02-2.58h-5.75l-1.03,2.58h-2.33l5.51-13.39h1.53Zm1.32,8.89l-2.11-5.34-2.13,5.34h4.24Zm13.26,2.21c-.57.25-1.26.37-2.08.37-.66,0-1.27-.11-1.82-.35-.55-.23-1.02-.56-1.43-.99-.4-.43-.71-.93-.93-1.52-.22-.59-.33-1.23-.33-1.93s.11-1.35.33-1.93c.22-.59.53-1.09.93-1.52.4-.43.88-.76,1.43-.99.55-.23,1.15-.34,1.82-.34.75,0,1.41.12,1.98.36.57.24,1.05.58,1.45,1.01l1.49-1.49c-.61-.61-1.31-1.1-2.1-1.45-.79-.36-1.73-.54-2.81-.54-.97,0-1.87.18-2.69.54s-1.54.85-2.15,1.47c-.61.63-1.09,1.36-1.42,2.19-.33.84-.5,1.73-.5,2.69s.17,1.85.5,2.69c.33.84.8,1.57,1.42,2.2.61.63,1.33,1.12,2.15,1.47.82.35,1.72.53,2.69.53,1.07,0,2.02-.18,2.85-.54.83-.36,1.55-.85,2.16-1.47l-1.49-1.49c-.4.43-.88.78-1.44,1.02Zm4.91,2.29h2.2v-13.39h-2.2v13.39Zm13.27-17.16l-1.63-1.63-2.45,3.12.96.96,3.12-2.45Zm4.26,7.77c.35.84.53,1.73.53,2.69s-.18,1.85-.53,2.69c-.35.84-.84,1.57-1.45,2.19-.62.63-1.34,1.12-2.16,1.47-.82.36-1.71.54-2.65.54s-1.85-.18-2.68-.54c-.83-.36-1.56-.85-2.18-1.48-.63-.63-1.11-1.36-1.46-2.2-.35-.84-.53-1.73-.53-2.69s.18-1.85.53-2.68c.35-.83.84-1.56,1.45-2.19.62-.63,1.34-1.12,2.16-1.47.82-.35,1.71-.53,2.67-.53s1.85.18,2.67.53c.82.35,1.55.84,2.17,1.47.63.63,1.11,1.36,1.46,2.2Zm-1.73,2.67c0-.7-.11-1.34-.34-1.92-.22-.58-.54-1.08-.95-1.51-.41-.43-.89-.76-1.44-.99-.56-.23-1.17-.34-1.85-.34-.89,0-1.68.2-2.36.6-.68.4-1.22.96-1.61,1.67-.39.71-.58,1.54-.58,2.49,0,.7.11,1.35.33,1.94.22.59.54,1.1.94,1.52.4.42.88.75,1.45.99.56.24,1.17.35,1.84.35.91,0,1.7-.2,2.38-.61.68-.41,1.22-.97,1.61-1.69.39-.72.58-1.55.58-2.5Zm13.1,2.56l-7.08-9.24h-1.53v13.39h2.2v-9.24l7.08,9.24h1.53v-13.39h-2.2v9.24Zm16.77-9.24l-3.48,5.47-3.48-5.47h-2.54l4.92,7.56v5.82h2.2v-5.91l4.9-7.48h-2.51Zm6.26,2.01h4.36v11.38h2.2v-11.38h4.36v-2.01h-10.92v2.01Zm15.03,5.51h6.16v-1.93h-6.16v-3.58h6.71v-2.01h-8.91v13.39h9.01v-2.01h-6.81v-3.86Zm16.98,3.59c-.57.25-1.26.37-2.08.37-.66,0-1.27-.11-1.82-.35-.55-.23-1.02-.56-1.43-.99-.4-.43-.71-.93-.93-1.52-.22-.59-.33-1.23-.33-1.93s.11-1.35.33-1.93c.22-.59.53-1.09.93-1.52.4-.43.88-.76,1.43-.99.55-.23,1.15-.34,1.82-.34.75,0,1.41.12,1.98.36.57.24,1.05.58,1.45,1.01l1.49-1.49c-.61-.61-1.31-1.1-2.1-1.45-.79-.36-1.73-.54-2.81-.54-.97,0-1.87.18-2.69.54s-1.54.85-2.15,1.47c-.61.63-1.09,1.36-1.42,2.19-.33.84-.5,1.73-.5,2.69s.17,1.85.5,2.69c.33.84.8,1.57,1.42,2.2.61.63,1.33,1.12,2.15,1.47.82.35,1.72.53,2.69.53,1.07,0,2.02-.18,2.85-.54.83-.36,1.55-.85,2.16-1.47l-1.49-1.49c-.4.43-.88.78-1.44,1.02Zm13.51-1.86l-7.08-9.24h-1.53v13.39h2.2v-9.24l7.08,9.24h1.53v-13.39h-2.2v9.24Zm17.53-5.23c.35.84.53,1.73.53,2.69s-.18,1.85-.53,2.69c-.35.84-.84,1.57-1.45,2.19-.62.63-1.34,1.12-2.16,1.47-.82.36-1.71.54-2.65.54s-1.85-.18-2.68-.54c-.83-.36-1.56-.85-2.18-1.48-.63-.63-1.11-1.36-1.46-2.2-.35-.84-.53-1.73-.53-2.69s.18-1.85.53-2.68c.35-.83.84-1.56,1.45-2.19.62-.63,1.34-1.12,2.16-1.47.82-.35,1.71-.53,2.67-.53s1.85.18,2.67.53c.82.35,1.55.84,2.17,1.47.63.63,1.11,1.36,1.46,2.2Zm-1.73,2.67c0-.7-.11-1.34-.34-1.92-.22-.58-.54-1.08-.95-1.51-.41-.43-.89-.76-1.44-.99-.56-.23-1.17-.34-1.85-.34-.89,0-1.68.2-2.36.6-.68.4-1.22.96-1.61,1.67-.39.71-.58,1.54-.58,2.49,0,.7.11,1.35.33,1.94.22.59.54,1.1.94,1.52.4.42.88.75,1.45.99.56.24,1.17.35,1.84.35.91,0,1.7-.2,2.38-.61.68-.41,1.22-.97,1.61-1.69.39-.72.58-1.55.58-2.5Zm6.69-6.67h-2.2v13.39h8.51v-2.01h-6.31v-11.38Zm19.71,4.01c.35.84.53,1.73.53,2.69s-.18,1.85-.53,2.69c-.35.84-.84,1.57-1.45,2.19-.62.63-1.34,1.12-2.16,1.47-.82.36-1.71.54-2.65.54s-1.85-.18-2.68-.54c-.83-.36-1.56-.85-2.18-1.48-.63-.63-1.11-1.36-1.46-2.2-.35-.84-.53-1.73-.53-2.69s.18-1.85.53-2.68c.35-.83.84-1.56,1.45-2.19.62-.63,1.34-1.12,2.16-1.47.82-.35,1.71-.53,2.67-.53s1.85.18,2.67.53c.82.35,1.55.84,2.17,1.47.63.63,1.11,1.36,1.46,2.2Zm-1.73,2.67c0-.7-.11-1.34-.34-1.92-.22-.58-.54-1.08-.95-1.51-.41-.43-.89-.76-1.44-.99-.56-.23-1.17-.34-1.85-.34-.89,0-1.68.2-2.36.6s-1.22.96-1.61,1.67c-.39.71-.58,1.54-.58,2.49,0,.7.11,1.35.33,1.94.22.59.54,1.1.94,1.52.4.42.88.75,1.45.99.56.24,1.17.35,1.84.35.91,0,1.7-.2,2.38-.61.68-.41,1.22-.97,1.61-1.69.39-.72.58-1.55.58-2.5Zm10.62,1.47h4.26c-.08.52-.22.98-.43,1.39-.35.65-.84,1.13-1.48,1.45-.64.33-1.41.49-2.3.49-.84,0-1.59-.2-2.26-.61-.66-.41-1.19-.97-1.58-1.69-.39-.72-.58-1.55-.58-2.5s.19-1.77.57-2.49c.38-.71.92-1.27,1.62-1.67.69-.4,1.5-.6,2.42-.6.77,0,1.48.15,2.14.45.66.3,1.19.73,1.59,1.29l1.49-1.49c-.61-.75-1.37-1.33-2.28-1.74-.91-.41-1.89-.61-2.95-.61-.97,0-1.87.18-2.71.53-.84.35-1.56.84-2.18,1.47-.62.63-1.1,1.36-1.45,2.19-.35.83-.53,1.72-.53,2.68s.18,1.85.53,2.69c.35.84.83,1.57,1.44,2.2.61.63,1.33,1.13,2.14,1.48.82.36,1.68.54,2.6.54,1.26,0,2.38-.26,3.37-.79.98-.52,1.76-1.31,2.32-2.37s.85-2.38.85-3.98v-.31h-6.62v2.01Zm7.86-10.43l.96.96,3.12-2.45-1.63-1.63-2.45,3.12Zm.94,15.67h2.2v-13.39h-2.2v13.39Zm11.15-13.39l5.47,13.39h-2.37l-1.02-2.58h-5.76l-1.03,2.58h-2.33l5.51-13.39h1.53Zm1.32,8.89l-2.11-5.34-2.13,5.34h4.24Zm13.69-.99c-.23-.47-.53-.86-.91-1.16-.38-.3-.79-.55-1.24-.74-.45-.19-.91-.36-1.36-.52-.45-.15-.87-.32-1.24-.49-.38-.17-.68-.38-.91-.63-.23-.25-.35-.58-.35-.99,0-.48.19-.86.57-1.13.38-.27.9-.4,1.56-.4.54,0,1.01.1,1.42.32.42.21.81.53,1.2.97l1.49-1.49c-.43-.54-1-.98-1.69-1.32-.7-.35-1.48-.52-2.36-.52-.82,0-1.56.15-2.22.44-.66.29-1.19.72-1.58,1.27-.39.55-.58,1.23-.58,2.02,0,.69.12,1.26.35,1.7.23.45.53.81.91,1.09.38.28.79.51,1.24.7.45.18.91.35,1.36.5.45.15.87.31,1.24.5.38.19.68.42.91.7.23.28.35.64.35,1.09,0,.54-.22.96-.66,1.26-.44.31-1.03.46-1.77.46-.79,0-1.44-.15-1.95-.45-.51-.3-.95-.72-1.32-1.25l-1.49,1.49c.59.74,1.25,1.3,1.99,1.68.74.38,1.64.57,2.7.57,1.44,0,2.58-.35,3.43-1.05.85-.7,1.27-1.65,1.27-2.85,0-.71-.12-1.31-.34-1.78Zm-489.91-3.54h-.32c-1.3,0-1.74.48-1.74,1.92v3.03h2.07c1.41,0,1.97-.69,1.97-2.46s-.55-2.48-1.97-2.48Zm-41.67,4.15c0,.56.29.8.97.8h2.44c.2,0,.2,0,.2-.16v-1.4h-2.6c-.93,0-1.01.38-1.01.77ZM83.53,2.09v5.4s0,22.97,0,22.97c0,5.77-4.67,10.44-10.44,10.44H10.44s-6.88,6.88-6.88,6.88C2.25,49.1,0,48.17,0,46.31v-5.4s0-22.97,0-22.97C0,12.17,4.67,7.49,10.44,7.49h62.65s6.88-6.88,6.88-6.88c1.32-1.32,3.56-.38,3.56,1.48ZM17.09,24.23c0-3.12-1.5-4.83-4.21-4.83h-1.04c-2.41,0-3.63,1.41-3.63,4.18v9.13h2.42v-3.64s2.26,0,2.26,0c2.72,0,4.21-1.72,4.21-4.83Zm9.07-1.55c0-2.12-1.23-3.29-3.46-3.29h-4.37v2.35h4.35c.73,0,1.09.31,1.09.95v.39s-2.64,0-2.64,0c-2.23,0-3.36.98-3.36,2.91,0,2,1.15,3.06,3.34,3.06h2.87c1.82,0,2.17-.78,2.17-2.12v-4.26Zm7.19-3.29h-3.1c-1.9,0-2.75.91-2.75,2.94v6.72h2.42v-6.45c0-.63.24-.87.87-.87h2.57v-2.35Zm6.46-.03h-1.67s0-2.15,0-2.15h-2.44v2.15s-1.24,0-1.24,0v2.35h1.24s0,3.89,0,3.89c0,2.43.86,3.42,2.98,3.42h1.09v-2.26h-.72c-.71,0-.92-.24-.92-1.06v-3.99s1.67,0,1.67,0v-2.35Zm3.67.03h-2.42v9.66h2.42v-9.66Zm.05-3.25h-2.51v2.51h2.51v-2.51Zm8.85,3.25h-3.68c-2.73,0-4.23,1.72-4.23,4.83s1.5,4.83,4.23,4.83h3.68v-2.37h-3.51c-1.42,0-1.97-.69-1.97-2.46,0-1.79.55-2.48,1.97-2.48h3.51v-2.35Zm3.66,0h-2.42v9.66h2.42v-9.66Zm.05-3.25h-2.51v2.51h2.51v-2.51Zm10.16,8.08c0-3.12-1.5-4.83-4.21-4.83h-1.04c-2.41,0-3.63,1.41-3.63,4.18v9.13h2.42v-3.64s2.26,0,2.26,0c2.72,0,4.21-1.72,4.21-4.83Zm9.09-1.55c0-2.12-1.23-3.29-3.46-3.29h-4.37v2.35h4.35c.73,0,1.09.31,1.09.95v.39s-2.64,0-2.64,0c-2.23,0-3.36.98-3.36,2.91s1.15,3.06,3.34,3.06h2.87c1.82,0,2.17-.78,2.17-2.12v-4.26Zm-62.64-.94h-.32c-1.3,0-1.74.48-1.74,1.92v3.03h2.07c1.41,0,1.97-.69,1.97-2.46s-.55-2.48-1.97-2.48Zm56.65,4.15c0,.56.29.8.97.8h2.44c.2,0,.2,0,.2-.16v-1.4h-2.6c-.93,0-1.01.39-1.01.77Z"/>
  </g>
</svg>