<?xml version="1.0" encoding="utf-8"?>
<!-- Generator: Adobe Illustrator 23.0.5, SVG Export Plug-In . SVG Version: 6.00 Build 0)  -->
<svg version="1.1" id="Capa_1" xmlns="http://www.w3.org/2000/svg" xmlns:xlink="http://www.w3.org/1999/xlink" x="0px" y="0px"
	 viewBox="0 0 171.2 99.2" style="enable-background:new 0 0 171.2 99.2;" xml:space="preserve">
<style type="text/css">
	.st0{fill:#FFFFFF;}
</style>
<g>
	<path class="st0" d="M141.8,53.1c0,1.3,0.7,2,2.3,2h5c0.6,0,0.7-0.2,0.7-0.7v-3.2h-5.6C142.1,51.2,141.8,52.1,141.8,53.1
		L141.8,53.1z"/>
	<path class="st0" d="M126.8,44.3h-0.7c-2.8,0-3.9,1.2-3.9,4.2V55h4.6c3.1,0,4.3-1.5,4.3-5.4S129.9,44.3,126.8,44.3L126.8,44.3z"/>
	<path class="st0" d="M41,53.1c0,1.3,0.7,2,2.3,2h5c0.6,0,0.7-0.2,0.7-0.7v-3.2h-5.7C41.3,51.2,41,52.1,41,53.1z"/>
	<path class="st0" d="M149.8,15.4H21.4C9.6,15.4,0,24.9,0,36.8v58.2c0,3.8,4.6,5.7,7.3,3l14.1-14.1h128.4c11.8,0,21.4-9.6,21.4-21.4
		V4.3c0-3.8-4.6-5.7-7.3-3L149.8,15.4L149.8,15.4z M26.4,59.3h-4.9v7.5h-4.3V48.3c0-5.5,2.4-8.3,7.1-8.3h2.1c5.4,0,8.3,3.4,8.3,9.6
		S31.8,59.3,26.4,59.3z M53.3,55.2c0,2.6-0.7,4-4.1,4h-5.9c-4.3,0-6.5-2-6.5-6s2.2-5.7,6.6-5.7H49v-1.1c0-1-0.4-2.3-2.5-2.3h-8.6
		v-4.2h8.7c4.4,0,6.8,2.3,6.8,6.4V55.2L53.3,55.2z M68.1,44.3h-5c-1.5,0-2.1,0.6-2.1,2.1v12.9h-4.3V45.8c0-4,1.6-5.7,5.3-5.7h6V44.3
		z M81.3,44.2h-3.4v8.5c0,1.8,0.6,2.5,2.2,2.5h1.2v4h-1.9c-4.2,0-5.8-1.9-5.8-6.7v-8.3H71V40h2.5v-4.4h4.4V40h3.4
		C81.3,40,81.3,44.2,81.3,44.2z M88.8,59.3h-4.3V40.1h4.3C88.8,40.1,88.8,59.3,88.8,59.3z M88.9,37.9h-4.5v-4.5h4.5V37.9z M107,44.3
		h-6.9c-3.1,0-4.3,1.6-4.3,5.4s1.3,5.4,4.3,5.4h6.9v4.2h-7.2c-5.4,0-8.4-3.4-8.4-9.6s3-9.6,8.4-9.6h7.2C107,40.1,107,44.3,107,44.3z
		 M114.5,59.3h-4.3V40.1h4.3C114.5,40.1,114.5,59.3,114.5,59.3z M114.6,37.9h-4.5v-4.5h4.5V37.9z M127.1,59.3h-4.9v7.5h-4.3V48.3
		c0-5.5,2.4-8.3,7.1-8.3h2.1c5.4,0,8.3,3.4,8.3,9.6S132.5,59.3,127.1,59.3L127.1,59.3z M154.1,55.2c0,2.6-0.7,4-4.1,4h-5.9
		c-4.3,0-6.5-2-6.5-6s2.1-5.7,6.6-5.7h5.7v-1.1c0-1-0.4-2.3-2.6-2.3h-8.6v-4.2h8.6c4.4,0,6.8,2.3,6.8,6.4V55.2L154.1,55.2z"/>
	<path class="st0" d="M26,44.3h-0.7c-2.8,0-3.9,1.2-3.9,4.2V55H26c3.1,0,4.3-1.5,4.3-5.4S29.1,44.3,26,44.3L26,44.3z"/>
</g>
</svg>
