<svg width="177" height="69" viewBox="0 0 177 69" fill="none" xmlns="http://www.w3.org/2000/svg">
<path d="M0 0.316895V6.30467H27.9406V34.2453L13.9668 20.2715H0V40.2052H27.9406V68.1458H47.9022V54.172L33.9284 40.2122H61.869V68.1528H67.8359V0.316895H0ZM58.2624 30.6387L47.9022 20.2785H33.2391C33.2391 12.181 39.7978 5.62234 47.8952 5.62234C55.9926 5.62234 62.5513 12.181 62.5513 20.2785C62.5513 24.3237 60.9151 27.986 58.2624 30.6387Z" fill="white"/>
<path d="M81.7461 17.3192V6.55518H87.7547V8.03819H83.4937V10.7257H87.7547V12.2644H83.4937V17.3262H81.7461V17.3192Z" fill="white"/>
<path d="M96.2291 17.3193L95.0106 14.5482H90.7426L89.4963 17.3193H87.6582L92.8731 6.12354L98.0811 17.3193H96.2291ZM91.3901 13.0861H94.391L93.2839 10.6283C93.2213 10.4682 93.1516 10.2941 93.082 10.0852C93.0124 9.8833 92.9428 9.65354 92.8801 9.40289C92.8244 9.63962 92.7617 9.85545 92.6921 10.0643C92.6225 10.2732 92.5598 10.4542 92.4902 10.6283L91.3901 13.0861Z" fill="white"/>
<path d="M107.467 9.16618C106.972 8.74146 106.45 8.42815 105.9 8.21927C105.35 8.0104 104.765 7.90595 104.159 7.90595C102.983 7.90595 102.029 8.28193 101.291 9.04085C100.553 9.7928 100.184 10.7745 100.184 11.9721C100.184 13.1348 100.546 14.0956 101.263 14.8476C101.98 15.5995 102.885 15.9825 103.978 15.9825C104.619 15.9825 105.225 15.8711 105.796 15.6413C106.367 15.4116 106.924 15.0774 107.453 14.6178V16.5952C106.979 16.9363 106.471 17.187 105.914 17.3541C105.357 17.5212 104.758 17.6048 104.111 17.6048C103.289 17.6048 102.523 17.4725 101.827 17.2009C101.131 16.9294 100.511 16.5325 99.9819 16.0103C99.4597 15.4951 99.0559 14.8894 98.7704 14.1862C98.485 13.4899 98.3457 12.7449 98.3457 11.9512C98.3457 11.1575 98.485 10.4194 98.7704 9.72317C99.0489 9.02692 99.4597 8.42118 99.9958 7.89899C100.532 7.36984 101.145 6.96602 101.834 6.69448C102.523 6.42294 103.275 6.28369 104.076 6.28369C104.709 6.28369 105.308 6.3742 105.886 6.56219C106.457 6.74321 107.014 7.02171 107.557 7.39769L107.467 9.16618Z" fill="white"/>
<path d="M109.596 6.54834H111.322V13.0862C111.322 14.0539 111.545 14.785 111.998 15.2724C112.443 15.7598 113.119 16.0035 114.01 16.0035C114.894 16.0035 115.563 15.7598 116.015 15.2724C116.461 14.785 116.691 14.0539 116.691 13.0862V6.54834H118.438V13.2463C118.438 14.7015 118.069 15.7946 117.338 16.5187C116.6 17.2428 115.493 17.6048 114.01 17.6048C112.527 17.6048 111.427 17.2428 110.696 16.5256C109.965 15.8015 109.603 14.7154 109.603 13.2533V6.54834H109.596Z" fill="white"/>
<path d="M120.848 17.3192V6.55518H122.595V15.7527H126.508V17.3192H120.848Z" fill="white"/>
<path d="M130.588 8.03819V17.3192H128.84V8.03819H125.979V6.55518H133.435V8.03819H130.588Z" fill="white"/>
<path d="M140.789 17.3193L139.57 14.5482H135.302L134.049 17.3193H132.211L137.426 6.12354L142.634 17.3193H140.789ZM135.95 13.0861H138.951L137.851 10.6283C137.788 10.4682 137.718 10.2941 137.649 10.0852C137.579 9.8833 137.509 9.65354 137.44 9.40289C137.384 9.63962 137.321 9.85545 137.252 10.0643C137.182 10.2662 137.12 10.4542 137.05 10.6283L135.95 13.0861Z" fill="white"/>
<path d="M143.65 17.3192V6.55518H146.011C147.542 6.55518 148.629 6.63175 149.248 6.78493C149.875 6.93811 150.418 7.19572 150.891 7.55777C151.511 8.03122 151.985 8.64393 152.305 9.38892C152.625 10.1339 152.785 10.9833 152.785 11.9442C152.785 12.905 152.625 13.7475 152.305 14.4855C151.985 15.2235 151.511 15.8293 150.891 16.3097C150.418 16.6717 149.882 16.9293 149.283 17.0825C148.684 17.2357 147.744 17.3123 146.477 17.3123H146.004H143.65V17.3192ZM145.398 15.7318H146.867C147.675 15.7318 148.28 15.6761 148.684 15.5716C149.088 15.4672 149.443 15.2792 149.743 15.0286C150.146 14.6804 150.453 14.2488 150.662 13.7335C150.871 13.2183 150.968 12.6126 150.968 11.9302C150.968 11.2409 150.864 10.6422 150.662 10.1269C150.46 9.61172 150.153 9.18004 149.743 8.83191C149.436 8.5743 149.074 8.39328 148.649 8.28884C148.225 8.1844 147.563 8.1287 146.658 8.1287H146.025H145.391V15.7318H145.398Z" fill="white"/>
<path d="M159.344 17.3192V6.55518H161.704C163.236 6.55518 164.322 6.63175 164.942 6.78493C165.568 6.93811 166.111 7.19572 166.585 7.55777C167.204 8.03122 167.678 8.64393 167.998 9.38892C168.318 10.1339 168.479 10.9833 168.479 11.9442C168.479 12.905 168.318 13.7475 167.998 14.4855C167.678 15.2235 167.204 15.8293 166.585 16.3097C166.111 16.6717 165.575 16.9293 164.976 17.0825C164.378 17.2357 163.438 17.3123 162.171 17.3123H161.697H159.344V17.3192ZM161.091 15.7318H162.56C163.368 15.7318 163.974 15.6761 164.378 15.5716C164.781 15.4672 165.137 15.2792 165.436 15.0286C165.84 14.6804 166.146 14.2488 166.355 13.7335C166.564 13.2183 166.661 12.6126 166.661 11.9302C166.661 11.2409 166.557 10.6422 166.355 10.1269C166.153 9.61172 165.847 9.18004 165.436 8.83191C165.13 8.5743 164.768 8.39328 164.343 8.28884C163.918 8.1844 163.257 8.1287 162.352 8.1287H161.718H161.084V15.7318H161.091Z" fill="white"/>
<path d="M170.49 17.3192V6.55518H176.499V8.03819H172.238V10.7396H176.499V12.2784H172.238V15.7596H176.499V17.3262H170.49V17.3192Z" fill="white"/>
<path d="M81.7812 33.89V23.126H83.5289V33.89H81.7812Z" fill="white"/>
<path d="M86.043 33.8901V22.6943L92.8802 29.2739C93.0682 29.4619 93.2561 29.6569 93.4441 29.8727C93.6321 30.0816 93.834 30.3183 94.0499 30.5829V23.1191H95.6652V34.3078L88.6887 27.6099C88.5007 27.4289 88.3197 27.2409 88.1457 27.039C87.9716 26.837 87.8045 26.6282 87.6513 26.4054V33.8901H86.043Z" fill="white"/>
<path d="M104.11 28.3689H108.378C108.378 28.4455 108.378 28.543 108.385 28.6753C108.399 29.0234 108.406 29.2601 108.406 29.3785C108.406 30.8963 107.974 32.073 107.104 32.9085C106.234 33.744 105.015 34.1687 103.435 34.1687C102.551 34.1687 101.764 34.0364 101.075 33.7788C100.385 33.5212 99.7796 33.1243 99.2574 32.6021C98.7491 32.0799 98.3592 31.4742 98.0807 30.771C97.8092 30.0678 97.6699 29.3228 97.6699 28.5221C97.6699 27.7075 97.8092 26.9555 98.0877 26.2732C98.3662 25.5839 98.777 24.9782 99.32 24.456C99.8422 23.9408 100.462 23.5509 101.165 23.2793C101.868 23.0078 102.627 22.8755 103.428 22.8755C104.277 22.8755 105.036 23.0287 105.705 23.342C106.373 23.6483 106.972 24.1218 107.494 24.7623L106.213 25.7232C105.851 25.2984 105.44 24.9851 104.988 24.7832C104.528 24.5743 104.02 24.4769 103.456 24.4769C102.286 24.4769 101.339 24.8528 100.601 25.5978C99.8631 26.3428 99.4941 27.3176 99.4941 28.5151C99.4941 29.7336 99.8631 30.7153 100.601 31.4742C101.339 32.2331 102.3 32.6091 103.47 32.6091C104.472 32.6091 105.259 32.3793 105.83 31.9128C106.401 31.4464 106.693 30.8128 106.693 30.0051V29.8519H104.103V28.3689H104.11Z" fill="white"/>
<path d="M110.244 33.89V23.126H116.253V24.609H111.992V27.3105H116.253V28.8492H111.992V32.3304H116.253V33.897H110.244V33.89Z" fill="white"/>
<path d="M118.258 33.8901V22.6943L125.095 29.2739C125.283 29.4619 125.471 29.6569 125.659 29.8727C125.847 30.0816 126.049 30.3183 126.265 30.5829V23.1191H127.88V34.3078L120.904 27.6099C120.716 27.4289 120.535 27.2409 120.36 27.039C120.186 26.837 120.019 26.6282 119.866 26.4054V33.8901H118.258Z" fill="white"/>
<path d="M130.387 33.89V23.126H132.134V33.89H130.387Z" fill="white"/>
<path d="M134.654 33.89V23.126H140.663V24.609H136.402V27.3105H140.663V28.8492H136.402V32.3304H140.663V33.897H134.654V33.89Z" fill="white"/>
<path d="M144.305 29.072V33.89H142.662V23.126H145.106C145.823 23.126 146.38 23.1747 146.77 23.2652C147.167 23.3557 147.501 23.5159 147.78 23.7317C148.114 23.9893 148.371 24.3305 148.552 24.7413C148.733 25.1521 148.824 25.6046 148.824 26.092C148.824 26.9554 148.615 27.6307 148.197 28.1181C147.78 28.6055 147.167 28.8979 146.352 28.9954L150.056 33.897H148.079L144.5 29.0789H144.305V29.072ZM144.417 27.7073H144.73C145.656 27.7073 146.269 27.5959 146.575 27.387C146.881 27.1782 147.028 26.7883 147.028 26.2382C147.028 25.6464 146.867 25.2287 146.54 24.985C146.213 24.7413 145.607 24.6229 144.73 24.6229H144.417V27.7073Z" fill="white"/>
<path d="M150.988 22.0607L152.388 20.0625H154.045L151.9 22.0607H150.988ZM151.134 33.8901V23.126H152.882V33.8901H151.134Z" fill="white"/>
<path d="M162.511 33.8901L161.293 31.119H157.025L155.772 33.8901H153.934L159.149 22.6943L164.356 33.8901H162.511ZM157.672 29.6569H160.673L159.573 27.1991C159.511 27.039 159.441 26.8649 159.371 26.656C159.302 26.4541 159.232 26.2243 159.162 25.9737C159.107 26.2104 159.044 26.4263 158.974 26.6351C158.905 26.837 158.842 27.025 158.773 27.1991L157.672 29.6569Z" fill="white"/>
<path d="M81.4542 40.6924H82.8189V45.8516C82.8189 46.6175 82.9929 47.1954 83.348 47.5783C83.7031 47.9613 84.2323 48.1562 84.9355 48.1562C85.6387 48.1562 86.1609 47.9613 86.516 47.5783C86.8711 47.1954 87.0451 46.6175 87.0451 45.8516V40.6924H88.4237V45.9769C88.4237 47.1258 88.1313 47.9821 87.5534 48.5531C86.9755 49.124 86.0982 49.4095 84.9285 49.4095C83.7588 49.4095 82.8885 49.124 82.3106 48.56C81.7327 47.9891 81.4473 47.1327 81.4473 45.9769V40.6924H81.4542Z" fill="white"/>
<path d="M90.332 49.1867V40.6924H92.191C93.4025 40.6924 94.2519 40.755 94.7463 40.8734C95.2406 40.9918 95.6723 41.2006 96.0413 41.4861C96.5356 41.8621 96.9046 42.3425 97.1553 42.9274C97.4059 43.5122 97.5382 44.1876 97.5382 44.9395C97.5382 45.6915 97.4129 46.3599 97.1553 46.9447C96.9046 47.5296 96.5287 48.01 96.0413 48.386C95.6723 48.6714 95.2476 48.8734 94.7741 48.9987C94.3007 49.124 93.5626 49.1797 92.56 49.1797H92.191H90.332V49.1867ZM91.7106 47.9404H92.8733C93.5139 47.9404 93.9874 47.8986 94.3076 47.815C94.6279 47.7315 94.9064 47.5853 95.1431 47.3834C95.4634 47.1118 95.7071 46.7707 95.8672 46.3599C96.0274 45.9491 96.1109 45.4756 96.1109 44.9326C96.1109 44.3895 96.0274 43.916 95.8672 43.5052C95.7071 43.0945 95.4634 42.7533 95.1431 42.4818C94.9064 42.2798 94.614 42.1406 94.2798 42.0501C93.9456 41.9596 93.4234 41.9248 92.7132 41.9248H92.2119H91.7106V47.9404Z" fill="white"/>
<path d="M99.125 49.1867V40.6924H103.866V41.8621H100.511V43.9926H103.866V45.2041H100.511V47.9473H103.866V49.1797H99.125V49.1867Z" fill="white"/>
<path d="M105.447 49.1867V40.6924H106.826V47.9473H109.91V49.1797H105.447V49.1867Z" fill="white"/>
<path d="M116.643 49.1869L115.683 47.0006H112.32L111.331 49.1869H109.883L113.998 40.3584L118.106 49.1869H116.643ZM112.828 45.8518H115.195L114.325 43.9162C114.276 43.7909 114.22 43.6517 114.172 43.4915C114.116 43.3314 114.06 43.1504 114.012 42.9554C113.963 43.1434 113.914 43.3175 113.865 43.4776C113.817 43.6377 113.761 43.784 113.705 43.9232L112.828 45.8518Z" fill="white"/>
<path d="M120.193 45.3851V49.1867H118.898V40.6924H120.827C121.391 40.6924 121.83 40.7272 122.143 40.8038C122.456 40.8804 122.721 40.9987 122.944 41.1728C123.208 41.3747 123.41 41.6393 123.556 41.9665C123.703 42.2938 123.772 42.6489 123.772 43.0318C123.772 43.7141 123.605 44.2433 123.278 44.6332C122.951 45.0231 122.463 45.2459 121.823 45.3294L124.747 49.1936H123.187L120.361 45.3921H120.193V45.3851ZM120.277 44.3129H120.528C121.259 44.3129 121.746 44.2293 121.983 44.0553C122.22 43.8812 122.345 43.5818 122.345 43.1502C122.345 42.6837 122.22 42.3495 121.962 42.1615C121.704 41.9665 121.231 41.876 120.535 41.876H120.284V44.3129H120.277Z" fill="white"/>
<path d="M27.9406 68.1529H0V54.186H13.9668L27.9406 68.1529Z" fill="white"/>
</svg>
