<svg width="150" height="69" viewBox="0 0 150 69" fill="none" xmlns="http://www.w3.org/2000/svg">
<g clip-path="url(#clip0_4001_240)">
<path d="M42.82 50.94L25.29 68.47H0.5V0H42.82V50.94Z" fill="white"/>
<path d="M66.3898 20.6C66.3898 20.6 62.8898 21.35 60.5298 21.35C54.2798 21.35 52.8398 17.76 52.8398 10.71C52.8398 3.17 54.6598 0 60.5298 0C63.1298 0 66.4198 0.81 66.4198 0.81L66.2998 3.89C66.2998 3.89 62.7998 3.44 60.9998 3.44C57.3898 3.44 56.4598 5.17 56.4598 10.71C56.4598 16.25 57.1798 17.91 61.1298 17.91C62.7498 17.91 66.2998 17.43 66.2998 17.43L66.3898 20.6Z" fill="white"/>
<path d="M68.9004 0.0600586H72.3104V3.68006H68.9004V0.0600586ZM68.9004 6.10006H72.3104V21.0201H68.9004V6.10006Z" fill="white"/>
<path d="M86.5205 17.97L86.5805 20.63C86.5805 20.63 83.1705 21.35 80.5105 21.35C75.9905 21.35 74.2305 18.99 74.2305 13.73C74.2305 8.47 76.5705 5.75 80.7205 5.75C84.8705 5.75 87.0905 7.94 87.0905 12.57L86.8505 15.02H77.6705C77.7005 17.2 78.6005 18.25 81.0205 18.25C83.4405 18.25 86.5205 17.98 86.5205 17.98M83.7105 12.36C83.7105 9.76 82.8405 8.8 80.7205 8.8C78.6005 8.8 77.6705 9.88 77.6705 12.36H83.7105Z" fill="white"/>
<path d="M89.1504 21.0202V6.10023H92.5604V7.00023C92.5604 7.00023 94.6804 5.74023 96.5704 5.74023C100.73 5.74023 101.77 8.19023 101.77 13.2202V21.0202H98.3604V13.1302C98.3604 10.2902 98.0004 8.83023 95.7904 8.83023C94.1104 8.83023 92.5604 9.54023 92.5604 9.54023V21.0202H89.1504Z" fill="white"/>
<path d="M114.679 6.30998L114.559 9.26998C114.559 9.26998 112.189 8.99998 111.059 8.99998C108.009 8.99998 107.329 10.14 107.329 13.36C107.329 16.95 107.949 18.11 111.099 18.11C112.239 18.11 114.599 17.84 114.599 17.84L114.689 20.8C114.689 20.8 111.639 21.34 110.049 21.34C105.499 21.34 103.859 19.04 103.859 13.36C103.859 8.00998 105.679 5.72998 110.139 5.72998C111.749 5.72998 114.689 6.29998 114.689 6.29998" fill="white"/>
<path d="M117.02 0.0600586H120.43V3.68006H117.02V0.0600586ZM117.02 6.10006H120.43V21.0201H117.02V6.10006Z" fill="white"/>
<path d="M134.579 17.37C134.669 18.21 134.939 18.63 135.839 18.74L135.719 21.34C133.859 21.34 132.819 21.1 131.679 20.26C131.679 20.26 129.349 21.34 126.959 21.34C123.969 21.34 122.469 19.67 122.469 16.55C122.469 13.43 124.259 12.28 127.489 12.04L131.169 11.71V10.78C131.169 9.39998 130.479 8.77998 129.109 8.77998C127.079 8.77998 123.489 9.04998 123.489 9.04998L123.399 6.53998C123.399 6.53998 127.079 5.72998 129.499 5.72998C132.849 5.72998 134.579 7.28998 134.579 10.79V17.37ZM127.889 14.44C126.599 14.56 125.909 15.19 125.909 16.47C125.909 17.75 126.449 18.53 127.679 18.53C129.019 18.53 131.179 17.93 131.179 17.93V14.13L127.889 14.43V14.44Z" fill="white"/>
<path d="M148.481 9.32998C148.481 9.32998 144.891 8.84998 143.101 8.84998C141.311 8.84998 140.621 9.23998 140.621 10.37C140.621 11.3 141.251 11.54 143.731 11.92C147.681 12.55 148.991 13.59 148.991 16.55C148.991 20.05 146.721 21.34 143.041 21.34C140.921 21.34 137.451 20.68 137.451 20.68L137.571 17.78C137.571 17.78 141.191 18.26 142.711 18.26C144.801 18.26 145.581 17.84 145.581 16.64C145.581 15.68 145.101 15.41 142.711 15.03C138.881 14.4 137.211 13.57 137.211 10.46C137.211 7.04998 139.871 5.72998 142.861 5.72998C145.041 5.72998 148.541 6.41998 148.541 6.41998L148.481 9.31998V9.32998Z" fill="white"/>
<path d="M81.7412 38.7502C81.7412 43.5802 80.1812 46.6302 75.0212 46.6302C69.8612 46.6302 68.2812 43.6302 68.2812 38.7502C68.2812 33.8702 69.9512 30.9902 75.0212 30.9902C80.0912 30.9902 81.7412 33.9902 81.7412 38.7502ZM78.2613 38.7502C78.2613 35.6002 77.4512 34.1102 75.0212 34.1102C72.4712 34.1102 71.7513 35.5502 71.7513 38.7502C71.7513 41.9502 72.3512 43.5502 75.0212 43.5502C77.6912 43.5502 78.2613 41.9302 78.2613 38.7502Z" fill="white"/>
<path d="M94.1608 31.56L94.0408 34.53C94.0408 34.53 91.6708 34.26 90.5308 34.26C87.4708 34.26 86.7908 35.4 86.7908 38.64C86.7908 42.24 87.4108 43.4 90.5608 43.4C91.7008 43.4 94.0608 43.13 94.0608 43.13L94.1508 46.1C94.1508 46.1 91.0908 46.64 89.5008 46.64C84.9508 46.64 83.3008 44.33 83.3008 38.64C83.3008 33.27 85.1308 31 89.6008 31C91.2208 31 94.1508 31.57 94.1508 31.57" fill="white"/>
<path d="M96.3105 25.2998H99.7306V28.9198H96.3105V25.2998ZM96.3105 31.3498H99.7306V46.2998H96.3105V31.3498Z" fill="white"/>
<path d="M113.98 42.64C114.07 43.48 114.34 43.9 115.24 44.02L115.11 46.63C113.26 46.63 112.21 46.39 111.07 45.55C111.07 45.55 108.73 46.63 106.33 46.63C103.34 46.63 101.84 44.95 101.84 41.83C101.84 38.71 103.64 37.55 106.87 37.31L110.56 36.98V36.05C110.56 34.67 109.87 34.04 108.49 34.04C106.45 34.04 102.86 34.31 102.86 34.31L102.77 31.79C102.77 31.79 106.46 30.98 108.88 30.98C112.24 30.98 113.97 32.54 113.97 36.05V42.64H113.98ZM107.27 39.71C105.98 39.83 105.29 40.46 105.29 41.75C105.29 43.04 105.83 43.82 107.05 43.82C108.4 43.82 110.56 43.22 110.56 43.22V39.41L107.27 39.71Z" fill="white"/>
<path d="M120.43 25.1396H117.01V46.2996H120.43V25.1396Z" fill="white"/>
<path d="M134.999 43.2402L135.059 45.9102C135.059 45.9102 131.639 46.6302 128.979 46.6302C124.449 46.6302 122.689 44.2602 122.689 38.9902C122.689 33.7202 125.029 30.9902 129.189 30.9902C133.349 30.9902 135.569 33.1802 135.569 37.8202L135.329 40.2802H126.129C126.159 42.4702 127.059 43.5202 129.479 43.5202C131.899 43.5202 134.999 43.2502 134.999 43.2502M132.179 37.6202C132.179 35.0202 131.309 34.0602 129.179 34.0602C127.049 34.0602 126.119 35.1402 126.119 37.6202H132.179Z" fill="white"/>
<path d="M148.591 34.5802C148.591 34.5802 144.991 34.1002 143.191 34.1002C141.391 34.1002 140.701 34.4902 140.701 35.6302C140.701 36.5602 141.331 36.8002 143.811 37.1902C147.771 37.8202 149.091 38.8702 149.091 41.8302C149.091 45.3402 146.811 46.6302 143.131 46.6302C141.001 46.6302 137.531 45.9702 137.531 45.9702L137.651 43.0702C137.651 43.0702 141.281 43.5502 142.811 43.5502C144.911 43.5502 145.691 43.1302 145.691 41.9302C145.691 40.9702 145.211 40.7002 142.811 40.3102C138.981 39.6802 137.301 38.8402 137.301 35.7302C137.301 32.3102 139.971 30.9902 142.961 30.9902C145.151 30.9902 148.661 31.6802 148.661 31.6802L148.601 34.5802H148.591Z" fill="white"/>
<path d="M65.7506 29.12C65.7506 29.12 61.5606 28.64 59.8306 28.64C57.3806 28.64 56.1506 29.42 56.1506 31.09C56.1506 32.85 57.1706 33.3 60.6306 34.29C64.9306 35.55 66.4606 36.71 66.4606 40.33C66.4606 44.63 63.5906 46.61 59.4006 46.61C57.1306 46.61 53.0906 45.83 53.0906 45.83L53.4506 42.69C53.4506 42.69 57.2406 43.2 59.3706 43.2C61.8206 43.2 62.9306 42.42 62.9306 40.42C62.9306 38.81 62.0606 38.18 58.9806 37.4C54.5006 36.24 52.6406 34.86 52.6406 31.15C52.6406 27.2 55.3606 25.23 59.8106 25.23C62.1106 25.23 66.0006 25.98 66.0006 25.98L65.7306 29.12H65.7506Z" fill="white"/>
</g>
<defs>
<clipPath id="clip0_4001_240">
<rect width="148.6" height="68.47" fill="white" transform="translate(0.5)"/>
</clipPath>
</defs>
</svg>
