<svg width="219" height="67" viewBox="0 0 219 67" fill="none" xmlns="http://www.w3.org/2000/svg">
<g clip-path="url(#clip0_4001_200)">
<path d="M77.3298 26.193L78.556 14.7397L44.5116 9.6543L43.9766 27.3206L77.3298 26.193Z" fill="white"/>
<path d="M34.1654 47.1095L33.1621 27.6743L40.3188 27.4532L41.166 0.235107L0.5 6.22707L4.4908 47.1095H34.1654Z" fill="white"/>
<path d="M5.40625 56.5283L6.32034 65.9253L35.1477 65.9474L34.6349 56.5283H5.40625Z" fill="white"/>
<path d="M82.1665 47.1095L85.2655 29.5537L36.9746 31.1899L37.7995 47.1095H82.1665Z" fill="white"/>
<path d="M38.2891 56.5283L38.7795 65.9474L78.8436 65.9253L80.4934 56.5283H38.2891Z" fill="white"/>
<path d="M111.061 17.1719H105.777V21.4393H110.682V22.6996H105.777L105.754 28.3156H104.238V15.9116H111.061V17.1719Z" fill="white"/>
<path d="M115.832 27.232C116.656 27.232 117.415 26.7898 117.994 26.1707V24.1586C116.813 24.0039 114.204 23.9596 114.204 25.7727C114.204 26.6571 114.851 27.232 115.832 27.232ZM119.51 26.4581C119.51 27.0551 119.755 27.2983 120.157 27.2983C120.402 27.2983 120.58 27.232 120.692 27.1878L120.848 28.2712C120.625 28.3818 120.224 28.5144 119.778 28.5144C118.841 28.5144 118.373 27.8953 118.195 27.232C117.437 28.0501 116.478 28.5144 115.453 28.5144C113.847 28.5144 112.621 27.4752 112.621 25.9496C112.621 23.2521 115.698 22.8541 117.972 23.1194V22.1024C117.972 20.7315 117.415 19.9355 115.921 19.9355C114.917 19.9355 113.959 20.2672 113.491 20.4883L113.089 19.3828C113.602 19.0732 114.784 18.6089 116.099 18.6089C118.284 18.6089 119.488 19.8471 119.488 21.8812V26.5024L119.51 26.4581Z" fill="white"/>
<path d="M126.911 27.1873C127.58 27.1873 128.293 27.0325 128.962 26.7672L129.364 27.8948C128.717 28.2707 127.647 28.536 126.688 28.536C123.924 28.536 122.051 26.5682 122.051 23.6717C122.051 20.7752 123.968 18.6084 126.8 18.6084C127.736 18.6084 128.605 18.8958 129.185 19.2275L128.717 20.333C128.182 20.134 127.558 19.9571 126.733 19.9571C124.838 19.9571 123.656 21.328 123.656 23.5169C123.656 25.8164 124.882 27.2094 126.889 27.2094" fill="white"/>
<path d="M137.636 28.3375L137.48 27.1657C136.477 28.028 135.362 28.5144 134.314 28.5144C132.419 28.5144 131.416 27.3205 131.416 25.0652V18.7637H132.932V24.822C132.932 26.3697 133.556 27.1657 134.783 27.1657C135.563 27.1657 136.678 26.6792 137.346 26.0159V18.7637H138.863V28.3154H137.636V28.3375Z" fill="white"/>
<path d="M142.162 14.6954V28.3376H143.678V14.5186L142.162 14.6954Z" fill="white"/>
<path d="M148.649 18.7641H151.548V20.0023H148.716V25.5078C148.716 26.7018 149.207 27.2324 150.321 27.2324C150.678 27.2324 151.236 27.144 151.548 27.0555L151.837 28.2495C151.369 28.4043 150.589 28.5369 150.054 28.5369C148.226 28.5369 147.2 27.542 147.2 25.7731V20.0465H145.617V18.9631L147.289 18.8525L147.334 16.6857L148.649 16.5088V18.8083V18.7641Z" fill="white"/>
<path d="M156.431 27.2315C157.256 27.2315 158.014 26.7893 158.594 26.1702V24.1581C157.412 24.0034 154.804 23.9592 154.804 25.7722C154.804 26.6566 155.45 27.2315 156.431 27.2315ZM160.11 26.4576C160.11 27.0546 160.355 27.2978 160.756 27.2978C161.002 27.2978 161.18 27.2315 161.291 27.1873L161.448 28.2707C161.225 28.3813 160.823 28.5139 160.377 28.5139C159.441 28.5139 158.973 27.8948 158.794 27.2315C158.036 28.0496 157.078 28.5139 156.052 28.5139C154.447 28.5139 153.221 27.4747 153.221 25.9491C153.221 23.2516 156.297 22.8536 158.571 23.119V22.1019C158.571 20.731 158.014 19.935 156.52 19.935C155.539 19.935 154.558 20.2667 154.09 20.4878L153.689 19.3823C154.202 19.0727 155.383 18.6084 156.699 18.6084C158.884 18.6084 160.088 19.8466 160.088 21.8808V26.5019L160.11 26.4576Z" fill="white"/>
<path d="M169.541 20.4C168.939 20.0904 168.114 19.9135 167.311 19.9135C165.505 19.9135 164.279 21.417 164.279 23.4954C164.279 25.7286 165.372 27.1879 167.044 27.1879C168.047 27.1879 169.006 26.7457 169.563 26.0603V20.4H169.541ZM169.92 28.3155L169.719 27.21C168.85 28.0502 167.779 28.4924 166.732 28.4924C164.279 28.4924 162.674 26.5467 162.674 23.6281C162.674 20.7095 164.68 18.5648 167.378 18.5648C168.047 18.5648 168.872 18.7417 169.541 19.0733V14.6954L171.057 14.5186V28.3377H169.92V28.3155Z" fill="white"/>
<path d="M184.812 20.4219C184.21 20.1124 183.385 19.9355 182.583 19.9355C180.777 19.9355 179.551 21.439 179.551 23.5174C179.551 25.7506 180.643 27.2099 182.315 27.2099C183.318 27.2099 184.277 26.7677 184.834 26.0822V20.4219H184.812ZM185.191 28.3375L184.991 27.232C184.099 28.0722 183.051 28.5144 182.003 28.5144C179.551 28.5144 177.945 26.5687 177.945 23.6501C177.945 20.7094 179.952 18.5868 182.65 18.5868C183.318 18.5868 184.143 18.7636 184.834 19.0953V14.7174L186.351 14.5405V28.3596H185.236L185.191 28.3375Z" fill="white"/>
<path d="M190.52 22.81H195.224C195.291 22.5889 195.314 22.3236 195.314 21.9919C195.314 20.5769 194.466 19.8251 193.196 19.8251C191.613 19.8251 190.654 21.0191 190.542 22.81M190.542 23.8934C190.587 25.9939 191.724 27.1879 193.708 27.1879C194.556 27.1879 195.47 26.9889 196.072 26.7678L196.428 27.9176C195.782 28.205 194.645 28.5146 193.508 28.5146C190.676 28.5146 188.893 26.5246 188.893 23.6281C188.893 20.7316 190.609 18.5869 193.352 18.5869C195.559 18.5869 196.83 19.9135 196.83 22.0804C196.83 22.7879 196.651 23.5176 196.54 23.8713H190.52L190.542 23.8934Z" fill="white"/>
<path d="M106.556 34.7715H104.059V47.1976H106.556V34.7715Z" fill="white"/>
<path d="M111.173 37.6241L111.419 38.6633C112.043 38.1106 113.091 37.4473 114.362 37.4473C116.48 37.4473 117.594 38.5528 117.594 40.8965V47.198H115.097V41.2945C115.097 40.1005 114.629 39.5257 113.604 39.5257C113.002 39.5257 112.132 39.8573 111.642 40.2995V47.2201H109.145V37.6684H111.151L111.173 37.6241Z" fill="white"/>
<path d="M122.744 37.6241H125.04V39.4814H122.788V47.1759H120.291V39.4814H118.887V37.801L120.336 37.7126V36.7618C120.336 34.7277 121.607 33.3789 123.881 33.3789C124.839 33.3789 125.486 33.5779 125.91 33.7327L125.508 35.5457C125.241 35.4573 124.75 35.3467 124.215 35.3467C123.234 35.3467 122.744 35.8332 122.744 36.9166V37.6462V37.6241Z" fill="white"/>
<path d="M132.486 42.4665C132.486 40.5429 131.795 39.3047 130.301 39.3047C128.807 39.3047 128.205 40.5429 128.205 42.3559C128.205 44.2796 128.896 45.5178 130.39 45.5178C131.795 45.5178 132.486 44.2796 132.486 42.4665ZM125.619 42.4665C125.619 39.4374 127.425 37.4253 130.39 37.4253C133.355 37.4253 135.05 39.4152 135.05 42.3117C135.05 45.3188 133.244 47.3529 130.279 47.3529C127.314 47.3529 125.619 45.363 125.619 42.4665Z" fill="white"/>
<path d="M138.907 37.6241L139.242 38.8622C139.866 38.1547 141.181 37.403 142.408 37.4472V39.7467C141.36 39.7025 140.089 40.1226 139.442 40.5648V47.1758H136.945V37.6241H138.93H138.907Z" fill="white"/>
<path d="M145.886 37.6241L146.131 38.6633C146.733 38.0885 147.781 37.4473 149.029 37.4473C150.278 37.4473 151.17 37.8674 151.682 38.7076C152.597 37.9116 153.711 37.4473 154.848 37.4473C156.922 37.4473 158.014 38.5528 158.014 40.8965V47.198H155.539V41.2945C155.539 40.0784 155.094 39.5257 154.113 39.5257C153.578 39.5257 152.842 39.791 152.218 40.2774C152.218 40.4985 152.218 40.7196 152.218 40.9407V47.2201H149.743V41.3166C149.743 40.1005 149.297 39.5478 148.316 39.5478C147.736 39.5478 146.911 39.8794 146.421 40.3216V47.2422H143.924V37.6905H145.93L145.886 37.6241Z" fill="white"/>
<path d="M163.141 45.5617C163.654 45.5617 164.167 45.3406 164.591 44.9868V43.3506C163.387 43.1516 161.982 43.3506 161.982 44.4783C161.982 45.1416 162.45 45.5617 163.141 45.5617ZM166.954 44.8542C166.954 45.3185 167.155 45.4954 167.467 45.4954C167.712 45.4954 167.89 45.429 168.046 45.3848L168.247 47.1094C167.89 47.2642 167.377 47.3969 166.775 47.3969C165.973 47.3969 165.371 47.0431 165.059 46.3798C164.345 47.0431 163.476 47.3969 162.606 47.3969C160.823 47.3969 159.574 46.3356 159.574 44.7436C159.574 42.3999 161.893 41.6924 164.568 41.9798V41.0511C164.568 40.0341 164.122 39.4813 162.963 39.4813C162.004 39.4813 161.001 39.7908 160.466 40.0562L159.976 38.3094C160.622 37.9557 161.96 37.4692 163.275 37.4692C165.638 37.4692 166.932 38.6411 166.932 40.6753V44.8763L166.954 44.8542Z" fill="white"/>
<path d="M173.933 45.3407C174.78 45.3407 175.605 45.0754 175.984 44.9206L176.541 46.6895C175.939 47.0432 174.847 47.3749 173.554 47.3749C170.678 47.3749 168.85 45.4071 168.85 42.5106C168.85 39.6141 170.7 37.4473 173.71 37.4473C174.914 37.4473 175.895 37.8231 176.385 38.1106L175.873 39.9015C175.56 39.791 174.78 39.4814 173.933 39.4814C172.328 39.4814 171.458 40.5649 171.458 42.3558C171.458 44.2573 172.305 45.3407 173.933 45.3407Z" fill="white"/>
<path d="M180.666 37.6242V47.1759H178.169V37.6242H180.666ZM179.485 33.1579C180.265 33.1579 180.867 33.6664 180.867 34.5066C180.867 35.4795 180.243 36.0101 179.351 36.0101C178.571 36.0101 177.969 35.4795 177.969 34.6393C177.969 33.6664 178.593 33.1357 179.485 33.1357" fill="white"/>
<path d="M189.382 42.4666C189.382 40.543 188.691 39.3048 187.198 39.3048C185.704 39.3048 185.102 40.543 185.102 42.356C185.102 44.2796 185.793 45.5178 187.287 45.5178C188.691 45.5178 189.382 44.2796 189.382 42.4666ZM184.544 35.0817L189.07 32.7158L190.029 34.8163L185.102 36.3198L184.544 35.1038V35.0817ZM182.516 42.4887C182.516 39.4595 184.322 37.4475 187.287 37.4475C190.252 37.4475 191.946 39.4374 191.946 42.3339C191.946 45.3409 190.141 47.3751 187.175 47.3751C184.21 47.3751 182.516 45.4073 182.516 42.4887Z" fill="white"/>
<path d="M195.826 37.6241L196.071 38.6633C196.695 38.1106 197.743 37.4473 199.014 37.4473C201.132 37.4473 202.247 38.5528 202.247 40.8965V47.198H199.75V41.2945C199.75 40.1005 199.281 39.5257 198.256 39.5257C197.654 39.5257 196.784 39.8573 196.294 40.2774V47.198H193.797V37.6463H195.803L195.826 37.6241Z" fill="white"/>
<path d="M218.501 37.624L215.313 47.22C214.376 50.0059 213.061 51.0672 210.809 51.0672C209.94 51.0672 209.092 50.8019 208.758 50.6471L209.182 48.8562C209.382 48.9225 209.94 49.1215 210.698 49.1215C211.589 49.1215 212.214 48.6572 212.548 47.4632L212.08 46.4682C210.921 43.5497 209.784 40.5868 208.646 37.6461H211.389L213.596 44.3235L213.819 44.7657L215.825 37.6461H218.523L218.501 37.624Z" fill="white"/>
<path d="M109.812 53.4332C110.904 53.4332 112.108 53.7428 112.822 54.1187L112.287 55.9981C111.529 55.6885 110.748 55.5337 109.879 55.5116C107.538 55.5116 106.133 57.0373 106.133 59.6905C106.133 62.3438 107.538 64.1126 109.879 64.1126C110.771 64.1126 111.729 63.9136 112.487 63.582L113.089 65.4393C112.287 65.9036 111.016 66.2131 109.856 66.2131C105.843 66.2131 103.436 63.781 103.436 59.8453C103.436 55.9096 105.91 53.4111 109.812 53.4111" fill="white"/>
<path d="M120.826 61.3264C120.826 59.4027 120.135 58.1646 118.641 58.1646C117.147 58.1646 116.545 59.4027 116.545 61.2158C116.545 63.1394 117.236 64.3776 118.73 64.3776C120.135 64.3776 120.826 63.1394 120.826 61.3264ZM113.959 61.3264C113.959 58.2972 115.765 56.2852 118.73 56.2852C121.695 56.2852 123.39 58.2751 123.39 61.1716C123.39 64.0681 121.584 66.2128 118.619 66.2128C115.653 66.2128 113.959 64.245 113.959 61.3264Z" fill="white"/>
<path d="M127.269 56.4845L127.515 57.5237C128.117 56.9488 129.164 56.3076 130.413 56.3076C131.662 56.3076 132.553 56.7277 133.044 57.5679C133.958 56.7719 135.073 56.3076 136.21 56.3076C138.283 56.3076 139.376 57.4131 139.376 59.7569V66.0584H136.901V60.1549C136.901 58.9388 136.455 58.386 135.474 58.386C134.939 58.386 134.203 58.6513 133.579 59.1378C133.579 59.3589 133.579 59.58 133.579 59.8011V66.0805H131.104V60.177C131.104 58.9609 130.658 58.4081 129.677 58.4081C129.098 58.4081 128.273 58.7398 127.782 59.182V66.1026H125.285V56.5508H127.292L127.269 56.4845Z" fill="white"/>
<path d="M147.714 66.0363L147.469 65.0192C146.867 65.5941 145.819 66.2353 144.57 66.2353C142.497 66.2353 141.404 65.1297 141.404 62.786V56.4845H143.879V62.388C143.879 63.6041 144.325 64.1569 145.306 64.1569C145.886 64.1569 146.711 63.8252 147.201 63.383V56.4624H149.698V66.0142H147.691L147.714 66.0363Z" fill="white"/>
<path d="M154.111 56.4845L154.356 57.5237C154.98 56.9709 156.028 56.3076 157.299 56.3076C159.417 56.3076 160.532 57.4131 160.532 59.7569V66.0584H158.035V60.1549C158.035 58.9609 157.567 58.386 156.541 58.386C155.939 58.386 155.07 58.7177 154.579 59.1378V66.0584H152.082V56.5066H154.089L154.111 56.4845Z" fill="white"/>
<path d="M165.327 56.4845V66.0363H162.83V56.4845H165.327ZM164.145 52.0182C164.925 52.0182 165.527 52.5267 165.527 53.3669C165.527 54.3398 164.903 54.8705 164.011 54.8705C163.231 54.8705 162.629 54.3398 162.629 53.4996C162.629 52.5267 163.253 51.9961 164.145 51.9961" fill="white"/>
<path d="M172.238 64.2011C173.085 64.2011 173.91 63.9358 174.289 63.781L174.846 65.5498C174.244 65.9036 173.152 66.2353 171.859 66.2353C168.96 66.2353 167.154 64.2674 167.154 61.3709C167.154 58.4744 169.005 56.3076 172.015 56.3076C173.219 56.3076 174.199 56.6835 174.69 56.9709L174.155 58.7619C173.843 58.6513 173.062 58.3418 172.215 58.3418C170.61 58.3418 169.741 59.4252 169.741 61.2162C169.741 63.1177 170.588 64.2011 172.215 64.2011" fill="white"/>
<path d="M179.573 64.4001C180.086 64.4001 180.599 64.179 181.023 63.8252V62.189C179.819 61.99 178.414 62.189 178.414 63.3167C178.414 63.98 178.882 64.4001 179.596 64.4001M183.408 63.6925C183.408 64.1569 183.609 64.3337 183.921 64.3337C184.166 64.3337 184.345 64.2674 184.501 64.2232L184.701 65.9478C184.322 66.1026 183.809 66.2353 183.23 66.2353C182.427 66.2353 181.825 65.8815 181.535 65.2182C180.822 65.8815 179.952 66.2353 179.083 66.2353C177.299 66.2353 176.051 65.1739 176.051 63.582C176.051 61.2383 178.369 60.5086 181.045 60.8182V59.8895C181.045 58.8724 180.599 58.3197 179.44 58.3197C178.481 58.3197 177.478 58.6292 176.943 58.8946L176.452 57.1478C177.099 56.794 178.436 56.3076 179.752 56.3076C182.115 56.3076 183.408 57.4795 183.408 59.5136V63.7146V63.6925Z" fill="white"/>
<path d="M190.365 64.2011C191.212 64.2011 192.037 63.9358 192.416 63.781L192.973 65.5498C192.371 65.9036 191.279 66.2353 189.985 66.2353C187.087 66.2353 185.281 64.2674 185.281 61.3709C185.281 58.4744 187.132 56.3076 190.142 56.3076C191.345 56.3076 192.326 56.6835 192.817 56.9709L192.304 58.7619C191.992 58.6513 191.212 58.3418 190.365 58.3418C188.759 58.3418 187.89 59.4252 187.89 61.2162C187.89 63.1177 188.737 64.2011 190.365 64.2011Z" fill="white"/>
<path d="M197.12 56.4845V66.0363H194.623V56.4845H197.12ZM195.938 52.0182C196.718 52.0182 197.32 52.5267 197.32 53.3669C197.32 54.3398 196.696 54.8705 195.804 54.8705C195.024 54.8705 194.422 54.3398 194.422 53.4996C194.422 52.5267 195.046 51.9961 195.938 51.9961" fill="white"/>
<path d="M205.613 61.3259C205.613 59.4023 204.922 58.1641 203.428 58.1641C201.934 58.1641 201.332 59.4023 201.332 61.2154C201.332 63.139 202.023 64.3772 203.517 64.3772C204.922 64.3772 205.613 63.139 205.613 61.3259ZM200.775 53.941L205.301 51.5752L206.237 53.6757L201.31 55.1792L200.753 53.9631L200.775 53.941ZM198.746 61.3481C198.746 58.3189 200.552 56.3069 203.517 56.3069C206.482 56.3069 208.177 58.2968 208.177 61.1933C208.177 64.0898 206.371 66.2345 203.406 66.2345C200.441 66.2345 198.746 64.2667 198.746 61.3481Z" fill="white"/>
<path d="M212.056 56.4845L212.301 57.5237C212.926 56.9709 213.974 56.3076 215.244 56.3076C217.362 56.3076 218.477 57.4131 218.477 59.7569V66.0584H215.98V60.1549C215.98 58.9609 215.534 58.386 214.486 58.386C213.884 58.386 213.015 58.7177 212.524 59.1378V66.0584H210.027V56.5066H212.034L212.056 56.4845Z" fill="white"/>
</g>
<defs>
<clipPath id="clip0_4001_200">
<rect width="218" height="66" fill="white" transform="translate(0.5 0.235107)"/>
</clipPath>
</defs>
</svg>
