<svg width="56" height="56" viewBox="0 0 56 56" fill="none" xmlns="http://www.w3.org/2000/svg">
<mask id="mask0_4001_968" style="mask-type:alpha" maskUnits="userSpaceOnUse" x="0" y="0" width="56" height="56">
<rect width="56" height="56" fill="#D9D9D9"/>
</mask>
<g mask="url(#mask0_4001_968)">
<path d="M48.9994 30.3333H44.3327C43.6716 30.3333 43.1174 30.1097 42.6702 29.6625C42.223 29.2153 41.9994 28.6611 41.9994 28C41.9994 27.3389 42.223 26.7847 42.6702 26.3375C43.1174 25.8903 43.6716 25.6667 44.3327 25.6667H48.9994C49.6605 25.6667 50.2146 25.8903 50.6618 26.3375C51.1091 26.7847 51.3327 27.3389 51.3327 28C51.3327 28.6611 51.1091 29.2153 50.6618 29.6625C50.2146 30.1097 49.6605 30.3333 48.9994 30.3333ZM38.7327 39.2C39.1216 38.6556 39.6271 38.3444 40.2494 38.2667C40.8716 38.1889 41.4549 38.3444 41.9994 38.7333L45.7327 41.5333C46.2771 41.9222 46.5882 42.4278 46.666 43.05C46.7438 43.6722 46.5882 44.2556 46.1994 44.8C45.8105 45.3444 45.3049 45.6556 44.6827 45.7333C44.0605 45.8111 43.4771 45.6556 42.9327 45.2667L39.1994 42.4667C38.6549 42.0778 38.3438 41.5722 38.266 40.95C38.1882 40.3278 38.3438 39.7444 38.7327 39.2ZM45.7327 14.4667L41.9994 17.2667C41.4549 17.6556 40.8716 17.8111 40.2494 17.7333C39.6271 17.6556 39.1216 17.3444 38.7327 16.8C38.3438 16.2556 38.1882 15.6722 38.266 15.05C38.3438 14.4278 38.6549 13.9222 39.1994 13.5333L42.9327 10.7333C43.4771 10.3444 44.0605 10.1889 44.6827 10.2667C45.3049 10.3444 45.8105 10.6556 46.1994 11.2C46.5882 11.7444 46.7438 12.3278 46.666 12.95C46.5882 13.5722 46.2771 14.0778 45.7327 14.4667ZM11.666 35H9.33268C8.04935 35 6.95074 34.5431 6.03685 33.6292C5.12296 32.7153 4.66602 31.6167 4.66602 30.3333V25.6667C4.66602 24.3833 5.12296 23.2847 6.03685 22.3708C6.95074 21.4569 8.04935 21 9.33268 21H18.666L26.7744 16.1C27.5521 15.6333 28.3396 15.6333 29.1369 16.1C29.9341 16.5667 30.3327 17.2472 30.3327 18.1417V37.8583C30.3327 38.7528 29.9341 39.4333 29.1369 39.9C28.3396 40.3667 27.5521 40.3667 26.7744 39.9L18.666 35H16.3327V42C16.3327 42.6611 16.1091 43.2153 15.6618 43.6625C15.2146 44.1097 14.6605 44.3333 13.9993 44.3333C13.3382 44.3333 12.7841 44.1097 12.3368 43.6625C11.8896 43.2153 11.666 42.6611 11.666 42V35ZM32.666 35.8167V20.1833C33.716 21.1167 34.5619 22.2542 35.2035 23.5958C35.8452 24.9375 36.166 26.4056 36.166 28C36.166 29.5944 35.8452 31.0625 35.2035 32.4042C34.5619 33.7458 33.716 34.8833 32.666 35.8167Z" fill="#E25622"/>
</g>
</svg>
