<svg width="56" height="56" viewBox="0 0 56 56" fill="none" xmlns="http://www.w3.org/2000/svg">
<mask id="mask0_4001_314" style="mask-type:alpha" maskUnits="userSpaceOnUse" x="0" y="0" width="56" height="56">
<rect width="56" height="56" fill="#D9D9D9"/>
</mask>
<g mask="url(#mask0_4001_314)">
<path d="M28.0005 32.6667C26.0561 32.6667 24.4033 31.9861 23.0422 30.625C21.6811 29.2639 21.0005 27.6111 21.0005 25.6667V11.6667C21.0005 9.72223 21.6811 8.06945 23.0422 6.70834C24.4033 5.34723 26.0561 4.66667 28.0005 4.66667C29.9449 4.66667 31.5977 5.34723 32.9588 6.70834C34.3199 8.06945 35.0005 9.72223 35.0005 11.6667V25.6667C35.0005 27.6111 34.3199 29.2639 32.9588 30.625C31.5977 31.9861 29.9449 32.6667 28.0005 32.6667ZM25.6672 46.6667V41.825C22.0894 41.3195 19.0269 39.8028 16.4797 37.275C13.9324 34.7472 12.3866 31.675 11.8422 28.0583C11.7644 27.3972 11.9394 26.8333 12.3672 26.3667C12.7949 25.9 13.3394 25.6667 14.0005 25.6667C14.6616 25.6667 15.2158 25.8903 15.663 26.3375C16.1102 26.7847 16.4116 27.3389 16.5672 28C17.1116 30.7222 18.463 32.9583 20.6213 34.7083C22.7797 36.4583 25.2394 37.3333 28.0005 37.3333C30.8005 37.3333 33.2699 36.4486 35.4088 34.6792C37.5477 32.9097 38.8894 30.6833 39.4338 28C39.5894 27.3389 39.8908 26.7847 40.338 26.3375C40.7852 25.8903 41.3394 25.6667 42.0005 25.6667C42.6616 25.6667 43.2061 25.9 43.6338 26.3667C44.0616 26.8333 44.2366 27.3972 44.1588 28.0583C43.6144 31.5972 42.0783 34.65 39.5505 37.2167C37.0227 39.7833 33.9505 41.3195 30.3338 41.825V46.6667C30.3338 47.3278 30.1102 47.8819 29.663 48.3292C29.2158 48.7764 28.6616 49 28.0005 49C27.3394 49 26.7852 48.7764 26.338 48.3292C25.8908 47.8819 25.6672 47.3278 25.6672 46.6667Z" fill="#E25622"/>
</g>
</svg>
