<svg width="45" height="49" viewBox="0 0 45 49" fill="none" xmlns="http://www.w3.org/2000/svg">
<path d="M45 14.8092L45 46.1908C45 47.7428 43.7428 49 42.1915 49L10.8092 49C9.25791 49 8 47.7428 8 46.1908C8 27.3379 23.3382 12 42.1915 12C43.7428 12 45 13.2579 45 14.8092Z" fill="#E25622"/>
<path d="M37 2.80918L37 34.1908C37 35.7428 35.7428 37 34.1915 37L2.80924 37C1.25791 37 -5.49527e-08 35.7428 -1.22792e-07 34.1908C-9.4688e-07 15.3379 15.3382 -6.70453e-07 34.1915 -1.49456e-06C35.7428 -1.56237e-06 37 1.25788 37 2.80918Z" fill="#008B93"/>
</svg>
