<svg width="56" height="56" viewBox="0 0 56 56" fill="none" xmlns="http://www.w3.org/2000/svg">
<mask id="mask0_4001_16" style="mask-type:alpha" maskUnits="userSpaceOnUse" x="0" y="0" width="56" height="56">
<rect width="56" height="56" fill="#004146"/>
</mask>
<g mask="url(#mask0_4001_16)">
<path d="M23.975 28C22.8861 28 21.9917 27.5917 21.2917 26.775C20.5917 25.9583 20.3389 25.0056 20.5333 23.9167L21.2333 19.7167C21.5444 18.0444 22.3319 16.6736 23.5958 15.6042C24.8597 14.5347 26.3278 14 28 14C29.7111 14 31.1986 14.5347 32.4625 15.6042C33.7264 16.6736 34.5139 18.0444 34.825 19.7167L35.525 23.9167C35.7194 25.0056 35.4667 25.9583 34.7667 26.775C34.0667 27.5917 33.1722 28 32.0833 28H23.975ZM25.375 23.3333H30.6833L30.2167 20.475C30.1389 19.9306 29.8861 19.4931 29.4583 19.1625C29.0306 18.8319 28.5444 18.6667 28 18.6667C27.4556 18.6667 26.9792 18.8319 26.5708 19.1625C26.1625 19.4931 25.9194 19.9306 25.8417 20.475L25.375 23.3333ZM7.23333 30.275C6.33889 30.3139 5.57083 30.1389 4.92917 29.75C4.2875 29.3611 3.86944 28.7583 3.675 27.9417C3.59722 27.5917 3.57778 27.2417 3.61667 26.8917C3.65556 26.5417 3.75278 26.2111 3.90833 25.9C3.90833 25.9389 3.88889 25.8611 3.85 25.6667C3.77222 25.5889 3.57778 25.1222 3.26667 24.2667C3.18889 23.8 3.24722 23.3528 3.44167 22.925C3.63611 22.4972 3.88889 22.1278 4.2 21.8167L4.31667 21.7C4.39444 20.9611 4.69583 20.3389 5.22083 19.8333C5.74583 19.3278 6.39722 19.075 7.175 19.075C7.29167 19.075 7.66111 19.1528 8.28333 19.3083L8.45833 19.25C8.65278 19.0556 8.90556 18.9097 9.21667 18.8125C9.52778 18.7153 9.85833 18.6667 10.2083 18.6667C10.6361 18.6667 11.0153 18.7347 11.3458 18.8708C11.6764 19.0069 11.9389 19.2111 12.1333 19.4833C12.1722 19.4833 12.2014 19.4931 12.2208 19.5125C12.2403 19.5319 12.2694 19.5417 12.3083 19.5417C12.8528 19.5806 13.3292 19.7458 13.7375 20.0375C14.1458 20.3292 14.4472 20.7278 14.6417 21.2333C14.7194 21.5056 14.7486 21.7681 14.7292 22.0208C14.7097 22.2736 14.6611 22.5167 14.5833 22.75C14.5833 22.7889 14.6028 22.8667 14.6417 22.9833C14.9139 23.2556 15.1278 23.5569 15.2833 23.8875C15.4389 24.2181 15.5167 24.5583 15.5167 24.9083C15.5167 25.0639 15.4 25.4722 15.1667 26.1333C15.1278 26.2111 15.1278 26.2889 15.1667 26.3667L15.2833 27.3C15.2833 28.1167 14.9431 28.8167 14.2625 29.4C13.5819 29.9833 12.7556 30.275 11.7833 30.275H7.23333ZM46.6667 30.3333C45.3833 30.3333 44.2847 29.8764 43.3708 28.9625C42.4569 28.0486 42 26.95 42 25.6667C42 25.2 42.0681 24.7625 42.2042 24.3542C42.3403 23.9458 42.525 23.5472 42.7583 23.1583L41.125 21.7C40.7361 21.3889 40.6681 21 40.9208 20.5333C41.1736 20.0667 41.5333 19.8333 42 19.8333H46.6667C47.95 19.8333 49.0486 20.2903 49.9625 21.2042C50.8764 22.1181 51.3333 23.2167 51.3333 24.5V25.6667C51.3333 26.95 50.8764 28.0486 49.9625 28.9625C49.0486 29.8764 47.95 30.3333 46.6667 30.3333ZM0 39.6667V38.325C0 36.6139 0.865278 35.2431 2.59583 34.2125C4.32639 33.1819 6.57222 32.6667 9.33333 32.6667C9.83889 32.6667 10.325 32.6764 10.7917 32.6958C11.2583 32.7153 11.7056 32.7639 12.1333 32.8417C11.5889 33.6194 11.1806 34.4556 10.9083 35.35C10.6361 36.2444 10.5 37.1972 10.5 38.2083V42H2.33333C1.67222 42 1.11806 41.7764 0.670833 41.3292C0.223611 40.8819 0 40.3278 0 39.6667ZM14 39.6667V38.2083C14 35.6806 15.2931 33.6389 17.8792 32.0833C20.4653 30.5278 23.8389 29.75 28 29.75C32.2 29.75 35.5833 30.5278 38.15 32.0833C40.7167 33.6389 42 35.6806 42 38.2083V39.6667C42 40.3278 41.7764 40.8819 41.3292 41.3292C40.8819 41.7764 40.3278 42 39.6667 42H16.3333C15.6722 42 15.1181 41.7764 14.6708 41.3292C14.2236 40.8819 14 40.3278 14 39.6667ZM46.6667 32.6667C49.4667 32.6667 51.7222 33.1819 53.4333 34.2125C55.1444 35.2431 56 36.6139 56 38.325V39.6667C56 40.3278 55.7764 40.8819 55.3292 41.3292C54.8819 41.7764 54.3278 42 53.6667 42H45.5V38.2083C45.5 37.1972 45.3736 36.2444 45.1208 35.35C44.8681 34.4556 44.4889 33.6194 43.9833 32.8417C44.4111 32.7639 44.8486 32.7153 45.2958 32.6958C45.7431 32.6764 46.2 32.6667 46.6667 32.6667ZM25.375 23.3333L25.8417 20.475C25.9194 19.9306 26.1625 19.4931 26.5708 19.1625C26.9792 18.8319 27.4556 18.6667 28 18.6667C28.5444 18.6667 29.0306 18.8319 29.4583 19.1625C29.8861 19.4931 30.1389 19.9306 30.2167 20.475L30.6833 23.3333H25.375Z" fill="#E25622"/>
</g>
</svg>
