<svg width="59" height="38" viewBox="0 0 59 38" fill="none" xmlns="http://www.w3.org/2000/svg">
	<path d="M48.8672 20.287C48.8672 20.7796 49.1187 21.0092 49.6596 21.0092H51.3824C51.596 21.0092 51.6304 20.9388 51.6304 20.7685V19.5908H49.6838C48.9637 19.5908 48.8672 19.9426 48.8672 20.287Z" fill="#004146" />
	<path d="M43.6756 17.0234H43.4482C42.4731 17.0234 42.1113 17.4495 42.1113 18.5942V21.0097H43.679C44.7402 21.0097 45.1743 20.4355 45.1743 19.024C45.1743 17.6125 44.7402 17.0234 43.679 17.0234H43.6756Z" fill="#004146" />
	<path d="M14.1367 20.2869C14.1367 20.7795 14.3882 21.0091 14.9292 21.0091H16.6519C16.8655 21.0091 16.9 20.9387 16.9 20.7684V19.5907H14.9533C14.2332 19.5907 14.1367 19.9425 14.1367 20.2869Z" fill="#004146" />
	<path d="M51.6233 6.31329H7.37328C3.30075 6.31329 0 9.86239 0 14.2413V35.7879C0 37.1994 1.58836 37.907 2.51863 36.9104L7.37672 31.6868H51.6267C55.6992 31.6868 59 28.1377 59 23.7587V2.21218C59 0.800688 57.4116 0.0930901 56.4814 1.08966L51.6233 6.31329ZM9.09601 22.5806H7.3974V25.3443H5.90207V18.5277C5.90207 16.4975 6.72898 15.4676 8.35868 15.4676H9.09601C10.9462 15.4676 11.9661 16.7309 11.9661 19.0241C11.9661 21.3173 10.9462 22.5806 9.09601 22.5806ZM18.3677 21.0839C18.3677 22.0546 18.1403 22.5806 16.9413 22.5806H14.9154C13.4201 22.5806 12.6621 21.836 12.6621 20.3689C12.6621 18.9019 13.4028 18.2758 14.9257 18.2758H16.8965V17.8683C16.8965 17.4867 16.7449 17.031 16.0179 17.031H13.0514V15.475H16.0317C17.5374 15.475 18.3677 16.3197 18.3677 17.8571V21.0913V21.0839ZM23.4498 17.0236H21.7443C21.2412 17.0236 21.0242 17.2533 21.0242 17.7979V22.5806H19.5288V17.5904C19.5288 16.1048 20.0801 15.4676 21.3687 15.4676H23.4498V17.0236ZM28.0116 16.9976H26.8332V20.1429C26.8332 20.8283 27.0227 21.0617 27.5878 21.0617H27.9874V22.551H27.3225C25.8857 22.551 25.3241 21.8545 25.3241 20.0651V16.9976H24.4524V15.4417H25.3241V13.8116H26.8332V15.4417H28.0116V16.9976ZM30.606 22.5769H29.1107V15.4676H30.606V22.5769ZM30.637 14.6748H29.0762V12.9966H30.637V14.6748ZM36.8836 17.0236H34.5131C33.4519 17.0236 33.0178 17.6015 33.0178 19.0241C33.0178 20.4467 33.4519 21.0098 34.5131 21.0098H36.8836V22.5806H34.3925C32.5354 22.5806 31.5087 21.3173 31.5087 19.0241C31.5087 16.7309 32.532 15.4676 34.3925 15.4676H36.8836V17.0236ZM39.4677 22.5806H37.9724V15.4713H39.4677V22.5806ZM39.4987 14.6785H37.9379V13.0003H39.4987V14.6785ZM43.8055 22.5806H42.1069V25.3443H40.6116V18.5277C40.6116 16.4975 41.4385 15.4676 43.0682 15.4676H43.8055C45.6557 15.4676 46.6756 16.7309 46.6756 19.0241C46.6756 21.3173 45.6557 22.5806 43.8055 22.5806ZM53.0945 21.0839C53.0945 22.0546 52.8671 22.5806 51.6681 22.5806H49.6421C48.1468 22.5806 47.3888 21.836 47.3888 20.3689C47.3888 18.9019 48.1296 18.2758 49.6525 18.2758H51.6233V17.8683C51.6233 17.4867 51.4717 17.031 50.7447 17.031H47.7781V15.475H50.7585C52.2641 15.475 53.0945 16.3197 53.0945 17.8571V21.0913V21.0839Z" fill="#004146" />
	<path d="M8.96267 17.0234H8.73527C7.76021 17.0234 7.39844 17.4495 7.39844 18.5942V21.0097H8.96612C10.0273 21.0097 10.4614 20.4355 10.4614 19.024C10.4614 17.6125 10.0273 17.0234 8.96612 17.0234H8.96267Z" fill="#004146" />
</svg>
