<svg width="24" height="24" viewBox="0 0 24 24" fill="none" xmlns="http://www.w3.org/2000/svg">
<g clip-path="url(#clip0_4020_1714)">
<path fill-rule="evenodd" clip-rule="evenodd" d="M0.303529 23.2943H5.44659V8.05288H0.303529V23.2943ZM2.90824 0.706055C1.14918 0.706055 0 1.84394 0 3.339C0 4.80441 1.11812 5.97194 2.84188 5.97194H2.87718C4.67012 5.97194 5.78541 4.80441 5.78541 3.339C5.75294 1.84253 4.67012 0.706055 2.90824 0.706055ZM24 14.5526V23.2943H18.8541V15.1385C18.8541 13.0915 18.1115 11.6938 16.2466 11.6938C14.8249 11.6938 13.9835 12.6355 13.6066 13.5475C13.4725 13.8722 13.4372 14.3282 13.4372 14.7813V23.2943H8.29412C8.29412 23.2943 8.36471 9.48441 8.29412 8.05288H13.44V10.2129C13.4301 10.2298 13.4146 10.2453 13.4047 10.2637H13.44V10.2115C14.1247 9.17523 15.3431 7.6957 18.0762 7.6957C21.4588 7.6957 24 9.87264 24 14.5526Z" fill="white"/>
</g>
<defs>
<clipPath id="clip0_4020_1714">
<rect width="24" height="24" fill="white"/>
</clipPath>
</defs>
</svg>
