<svg width="24" height="24" viewBox="0 0 24 24" fill="none" xmlns="http://www.w3.org/2000/svg">
<g clip-path="url(#clip0_4020_1720)">
<path fill-rule="evenodd" clip-rule="evenodd" d="M21.4008 17.376C21.4008 19.856 19.4808 21.8697 17.122 21.8697H6.87969C4.52084 21.8697 2.60084 19.856 2.60084 17.376V6.62171C2.60084 4.144 4.52084 2.13029 6.87969 2.13029H17.122C19.4808 2.13029 21.4008 4.144 21.4008 6.62171V17.376ZM17.122 0H6.87969C3.40084 0 0.572266 2.97029 0.572266 6.62171V17.376C0.572266 21.0297 3.40084 24 6.88084 24H17.1208C20.6008 24 23.4294 21.0297 23.4294 17.376V6.62171C23.4294 2.97029 20.6008 0 17.1208 0H17.122Z" fill="white"/>
<path fill-rule="evenodd" clip-rule="evenodd" d="M12.0017 17.0641C10.81 17.0632 9.66746 16.5895 8.82474 15.747C7.98202 14.9045 7.50803 13.7621 7.50682 12.5704C7.50772 11.3784 7.98151 10.2354 8.82419 9.39228C9.66688 8.54916 10.8096 8.0748 12.0017 8.07328C13.1938 8.07449 14.3367 8.54876 15.1795 9.39194C16.0222 10.2351 16.4959 11.3783 16.4965 12.5704C16.495 13.7619 16.0209 14.904 15.1782 15.7463C14.3355 16.5885 13.1931 17.0632 12.0017 17.0641ZM12.0017 5.71443C8.2211 5.71443 5.14453 8.78871 5.14453 12.5704C5.14665 14.3885 5.86974 16.1315 7.15521 17.4172C8.44068 18.7029 10.1836 19.4263 12.0017 19.4287C15.7822 19.4287 18.8588 16.3499 18.8588 12.5704C18.8567 10.7526 18.1335 9.00976 16.848 7.72444C15.5625 6.43911 13.8195 5.71624 12.0017 5.71443ZM17.1457 3.42871C16.6954 3.42871 16.2508 3.60928 15.9342 3.92928C15.6165 4.24928 15.4302 4.69043 15.4302 5.14071C15.4302 5.59214 15.6165 6.03443 15.9331 6.35443C16.2508 6.671 16.6954 6.85728 17.1457 6.85728C17.5971 6.85728 18.0382 6.671 18.356 6.35443C18.676 6.03443 18.8588 5.59214 18.8588 5.14185C18.859 4.91684 18.8148 4.694 18.7287 4.48608C18.6427 4.27817 18.5165 4.08925 18.3574 3.93014C18.1983 3.77103 18.0094 3.64485 17.8014 3.55881C17.5935 3.47277 17.3707 3.42856 17.1457 3.42871Z" fill="white"/>
</g>
<defs>
<clipPath id="clip0_4020_1720">
<rect width="24" height="24" fill="white"/>
</clipPath>
</defs>
</svg>
