<svg width="48" height="48" viewBox="0 0 48 48" fill="none" xmlns="http://www.w3.org/2000/svg">
	<mask id="mask0_2032_336" style="mask-type:alpha" maskUnits="userSpaceOnUse" x="0" y="0" width="48" height="48">
		<rect width="48" height="48" fill="#D9D9D9" />
	</mask>
	<g mask="url(#mask0_2032_336)">
		<path d="M8.5 35.269C8.075 35.269 7.71883 35.1251 7.4315 34.8375C7.14383 34.5501 7 34.1938 7 33.7685C7 33.3435 7.14383 32.9873 7.4315 32.7C7.71883 32.413 8.075 32.2695 8.5 32.2695H39.5C39.925 32.2695 40.2812 32.4131 40.5685 32.7005C40.8562 32.9881 41 33.3446 41 33.77C41 34.195 40.8562 34.5511 40.5685 34.8385C40.2812 35.1255 39.925 35.269 39.5 35.269H8.5ZM8.5 25.5C8.075 25.5 7.71883 25.3561 7.4315 25.0685C7.14383 24.7808 7 24.4245 7 23.9995C7 23.5741 7.14383 23.218 7.4315 22.931C7.71883 22.6436 8.075 22.5 8.5 22.5H39.5C39.925 22.5 40.2812 22.6438 40.5685 22.9315C40.8562 23.2191 41 23.5755 41 24.0005C41 24.4258 40.8562 24.782 40.5685 25.069C40.2812 25.3563 39.925 25.5 39.5 25.5H8.5ZM8.5 15.7305C8.075 15.7305 7.71883 15.5868 7.4315 15.2995C7.14383 15.0118 7 14.6553 7 14.23C7 13.805 7.14383 13.4488 7.4315 13.1615C7.71883 12.8745 8.075 12.731 8.5 12.731H39.5C39.925 12.731 40.2812 12.8748 40.5685 13.1625C40.8562 13.4498 41 13.8061 41 14.2315C41 14.6565 40.8562 15.0126 40.5685 15.3C40.2812 15.587 39.925 15.7305 39.5 15.7305H8.5Z" fill="#004146" />
	</g>
</svg>
