<svg width="552" height="518" viewBox="0 0 552 518" fill="none" xmlns="http://www.w3.org/2000/svg">
	<path d="M203.913 176.199L348.089 176.199C353.309 176.199 358.013 179.277 360.012 183.994C362.007 188.714 360.907 194.144 357.215 197.754L213.039 338.831C210.572 341.248 207.27 342.53 203.91 342.53C202.251 342.53 200.573 342.216 198.977 341.571C194.153 339.615 191.007 335.009 191.007 329.901L191.007 188.828C191.007 185.479 192.368 182.266 194.788 179.898C197.207 177.53 200.488 176.199 203.913 176.199Z" fill="#008B93" />
	<path d="M156.236 516.172L12.8355 516.172C7.64397 516.172 2.96488 513.043 0.97702 508.249C-1.00771 503.451 0.0863577 497.931 3.75889 494.262L147.16 350.86C149.613 348.403 152.898 347.099 156.239 347.099C157.89 347.099 159.559 347.418 161.146 348.075C165.944 350.062 169.073 354.745 169.073 359.936L169.073 503.335C169.073 506.739 167.72 510.005 165.313 512.412C162.906 514.819 159.643 516.172 156.236 516.172Z" fill="#008B93" />
	<path d="M395.764 167.974L539.163 167.974C546.255 167.974 552 162.291 552 155.279L552 13.4267C552 6.41444 546.255 0.728515 539.163 0.728515C453.014 0.728507 382.927 70.0592 382.927 155.279C382.927 162.291 388.675 167.974 395.764 167.974Z" fill="#008B93" />
	<path d="M203.913 350.755L348.088 350.755C355.218 350.755 360.994 356.437 360.994 363.45L360.994 505.302C360.994 512.314 355.218 518 348.088 518C261.473 518 191.007 448.669 191.007 363.45C191.007 356.437 196.786 350.755 203.913 350.755Z" fill="#CADFE1" />
	<path d="M12.8359 167.974L156.236 167.974C163.327 167.974 169.072 162.291 169.072 155.275L169.072 13.4265C169.072 6.4112 163.327 0.728515 156.236 0.728515L12.836 0.728502C5.74724 0.728501 -0.000565072 6.41118 -0.000565685 13.4265L-0.000578086 155.275C-0.000578699 162.291 5.74722 167.974 12.8359 167.974Z" fill="#008B93" />
	<path d="M395.764 350.755L539.163 350.755C546.255 350.755 552 356.438 552 363.453L552 505.302C552 512.317 546.255 518 539.163 518L395.764 518C388.675 518 382.927 512.317 382.927 505.302L382.927 363.453C382.927 356.438 388.675 350.755 395.764 350.755Z" fill="#008B93" />
	<path d="M84.5327 344.358C131.147 344.358 169.072 306.844 169.072 260.735C169.072 214.623 131.147 177.113 84.5358 177.113C37.9215 177.113 -0.000567854 214.623 -0.000571886 260.735C-0.000575917 306.844 37.9216 344.358 84.5327 344.358Z" fill="#CADFE1" />
	<path d="M275.998 0.728478C322.864 0.728482 360.994 38.242 360.994 84.351C360.994 130.463 322.864 167.974 276.001 167.974C229.134 167.973 191.007 130.463 191.007 84.351C191.007 38.242 229.135 0.728474 275.998 0.728478Z" fill="#CADFE1" />
	<path d="M467.46 176.199C514.075 176.199 552 213.507 552 259.364C552 305.225 514.075 342.53 467.463 342.53C420.849 342.53 382.927 305.225 382.927 259.364C382.927 213.507 420.849 176.199 467.46 176.199Z" fill="#CADFE1" />
</svg>
