<?xml version="1.0" encoding="UTF-8" standalone="no"?>
<!-- Generator: Adobe Illustrator 17.0.0, SVG Export Plug-In . SVG Version: 6.00 Build 0) -->
<svg xmlns:dc="http://purl.org/dc/elements/1.1/" xmlns:cc="http://creativecommons.org/ns#" xmlns:rdf="http://www.w3.org/1999/02/22-rdf-syntax-ns#" xmlns:svg="http://www.w3.org/2000/svg" xmlns="http://www.w3.org/2000/svg" xmlns:sodipodi="http://sodipodi.sourceforge.net/DTD/sodipodi-0.dtd" xmlns:inkscape="http://www.inkscape.org/namespaces/inkscape" version="1.1" id="Capa_1" x="0px" y="0px" width="650.76703" height="218.64999" viewBox="0 0 650.76702 218.64999" enable-background="new 0 0 841.89 595.276" xml:space="preserve" inkscape:version="0.91 r13725" sodipodi:docname="04_-_Udelar_-_isologotipo_versión_preferencial_-_positiva_-_rgb_web.svg">
	<metadata id="metadata249">
		<RDF>
			<Work rdf:about="">
				<format>
					image/svg+xml
				</format>
				<type rdf:resource="http://purl.org/dc/dcmitype/StillImage" />
				<title>
				</title>
			</Work>
		</RDF>
	</metadata>
	<defs id="defs247" />
	<namedview pagecolor="#ffffff" bordercolor="#666666" borderopacity="1" objecttolerance="10" gridtolerance="10" guidetolerance="10" inkscape:pageopacity="0" inkscape:pageshadow="2" inkscape:window-width="1280" inkscape:window-height="657" id="namedview245" showgrid="false" fit-margin-top="0" fit-margin-left="0" fit-margin-right="0" fit-margin-bottom="0" inkscape:zoom="0.79290951" inkscape:cx="281.04478" inkscape:cy="109.798" inkscape:window-x="-8" inkscape:window-y="-8" inkscape:window-maximized="1" inkscape:current-layer="Capa_1" />
	<path d="m 269.925,35.98 0,21.771 c 0,3.105 0.505,5.376 1.521,6.809 1.515,2.077 3.647,3.112 6.396,3.112 2.763,0 4.902,-1.035 6.418,-3.112 1.014,-1.388 1.521,-3.659 1.521,-6.809 l 0,-21.771 5.458,0 0,23.284 c 0,3.811 -1.187,6.951 -3.561,9.416 -2.671,2.749 -5.949,4.123 -9.837,4.123 -3.889,0 -7.161,-1.374 -9.816,-4.123 -2.373,-2.465 -3.561,-5.605 -3.561,-9.416 l 0,-23.284 5.461,0 z" id="path3" inkscape:connector-curvature="0" style="fill:#FFFFFF" />
	<path d="m 300.626,72.15 0,-38.627 26.376,27.594 0,-25.136 5.458,0 0,38.371 -26.376,-27.525 0,25.324 -5.458,0 z" id="path5" inkscape:connector-curvature="0" style="fill:#FFFFFF" />
	<path d="m 347.306,35.98 0,36.169 -5.458,0 0,-36.169 5.458,0 z" id="path7" inkscape:connector-curvature="0" style="fill:#FFFFFF" />
	<path d="m 358.541,35.98 10.003,25.067 10.141,-25.067 5.973,0 -16.233,38.887 -15.859,-38.887 5.975,0 z" id="path9" inkscape:connector-curvature="0" style="fill:#FFFFFF" />
	<path d="m 409.835,41.111 -14.5,0 0,8.693 14.078,0 0,5.131 -14.078,0 0,12.085 14.5,0 0,5.131 -19.957,0 0,-36.169 19.957,0 0,5.129 z" id="path11" inkscape:connector-curvature="0" style="fill:#FFFFFF" />
	<path d="m 429.973,56.737 11.197,15.412 -6.676,0 -10.33,-14.806 -0.983,0 0,14.806 -5.458,0 0,-36.169 6.394,0 c 4.779,0 8.231,0.9 10.354,2.697 2.342,1.997 3.514,4.635 3.514,7.917 0,2.562 -0.736,4.763 -2.204,6.605 -1.467,1.842 -3.402,3.023 -5.808,3.538 z m -6.793,-4.147 1.733,0 c 5.168,0 7.755,-1.977 7.755,-5.927 0,-3.701 -2.515,-5.553 -7.543,-5.553 l -1.944,0 0,11.48 z" id="path13" inkscape:connector-curvature="0" style="fill:#FFFFFF" />
	<path d="m 467.774,41.346 -4.428,2.624 c -0.827,-1.437 -1.617,-2.375 -2.366,-2.811 -0.781,-0.499 -1.788,-0.751 -3.02,-0.751 -1.516,0 -2.773,0.433 -3.772,1.291 -1.001,0.845 -1.499,1.907 -1.499,3.188 0,1.766 1.31,3.188 3.934,4.265 l 3.607,1.478 c 2.936,1.188 5.084,2.635 6.443,4.348 1.359,1.71 2.037,3.808 2.037,6.293 0,3.327 -1.109,6.079 -3.327,8.25 -2.233,2.188 -5.004,3.282 -8.315,3.282 -3.138,0 -5.731,-0.931 -7.777,-2.801 -2.013,-1.862 -3.271,-4.483 -3.77,-7.855 l 5.527,-1.219 c 0.251,2.122 0.687,3.59 1.312,4.404 1.125,1.561 2.764,2.34 4.919,2.34 1.702,0 3.116,-0.568 4.241,-1.707 1.123,-1.139 1.686,-2.583 1.686,-4.331 0,-0.703 -0.099,-1.347 -0.293,-1.932 -0.195,-0.585 -0.5,-1.122 -0.914,-1.613 -0.414,-0.492 -0.949,-0.952 -1.605,-1.381 -0.656,-0.429 -1.437,-0.841 -2.342,-1.229 l -3.491,-1.454 c -4.951,-2.091 -7.426,-5.148 -7.426,-9.174 0,-2.714 1.039,-4.985 3.116,-6.813 2.077,-1.842 4.661,-2.763 7.755,-2.763 4.169,0.002 7.426,2.028 9.768,6.071 z" id="path15" inkscape:connector-curvature="0" style="fill:#FFFFFF" />
	<path d="m 481.471,35.98 0,36.169 -5.458,0 0,-36.169 5.458,0 z" id="path17" inkscape:connector-curvature="0" style="fill:#FFFFFF" />
	<path d="m 490.882,72.15 0,-36.169 7.588,0 c 3.638,0 6.512,0.36 8.62,1.08 2.264,0.703 4.319,1.897 6.162,3.583 3.732,3.403 5.598,7.879 5.598,13.421 0,5.56 -1.944,10.057 -5.833,13.494 -1.953,1.717 -3.997,2.911 -6.136,3.583 -1.999,0.672 -4.835,1.007 -8.504,1.007 l -7.495,0 z m 5.458,-5.131 2.46,0 c 2.451,0 4.488,-0.256 6.114,-0.772 1.624,-0.547 3.092,-1.412 4.404,-2.6 2.686,-2.454 4.03,-5.646 4.03,-9.582 0,-3.967 -1.328,-7.183 -3.983,-9.652 -2.389,-2.202 -5.911,-3.303 -10.564,-3.303 l -2.46,0 0,25.909 z" id="path19" inkscape:connector-curvature="0" style="fill:#FFFFFF" />
	<path d="m 545.897,63.363 -15.483,0 -4.03,8.786 -5.88,0 17.896,-38.44 17.264,38.44 -5.973,0 -3.794,-8.786 z m -2.226,-5.127 -5.364,-12.3 -5.622,12.3 10.986,0 z" id="path21" inkscape:connector-curvature="0" style="fill:#FFFFFF" />
	<path d="m 560.908,72.15 0,-36.169 7.588,0 c 3.638,0 6.512,0.36 8.62,1.08 2.264,0.703 4.319,1.897 6.162,3.583 3.732,3.403 5.598,7.879 5.598,13.421 0,5.56 -1.944,10.057 -5.833,13.494 -1.953,1.717 -3.997,2.911 -6.136,3.583 -1.999,0.672 -4.834,1.007 -8.504,1.007 l -7.495,0 z m 5.458,-5.131 2.46,0 c 2.451,0 4.488,-0.256 6.114,-0.772 1.624,-0.547 3.091,-1.412 4.404,-2.6 2.686,-2.454 4.03,-5.646 4.03,-9.582 0,-3.967 -1.328,-7.183 -3.983,-9.652 -2.389,-2.202 -5.911,-3.303 -10.564,-3.303 l -2.46,0 0,25.909 z" id="path23" inkscape:connector-curvature="0" style="fill:#FFFFFF" />
	<path d="m 264.466,126.521 0,-36.169 7.59,0 c 3.639,0 6.512,0.36 8.62,1.077 2.264,0.703 4.319,1.897 6.16,3.583 3.732,3.406 5.598,7.879 5.598,13.422 0,5.563 -1.944,10.06 -5.833,13.498 -1.951,1.717 -3.997,2.911 -6.136,3.583 -1.999,0.672 -4.835,1.007 -8.504,1.007 l -7.495,0 z m 5.459,-5.13 2.458,0 c 2.451,0 4.49,-0.26 6.114,-0.772 1.624,-0.547 3.092,-1.416 4.404,-2.6 2.686,-2.455 4.03,-5.646 4.03,-9.586 0,-3.964 -1.326,-7.183 -3.981,-9.648 -2.39,-2.202 -5.913,-3.303 -10.565,-3.303 l -2.458,0 0,25.909 z" id="path25" inkscape:connector-curvature="0" style="fill:#FFFFFF" />
	<path d="m 319.256,95.482 -14.5,0 0,8.689 14.077,0 0,5.13 -14.077,0 0,12.089 14.5,0 0,5.13 -19.957,0 0,-36.169 19.957,0 0,5.131 z" id="path27" inkscape:connector-curvature="0" style="fill:#FFFFFF" />
	<path d="m 342.457,90.352 0,31.039 10.635,0 0,5.13 -16.092,0 0,-36.169 5.457,0 z" id="path29" inkscape:connector-curvature="0" style="fill:#FFFFFF" />
	<path d="m 381.529,117.735 -15.483,0 -4.03,8.786 -5.88,0 17.896,-38.444 17.264,38.444 -5.973,0 -3.794,-8.786 z m -2.225,-5.13 -5.364,-12.3 -5.622,12.3 10.986,0 z" id="path31" inkscape:connector-curvature="0" style="fill:#FFFFFF" />
	<path d="m 416.382,111.106 11.197,15.415 -6.676,0 -10.33,-14.806 -0.983,0 0,14.806 -5.458,0 0,-36.169 6.394,0 c 4.779,0 8.231,0.897 10.354,2.693 2.342,1.998 3.514,4.639 3.514,7.917 0,2.562 -0.736,4.763 -2.204,6.605 -1.467,1.842 -3.402,3.023 -5.808,3.539 z m -6.792,-4.148 1.733,0 c 5.168,0 7.755,-1.973 7.755,-5.927 0,-3.701 -2.515,-5.549 -7.543,-5.549 l -1.944,0 0,11.476 z" id="path33" inkscape:connector-curvature="0" style="fill:#FFFFFF" />
	<path d="m 452.972,95.482 -14.5,0 0,8.689 14.078,0 0,5.13 -14.078,0 0,12.089 14.5,0 0,5.13 -19.958,0 0,-36.169 19.958,0 0,5.131 z" id="path35" inkscape:connector-curvature="0" style="fill:#FFFFFF" />
	<path d="m 465.597,111.833 0,14.689 -5.458,0 0,-36.169 6.183,0 c 3.029,0 5.317,0.211 6.863,0.63 1.563,0.422 2.937,1.219 4.123,2.392 2.077,2.029 3.116,4.59 3.116,7.682 0,3.31 -1.11,5.934 -3.327,7.872 -2.217,1.939 -5.208,2.904 -8.971,2.904 l -2.529,0 z m 0,-5.062 2.037,0 c 5.013,0 7.519,-1.928 7.519,-5.785 0,-3.732 -2.584,-5.601 -7.753,-5.601 l -1.804,0 0,11.386 z" id="path37" inkscape:connector-curvature="0" style="fill:#FFFFFF" />
	<path d="m 491.506,90.352 0,21.768 c 0,3.109 0.507,5.376 1.521,6.813 1.515,2.077 3.647,3.112 6.396,3.112 2.764,0 4.904,-1.035 6.418,-3.112 1.014,-1.388 1.523,-3.659 1.523,-6.813 l 0,-21.768 5.458,0 0,23.284 c 0,3.811 -1.187,6.951 -3.561,9.416 -2.671,2.749 -5.951,4.123 -9.839,4.123 -3.889,0 -7.161,-1.374 -9.814,-4.123 -2.375,-2.465 -3.56,-5.605 -3.56,-9.416 l 0,-23.284 5.458,0 z m 16.21,-9.721 -9.558,6.463 -2.6,-2.177 7.519,-7.543 4.639,3.257 z" id="path39" inkscape:connector-curvature="0" style="fill:#FFFFFF" />
	<path d="m 521.489,126.521 0,-36.169 5.433,0 c 2.422,0 4.35,0.187 5.786,0.561 1.452,0.374 2.678,1.007 3.678,1.897 1.014,0.921 1.818,2.07 2.411,3.445 0.609,1.388 0.914,2.794 0.914,4.216 0,2.593 -0.992,4.784 -2.974,6.581 1.92,0.658 3.434,1.803 4.544,3.444 1.125,1.627 1.686,3.514 1.686,5.67 0,2.825 -0.999,5.217 -2.998,7.17 -1.203,1.201 -2.553,2.036 -4.052,2.506 -1.639,0.45 -3.694,0.678 -6.16,0.678 l -8.268,0 z m 5.457,-20.639 1.71,0 c 2.029,0 3.517,-0.45 4.462,-1.347 0.943,-0.9 1.416,-2.223 1.416,-3.971 0,-1.703 -0.483,-2.994 -1.452,-3.877 -0.968,-0.883 -2.373,-1.322 -4.216,-1.322 l -1.92,0 0,10.517 z m 0,15.509 3.374,0 c 2.467,0 4.277,-0.485 5.433,-1.454 1.219,-1.046 1.828,-2.371 1.828,-3.981 0,-1.561 -0.587,-2.873 -1.757,-3.936 -1.141,-1.045 -3.178,-1.572 -6.114,-1.572 l -2.764,0 0,10.943 z" id="path41" inkscape:connector-curvature="0" style="fill:#FFFFFF" />
	<path d="m 555.313,90.352 0,31.039 10.635,0 0,5.13 -16.092,0 0,-36.169 5.457,0 z" id="path43" inkscape:connector-curvature="0" style="fill:#FFFFFF" />
	<path d="m 576.582,90.352 0,36.169 -5.458,0 0,-36.169 5.458,0 z" id="path45" inkscape:connector-curvature="0" style="fill:#FFFFFF" />
	<path d="m 612,92.284 0,6.453 c -3.156,-2.638 -6.418,-3.957 -9.792,-3.957 -3.716,0 -6.848,1.333 -9.394,4.005 -2.562,2.655 -3.841,5.902 -3.841,9.745 0,3.794 1.279,6.996 3.841,9.603 2.562,2.61 5.7,3.912 9.416,3.912 1.921,0 3.553,-0.311 4.897,-0.935 0.749,-0.312 1.527,-0.734 2.33,-1.267 0.805,-0.53 1.651,-1.17 2.543,-1.921 l 0,6.595 c -3.124,1.772 -6.403,2.659 -9.839,2.659 -5.168,0 -9.581,-1.804 -13.235,-5.411 -3.64,-3.638 -5.458,-8.024 -5.458,-13.165 0,-4.608 1.521,-8.713 4.566,-12.321 3.749,-4.421 8.598,-6.629 14.547,-6.629 3.25,-0.001 6.388,0.875 9.419,2.634 z" id="path47" inkscape:connector-curvature="0" style="fill:#FFFFFF" />
	<path d="m 641,117.735 -15.483,0 -4.03,8.786 -5.88,0 17.896,-38.444 17.264,38.444 -5.973,0 -3.794,-8.786 z m -2.226,-5.13 -5.364,-12.3 -5.622,12.3 10.986,0 z" id="path49" inkscape:connector-curvature="0" style="fill:#FFFFFF" />
	<path d="m 269.925,144.724 0,21.768 c 0,3.105 0.505,5.376 1.521,6.813 1.515,2.074 3.647,3.112 6.396,3.112 2.763,0 4.902,-1.038 6.418,-3.112 1.014,-1.392 1.521,-3.663 1.521,-6.813 l 0,-21.768 5.458,0 0,23.284 c 0,3.808 -1.187,6.948 -3.561,9.416 -2.671,2.749 -5.949,4.123 -9.837,4.123 -3.889,0 -7.161,-1.374 -9.816,-4.123 -2.373,-2.468 -3.561,-5.608 -3.561,-9.416 l 0,-23.284 5.461,0 z" id="path51" inkscape:connector-curvature="0" style="fill:#FFFFFF" />
	<path d="m 313.598,165.477 11.197,15.412 -6.678,0 -10.33,-14.803 -0.983,0 0,14.803 -5.458,0 0,-36.165 6.396,0 c 4.777,0 8.229,0.897 10.353,2.693 2.342,1.998 3.514,4.639 3.514,7.917 0,2.562 -0.734,4.763 -2.202,6.605 -1.468,1.845 -3.405,3.022 -5.809,3.538 z m -6.794,-4.147 1.734,0 c 5.169,0 7.753,-1.973 7.753,-5.927 0,-3.701 -2.515,-5.549 -7.542,-5.549 l -1.946,0 0,11.476 z" id="path53" inkscape:connector-curvature="0" style="fill:#FFFFFF" />
	<path d="m 336.586,144.724 0,21.768 c 0,3.105 0.509,5.376 1.523,6.813 1.513,2.074 3.645,3.112 6.394,3.112 2.766,0 4.905,-1.038 6.418,-3.112 1.014,-1.392 1.523,-3.663 1.523,-6.813 l 0,-21.768 5.459,0 0,23.284 c 0,3.808 -1.187,6.948 -3.562,9.416 -2.669,2.749 -5.951,4.123 -9.838,4.123 -3.888,0 -7.159,-1.374 -9.814,-4.123 -2.375,-2.468 -3.559,-5.608 -3.559,-9.416 l 0,-23.284 5.456,0 z" id="path55" inkscape:connector-curvature="0" style="fill:#FFFFFF" />
	<path d="m 386.608,162.057 14.945,0 0,1.194 c 0,2.718 -0.32,5.123 -0.961,7.214 -0.625,1.939 -1.679,3.749 -3.162,5.435 -3.358,3.78 -7.628,5.667 -12.814,5.667 -5.059,0 -9.392,-1.824 -12.999,-5.48 -3.607,-3.67 -5.411,-8.073 -5.411,-13.21 0,-5.248 1.835,-9.697 5.504,-13.352 3.67,-3.67 8.135,-5.504 13.399,-5.504 2.825,0 5.465,0.575 7.917,1.724 2.342,1.153 4.646,3.019 6.91,5.608 l -3.888,3.725 c -2.969,-3.953 -6.583,-5.927 -10.846,-5.927 -3.827,0 -7.036,1.319 -9.628,3.957 -2.593,2.593 -3.889,5.84 -3.889,9.745 0,4.03 1.445,7.35 4.334,9.956 2.702,2.42 5.629,3.631 8.784,3.631 2.685,0 5.097,-0.904 7.237,-2.711 2.139,-1.824 3.335,-4.005 3.585,-6.543 l -9.018,0 0,-5.129 z" id="path57" inkscape:connector-curvature="0" style="fill:#FFFFFF" />
	<path d="m 415.314,144.724 0,21.768 c 0,3.105 0.507,5.376 1.521,6.813 1.514,2.074 3.647,3.112 6.396,3.112 2.764,0 4.904,-1.038 6.418,-3.112 1.014,-1.392 1.523,-3.663 1.523,-6.813 l 0,-21.768 5.458,0 0,23.284 c 0,3.808 -1.187,6.948 -3.561,9.416 -2.671,2.749 -5.951,4.123 -9.839,4.123 -3.889,0 -7.161,-1.374 -9.814,-4.123 -2.375,-2.468 -3.56,-5.608 -3.56,-9.416 l 0,-23.284 5.458,0 z" id="path59" inkscape:connector-curvature="0" style="fill:#FFFFFF" />
	<path d="m 466.436,172.107 -15.483,0 -4.03,8.783 -5.88,0 17.896,-38.44 17.264,38.44 -5.973,0 -3.794,-8.783 z m -2.226,-5.131 -5.364,-12.296 -5.622,12.296 10.986,0 z" id="path61" inkscape:connector-curvature="0" style="fill:#FFFFFF" />
	<path d="m 486.311,165.266 -11.807,-20.542 6.278,0 8.268,14.453 8.293,-14.453 6.278,0 -11.853,20.542 0,15.623 -5.458,0 0,-15.623 z" id="path63" inkscape:connector-curvature="0" style="fill:#FFFFFF" />
	<g id="g65" transform="translate(-95.759,-188.786)">
		<polygon points="160.207,393.24 160.207,392.797 157.578,392.797 157.578,393.24 157.578,394.569 160.207,394.569 " id="polygon67" style="fill:#FFFFFF" />
		<rect x="157.578" y="387.478" width="2.6289999" height="1.772" id="rect69" style="fill:#FFFFFF" />
		<polygon points="169.408,378.164 170.458,377.63 171.509,372.839 169.408,372.839 167.303,372.839 168.355,377.63 " id="polygon71" style="fill:#FFFFFF" />
		<rect x="178.60899" y="398.564" width="3.941" height="1.772" id="rect73" style="fill:#FFFFFF" />
		<rect x="178.60899" y="392.797" width="3.941" height="1.772" id="rect75" style="fill:#FFFFFF" />
		<rect x="178.60899" y="387.478" width="3.941" height="1.772" id="rect77" style="fill:#FFFFFF" />
		<polygon points="191.749,378.164 192.803,377.63 193.852,372.839 191.749,372.839 189.648,372.839 190.698,377.63 " id="polygon79" style="fill:#FFFFFF" />
		<rect x="200.94901" y="398.564" width="3.9430001" height="1.772" id="rect81" style="fill:#FFFFFF" />
		<rect x="200.94901" y="392.797" width="3.9430001" height="1.772" id="rect83" style="fill:#FFFFFF" />
		<rect x="200.94901" y="387.478" width="3.9430001" height="1.772" id="rect85" style="fill:#FFFFFF" />
		<polygon points="214.092,378.164 215.144,377.63 216.196,372.839 214.092,372.839 211.989,372.839 213.041,377.63 " id="polygon87" style="fill:#FFFFFF" />
		<polygon points="225.922,393.24 225.922,392.797 223.293,392.797 223.293,393.24 223.293,394.569 225.922,394.569 " id="polygon89" style="fill:#FFFFFF" />
		<rect x="223.29201" y="387.478" width="2.6289999" height="1.772" id="rect91" style="fill:#FFFFFF" />
		<rect x="248.263" y="351.995" width="5.6960001" height="0.889" id="rect93" style="fill:#FFFFFF" />
		<rect x="248.263" y="357.759" width="5.6960001" height="0.889" id="rect95" style="fill:#FFFFFF" />
		<rect x="248.263" y="346.23001" width="5.6960001" height="0.889" id="rect97" style="fill:#FFFFFF" />
		<rect x="248.263" y="340.46399" width="5.6960001" height="0.89200002" id="rect99" style="fill:#FFFFFF" />
		<rect x="248.263" y="334.70001" width="5.6960001" height="0.88499999" id="rect101" style="fill:#FFFFFF" />
		<rect x="248.263" y="328.93301" width="5.6960001" height="0.884" id="rect103" style="fill:#FFFFFF" />
		<rect x="237.312" y="334.70001" width="8.7600002" height="23.948" id="rect105" style="fill:#FFFFFF" />
		<rect x="229.42599" y="351.995" width="5.6939998" height="0.889" id="rect107" style="fill:#FFFFFF" />
		<rect x="229.42599" y="357.759" width="5.6939998" height="0.889" id="rect109" style="fill:#FFFFFF" />
		<rect x="229.42599" y="346.23001" width="5.6939998" height="0.889" id="rect111" style="fill:#FFFFFF" />
		<rect x="229.42599" y="340.46399" width="5.6939998" height="0.89200002" id="rect113" style="fill:#FFFFFF" />
		<rect x="229.42599" y="334.70001" width="5.6939998" height="0.88499999" id="rect115" style="fill:#FFFFFF" />
		<rect x="229.42599" y="328.93301" width="5.6939998" height="0.884" id="rect117" style="fill:#FFFFFF" />
		<rect x="207.08299" y="361.75299" width="14.018" height="2.661" id="rect119" style="fill:#FFFFFF" />
		<rect x="209.71201" y="337.36099" width="8.7629995" height="23.063" id="rect121" style="fill:#FFFFFF" />
		<polygon points="198.758,361.753 191.75,361.753 184.74,361.753 184.74,364.414 198.758,364.414 " id="polygon123" style="fill:#FFFFFF" />
		<polygon points="187.369,337.361 187.369,360.424 191.749,360.424 196.131,360.424 196.131,337.361 191.749,337.361 " id="polygon125" style="fill:#FFFFFF" />
		<rect x="162.39799" y="361.75299" width="14.018" height="2.661" id="rect127" style="fill:#FFFFFF" />
		<rect x="165.02699" y="337.36099" width="8.7600002" height="23.063" id="rect129" style="fill:#FFFFFF" />
		<rect x="148.38" y="351.995" width="5.6960001" height="0.889" id="rect131" style="fill:#FFFFFF" />
		<rect x="148.38" y="357.759" width="5.6960001" height="0.889" id="rect133" style="fill:#FFFFFF" />
		<rect x="148.38" y="346.23001" width="5.6960001" height="0.889" id="rect135" style="fill:#FFFFFF" />
		<rect x="148.38" y="340.46399" width="5.6960001" height="0.89200002" id="rect137" style="fill:#FFFFFF" />
		<rect x="148.38" y="334.70001" width="5.6960001" height="0.88499999" id="rect139" style="fill:#FFFFFF" />
		<rect x="148.38" y="328.93301" width="5.6960001" height="0.884" id="rect141" style="fill:#FFFFFF" />
		<rect x="137.42599" y="334.70001" width="8.7609997" height="23.948" id="rect143" style="fill:#FFFFFF" />
		<rect x="129.54201" y="346.23001" width="5.6960001" height="0.889" id="rect145" style="fill:#FFFFFF" />
		<rect x="129.54201" y="351.995" width="5.6960001" height="0.889" id="rect147" style="fill:#FFFFFF" />
		<rect x="129.54201" y="340.46399" width="5.6960001" height="0.89200002" id="rect149" style="fill:#FFFFFF" />
		<rect x="129.54201" y="334.70001" width="5.6960001" height="0.88499999" id="rect151" style="fill:#FFFFFF" />
		<rect x="129.54201" y="328.93301" width="5.6960001" height="0.884" id="rect153" style="fill:#FFFFFF" />
		<rect x="129.54201" y="357.759" width="5.6960001" height="0.889" id="rect155" style="fill:#FFFFFF" />
		<path d="m 169.188,285.911 c 2.659,0 4.819,-2.182 4.819,-4.875 0,-2.696 -2.16,-4.879 -4.819,-4.879 -2.662,0 -4.819,2.182 -4.819,4.879 0.001,2.692 2.157,4.875 4.819,4.875" id="path157" inkscape:connector-curvature="0" style="fill:#FFFFFF" />
		<path d="m 191.749,285.911 c 2.662,0 4.819,-2.182 4.819,-4.875 0,-2.696 -2.156,-4.879 -4.819,-4.879 -2.663,0 -4.819,2.182 -4.819,4.879 0,2.692 2.156,4.875 4.819,4.875" id="path159" inkscape:connector-curvature="0" style="fill:#FFFFFF" />
		<path d="m 214.311,285.911 c 2.661,0 4.819,-2.182 4.819,-4.875 0,-2.696 -2.158,-4.879 -4.819,-4.879 -2.662,0 -4.819,2.182 -4.819,4.879 0.001,2.692 2.157,4.875 4.819,4.875" id="path161" inkscape:connector-curvature="0" style="fill:#FFFFFF" />
		<path d="m 157.141,305.43 -0.261,0 c -3.616,-4.343 -9.026,-7.098 -15.072,-7.098 -6.047,0 -11.457,2.755 -15.074,7.098 l -0.26,0 0,1.772 30.667,0 0,-1.772 z" id="path163" inkscape:connector-curvature="0" style="fill:#FFFFFF" />
		<polygon points="157.578,292.122 157.578,294.741 191.748,294.741 225.921,294.741 225.921,292.122 191.748,292.122 " id="polygon165" style="fill:#FFFFFF" />
		<polygon points="221.101,300.105 225.922,300.105 225.922,297.887 157.578,297.887 157.578,300.105 162.399,300.105 162.399,302.324 191.748,302.324 221.101,302.324 " id="polygon167" style="fill:#FFFFFF" />
		<rect x="162.39799" y="305.42999" width="58.702999" height="1.772" id="rect169" style="fill:#FFFFFF" />
		<polygon points="129.542,308.531 129.542,310.749 129.542,312.521 129.542,313.853 157.578,313.853 157.578,316.959 225.921,316.959 225.921,313.853 253.958,313.853 253.958,312.521 253.958,310.749 253.958,308.531 229.426,308.531 229.426,310.749 154.076,310.749 154.076,308.531 " id="polygon171" style="fill:#FFFFFF" />
		<path d="m 129.542,321.838 7.008,0 0,3.99 0.989,0 c 0.952,1.342 2.509,2.218 4.267,2.218 1.758,0 3.315,-0.875 4.267,-2.218 l 0.991,0 0,-3.99 7.01,0 0,-3.546 -24.533,0 0,3.546 z" id="path173" inkscape:connector-curvature="0" style="fill:#FFFFFF" />
		<path d="m 229.426,321.838 7.01,0 0,3.99 0.989,0 c 0.954,1.342 2.509,2.218 4.268,2.218 1.758,0 3.313,-0.875 4.269,-2.218 l 0.989,0 0,-3.99 7.008,0 0,-3.546 -24.533,0 0,3.546 z" id="path175" inkscape:connector-curvature="0" style="fill:#FFFFFF" />
		<path d="m 169.407,324.828 c 1.757,0 3.179,1.441 3.179,3.217 0,1.781 -1.422,3.218 -3.179,3.218 -1.755,0 -3.179,-1.438 -3.179,-3.218 0,-1.776 1.424,-3.217 3.179,-3.217 m -11.829,0.115 8.701,0 c -0.255,0.266 -0.48,0.559 -0.666,0.885 l -3.215,0 0,4.88 3.503,0 c 0.799,1.074 2.071,1.774 3.507,1.774 1.434,0 2.704,-0.7 3.503,-1.774 l 3.505,0 0,-4.88 -3.215,0 c -0.185,-0.326 -0.41,-0.619 -0.666,-0.885 l 12.911,0 c 1.139,-2.365 3.533,-3.993 6.304,-3.993 l -34.172,0 0,3.993 z" id="path177" inkscape:connector-curvature="0" style="fill:#FFFFFF" />
		<path d="m 214.092,324.828 c 1.755,0 3.177,1.441 3.177,3.217 0,1.781 -1.422,3.218 -3.177,3.218 -1.755,0 -3.179,-1.438 -3.179,-3.218 10e-4,-1.776 1.425,-3.217 3.179,-3.217 m -16.039,0.115 12.912,0 c -0.258,0.266 -0.481,0.559 -0.666,0.885 l -3.217,0 0,4.88 3.505,0 c 0.799,1.074 2.071,1.774 3.505,1.774 1.434,0 2.706,-0.7 3.505,-1.774 l 3.503,0 0,-4.88 -3.215,0 c -0.185,-0.326 -0.408,-0.619 -0.666,-0.885 l 8.701,0 0,-3.993 -34.172,0 c 2.774,0 5.168,1.628 6.305,3.993" id="path179" inkscape:connector-curvature="0" style="fill:#FFFFFF" />
		<path d="m 182.989,325.828 0,4.882 2.263,0 c -0.328,-0.825 -0.511,-1.72 -0.511,-2.664 0,-0.773 0.125,-1.518 0.35,-2.218 l -2.102,0 z" id="path181" inkscape:connector-curvature="0" style="fill:#FFFFFF" />
		<path d="m 198.758,328.045 c 0,0.944 -0.183,1.839 -0.511,2.664 l 2.266,0 0,-4.882 -2.105,0 c 0.227,0.7 0.35,1.445 0.35,2.218" id="path183" inkscape:connector-curvature="0" style="fill:#FFFFFF" />
		<path d="m 196.131,328.045 c 0,-1.223 -0.49,-2.333 -1.28,-3.133 l -2.622,3.413 c -0.013,0.022 -0.027,0.042 -0.043,0.067 l -0.015,0.017 c -0.01,0.007 -0.017,0.022 -0.027,0.032 -0.028,0.028 -0.06,0.052 -0.09,0.077 -0.215,0.137 -0.503,0.115 -0.691,-0.074 -0.045,-0.049 -0.082,-0.1 -0.107,-0.161 l -1.434,-2.192 1.91,1.28 3.119,-2.459 c -0.794,-0.805 -1.891,-1.3 -3.102,-1.3 -2.418,0 -4.379,1.985 -4.379,4.433 0,2.452 1.961,4.438 4.379,4.438 2.422,0 4.382,-1.986 4.382,-4.438" id="path185" inkscape:connector-curvature="0" style="fill:#FFFFFF" />
		<polygon points="176.417,333.367 162.399,333.367 162.399,335.585 176.417,335.585 176.417,334.256 " id="polygon187" style="fill:#FFFFFF" />
		<path d="m 191.749,335.144 c -1.775,0 -3.4,-0.671 -4.634,-1.776 l -2.376,0 0,2.216 7.01,0 7.008,0 0,-2.216 -2.373,0 c -1.237,1.105 -2.859,1.776 -4.635,1.776" id="path189" inkscape:connector-curvature="0" style="fill:#FFFFFF" />
		<rect x="207.08299" y="333.366" width="14.018" height="2.2179999" id="rect191" style="fill:#FFFFFF" />
		<path d="m 167.243,375.737 -0.38,-1.734 c -5.31,1.182 -9.286,5.968 -9.286,11.7 l 1.315,0 0.438,0 0.876,0 0.44,0 0.438,0 c 0,-4.038 2.797,-7.406 6.539,-8.236 l -0.188,-0.867 -0.192,-0.863 z" id="path193" inkscape:connector-curvature="0" style="fill:#FFFFFF" />
		<path d="m 189.382,374.807 -0.176,-0.805 c -4.029,0.899 -7.29,3.873 -8.627,7.754 -1.339,-3.881 -4.6,-6.855 -8.63,-7.754 l -0.175,0.802 -0.584,2.664 c 3.74,0.828 6.54,4.197 6.54,8.236 l 0.44,0 0.438,0 0.874,0 0.44,0 1.315,0 0.436,0 0.876,0 0.441,0 0.436,0 c 0,-4.038 2.799,-7.407 6.54,-8.236 l 0.003,0 -0.586,-2.664 -0.001,0.003 z" id="path195" inkscape:connector-curvature="0" style="fill:#FFFFFF" />
		<path d="m 211.549,374.003 c -4.031,0.899 -7.291,3.871 -8.628,7.752 -1.337,-3.881 -4.599,-6.854 -8.628,-7.752 l -0.176,0.8 -0.583,2.666 c 3.74,0.828 6.54,4.196 6.54,8.234 l 0.438,0 0.438,0 0.876,0 0.438,0 1.314,0 0.44,0 0.876,0 0.438,0 0.438,0 c 0,-4.038 2.801,-7.406 6.54,-8.234 l -0.583,-2.666 -0.178,-0.8 z" id="path197" inkscape:connector-curvature="0" style="fill:#FFFFFF" />
		<path d="m 216.634,374.003 -0.175,0.8 -0.584,2.666 c 3.74,0.828 6.542,4.196 6.542,8.234 l 0.436,0 0.44,0 0.876,0 0.438,0 1.315,0 c 0,-5.73 -3.976,-10.518 -9.288,-11.7" id="path199" inkscape:connector-curvature="0" style="fill:#FFFFFF" />
		<path d="m 178.17,396.566 c -0.122,0 -0.22,0.102 -0.22,0.224 0,0.122 0.098,0.219 0.22,0.219 0.122,0 0.218,-0.097 0.218,-0.219 0,-0.122 -0.097,-0.224 -0.218,-0.224" id="path201" inkscape:connector-curvature="0" style="fill:#FFFFFF" />
		<path d="m 179.482,397.01 c 0,-0.122 -0.097,-0.221 -0.218,-0.221 -0.12,0 -0.221,0.099 -0.221,0.221 0,0.122 0.102,0.224 0.221,0.224 0.122,0 0.218,-0.102 0.218,-0.224" id="path203" inkscape:connector-curvature="0" style="fill:#FFFFFF" />
		<path d="m 180.797,396.125 c 0,-0.122 -0.097,-0.224 -0.218,-0.224 -0.122,0 -0.218,0.102 -0.218,0.224 0,0.122 0.097,0.221 0.218,0.221 0.121,0 0.218,-0.099 0.218,-0.221" id="path205" inkscape:connector-curvature="0" style="fill:#FFFFFF" />
		<g id="g207">
			<rect x="176.41701" y="256.62701" width="3.082" height="3.1199999" id="rect209" style="fill:#FFFFFF" />
			<rect x="180.36099" y="256.62701" width="3.0799999" height="3.1199999" id="rect211" style="fill:#FFFFFF" />
			<rect x="188.243" y="256.62701" width="3.0840001" height="3.1199999" id="rect213" style="fill:#FFFFFF" />
			<rect x="192.173" y="256.62701" width="3.082" height="3.1199999" id="rect215" style="fill:#FFFFFF" />
			<rect x="184.30099" y="256.62701" width="3.082" height="3.1199999" id="rect217" style="fill:#FFFFFF" />
			<rect x="172.472" y="256.62701" width="3.082" height="3.1199999" id="rect219" style="fill:#FFFFFF" />
			<rect x="160.645" y="256.62701" width="3.082" height="3.1199999" id="rect221" style="fill:#FFFFFF" />
			<rect x="164.586" y="256.62701" width="3.082" height="3.1199999" id="rect223" style="fill:#FFFFFF" />
			<rect x="168.52901" y="256.62701" width="3.082" height="3.1199999" id="rect225" style="fill:#FFFFFF" />
			<rect x="219.771" y="256.62701" width="3.0840001" height="3.1199999" id="rect227" style="fill:#FFFFFF" />
			<rect x="215.828" y="256.62701" width="3.082" height="3.1199999" id="rect229" style="fill:#FFFFFF" />
			<rect x="211.88699" y="256.62701" width="3.082" height="3.1199999" id="rect231" style="fill:#FFFFFF" />
			<path d="m 287.8,309.528 -0.058,-120.742 -191.983,0 0,122.624 c 0,0.86 0.103,2.207 0.103,2.207 1.75,52.105 43.985,93.819 95.886,93.819 52.569,0 95.343,-42.783 96.051,-95.827 l 0,-1.433 c -0.026,-0.687 0.001,0 0.001,-0.648 z m -130.222,-48.009 2.19,-2.218 0,-7.094 0.877,0 0,3.55 31.103,0 31.106,0 0,-3.55 0.876,0 0,7.094 2.191,2.218 0,2.661 -68.343,0 0,-2.661 z m -55.195,69.191 23.214,0 0,3.106 -22.485,0 c -0.263,-1.026 -0.499,-2.064 -0.729,-3.106 z m 154.204,44.789 -28.915,0 -0.028,0 0,2.666 26.641,0 c -2.866,2.713 -5.924,5.217 -9.116,7.538 l -0.07,0 -6.241,0 -11.214,0 0,2.676 11.214,0 2.271,0 0.156,0 c -6.254,4.074 -13.014,7.424 -20.185,9.876 l 0,-0.099 0,-0.206 0,-12.248 c 0,-3.923 -3.135,-7.098 -7.008,-7.098 -3.871,0 -7.01,3.175 -7.01,7.098 l 0,12.248 0,3.759 0,0.119 c -2.736,0.465 -5.511,0.818 -8.324,1.036 l 0,-0.134 0,-2.584 0,-14.444 c 0,-3.923 -3.137,-7.098 -7.01,-7.098 -3.871,0 -7.008,3.175 -7.008,7.098 l 0,14.444 0,2.584 0,0.134 c -2.811,-0.221 -5.588,-0.561 -8.323,-1.029 l 0,-0.126 0,-4.475 0,-11.532 c 0,-3.923 -3.139,-7.098 -7.01,-7.098 -3.871,0 -7.008,3.175 -7.008,7.098 l 0,11.532 0,0.922 0,0.115 c -7.186,-2.462 -13.955,-5.819 -20.217,-9.906 l 0.132,0 c 0.008,0.003 0.017,0.01 0.025,0.013 l 13.488,0 0,-2.676 -10.771,0 -6.689,0 -0.038,0 c -3.192,-2.321 -6.251,-4.825 -9.115,-7.538 l 26.612,0 0,-2.221 0,-0.445 -28.913,0 0,-7.095 27.596,0 1.317,0 1.752,0 0,1.332 68.343,0 0,-1.332 1.75,0 28.915,0 0,7.096 z m 23.798,-41.683 -22.485,0 0,-3.106 23.216,0 c -0.23,1.042 -0.469,2.08 -0.731,3.106 z m 2.44,-13.754 -26.238,0 0,1.776 26.041,0 c -0.125,1.043 -0.263,2.077 -0.424,3.106 l -24.303,0 -1.314,0 0,4.874 0,0.892 0,0.882 0,2.224 0,1.329 0,25.28 1.314,0 0,-25.28 22.12,0 c -0.408,1.496 -0.854,2.973 -1.332,4.434 l -5.015,0 0,12.284 c -1.091,2.208 -2.253,4.372 -3.507,6.474 l 0,-18.758 -7.884,0 0,20.847 6.58,0 c -1.45,2.29 -2.997,4.507 -4.634,6.651 l -7.642,0 0,-2.661 -28.915,0 0,0.964 0,0.368 0,0.44 -3.503,0 -66.152,0 -0.438,0 -1.752,0 0,-0.44 0,-0.777 0,-0.556 -28.913,0 0,2.661 -7.644,0 c -1.638,-2.144 -3.185,-4.362 -4.637,-6.651 l 6.585,0 0,-20.847 -7.886,0 0,18.762 c -1.255,-2.102 -2.416,-4.266 -3.505,-6.469 l 0,-12.293 -5.02,0 c -0.478,-1.461 -0.922,-2.937 -1.33,-4.434 l 22.12,0 0,25.28 1.317,0 0,-25.28 0,-1.329 0,-2.224 0,-0.882 0,-0.892 0,-4.874 -1.317,0 -24.303,0 c -0.16,-1.029 -0.298,-2.063 -0.425,-3.106 l 26.045,0 0,-1.776 -26.241,0 c -0.12,-1.177 -0.236,-2.355 -0.313,-3.546 l 2.01,0 24.544,0 0,-7.983 -3.507,0 0,-3.992 2.349,0 c 1.111,-1.329 2.383,-2.521 3.786,-3.542 l 0,-6.216 7.02,0 c 1.542,0.909 3.332,1.426 5.245,1.426 1.911,0 3.703,-0.517 5.245,-1.426 l 7.023,0 2.627,0 0,-2.661 -6.572,0 0,-1.334 -16.649,0 0.002,1.334 -6.57,0 0,-4.435 0,-0.447 2.634,0 c 0.311,-11.307 12.448,-20.398 27.373,-20.398 0.1,0 0.198,0.003 0.296,0.003 0.12,-0.003 0.241,-0.003 0.361,-0.003 l 34.17,0 34.173,0 c 0.118,0 0.24,0 0.36,0.003 0.1,0 0.198,-0.003 0.296,-0.003 14.927,0 27.063,9.091 27.373,20.398 l 2.636,0 0,4.882 -6.574,0 0,-1.334 -16.645,0 0,1.334 -6.57,0 0,2.661 9.649,0 c 1.542,0.909 3.335,1.426 5.247,1.426 1.91,0 3.703,-0.517 5.243,-1.426 l 7.023,0 0,6.216 c 1.399,1.021 2.672,2.213 3.785,3.542 l 2.348,0 0,3.992 -3.505,0 0,7.983 24.666,0 1.885,0 c -0.074,1.192 -0.193,2.37 -0.312,3.547 z" id="path233" inkscape:connector-curvature="0" style="fill:#FFFFFF" />
			<rect x="207.942" y="256.62701" width="3.0840001" height="3.1199999" id="rect235" style="fill:#FFFFFF" />
			<rect x="196.114" y="256.62701" width="3.082" height="3.1199999" id="rect237" style="fill:#FFFFFF" />
			<rect x="200.058" y="256.62701" width="3.0840001" height="3.1199999" id="rect239" style="fill:#FFFFFF" />
			<rect x="204.00101" y="256.62701" width="3.082" height="3.1199999" id="rect241" style="fill:#FFFFFF" />
		</g>
		<path d="m 257.025,306.314 0,-0.885 -0.261,0 c -3.615,-4.343 -9.026,-7.096 -15.07,-7.096 -6.047,0 -11.459,2.753 -15.074,7.096 l -0.261,0 0,1.774 30.667,0 0,-0.889 z" id="path243" inkscape:connector-curvature="0" style="fill:#FFFFFF" />
	</g>
</svg>
